<?xml version="1.0" encoding="utf-8"?>
<!-- Generator: Adobe Illustrator 21.0.0, SVG Export Plug-In . SVG Version: 6.00 Build 0)  -->
<svg version="1.1" id="Слой_1" xmlns="http://www.w3.org/2000/svg" xmlns:xlink="http://www.w3.org/1999/xlink" x="0px" y="0px"
	 viewBox="0 0 73.4 27.1" style="enable-background:new 0 0 73.4 27.1;" xml:space="preserve">
<style type="text/css">
	.st0{fill:#D80409;}
</style>
<g>
	<g>
		<path class="st0" d="M25.2,9.5c0-2.8,1-5.3,2.6-7.3H7.7C3.4,2.2,0,5.6,0,9.9l0,0c0,4.3,3.4,7.7,7.7,7.7h20.9
			C26.5,15.6,25.2,12.7,25.2,9.5z M13.3,15c-0.3,0-0.6-0.1-0.8-0.4l-2.7-3.7l-0.3,0.3v2.9c0,0.6-0.5,1-1,1s-0.9-0.4-1-1V5.7
			c0-0.6,0.5-1,1.1-0.9c0.5,0,0.9,0.4,0.9,0.9v2.7l2.8-3.2c0.2-0.2,0.5-0.4,0.8-0.4c0.4,0,1,0.4,1,0.9c0,0.2-0.1,0.4-0.2,0.6
			l-2.8,3.2l3.1,4.1c0.1,0.1,0.1,0.3,0.1,0.5C14.3,14.6,13.8,15,13.3,15z M19.9,8.9c0.5,0,1,0.4,1,0.9s-0.4,0.9-1,0.9l0,0h-2.7V14
			c0,0.6-0.5,1-1.1,0.9c-0.5,0-0.9-0.4-0.9-0.9V5.8c0-0.6,0.5-1,1.1-1h3.8c0.5,0,1,0.4,1,0.9s-0.5,0.9-1,0.9l0,0h-2.9v2.3L19.9,8.9
			L19.9,8.9L19.9,8.9z"/>
		<path class="st0" d="M36.7,0c-5.4,0-9.8,4.3-9.8,9.5s4.4,9.5,9.8,9.5s9.8-4.3,9.8-9.5S42.1,0,36.7,0z M33.1,12
			c-1,0-1.8-0.8-1.8-1.7c0-1,0.8-1.7,1.8-1.7s1.8,0.8,1.8,1.7C34.9,11.3,34.2,12,33.1,12z M36.7,14.7c-0.7-0.7-1.1-1.6-1.1-2.6
			s0.4-1.9,1.1-2.6c0.7,0.7,1.1,1.6,1.1,2.6S37.4,14,36.7,14.7z M40.2,12c-1,0-1.8-0.8-1.8-1.7c0-1,0.8-1.7,1.8-1.7S42,9.4,42,10.3
			C42,11.3,41.2,12,40.2,12z M42.3,7.1c-2.5,0.1-4.6,1.1-5.6,2.4c-1-1.3-3.1-2.3-5.6-2.4L31.2,7C34.3,4,39.3,4,42.3,7.1L42.3,7.1z"
			/>
		<g>
			<path class="st0" d="M64.3,6.6c-1.1,0-1.6,0.7-1.6,1.7v0.8h3.2V8.3C65.9,7.3,65.4,6.6,64.3,6.6z"/>
			<path class="st0" d="M65.7,2.2H45.6c1.6,2,2.6,4.6,2.6,7.3c0,3.1-1.3,6-3.3,8.1h20.8c4.3,0,7.7-3.4,7.7-7.7l0,0
				C73.4,5.7,70,2.2,65.7,2.2z M60.1,11.4c0,2-1.3,3.4-3.6,3.4c-2.3,0-3.6-1.4-3.6-3.4V5.8c0-0.5,0.5-0.9,1-0.9l0,0
				c0.5,0,1,0.4,1,0.9v5.7c0,1,0.5,1.7,1.6,1.7s1.6-0.7,1.6-1.7V5.8c0-0.5,0.5-0.9,1-0.9s1,0.4,1,0.9V11.4L60.1,11.4L60.1,11.4z
				 M68,14c0,0.5-0.5,0.9-1,0.9l0,0c-0.5,0-1-0.4-1-0.9v-3h-3.2v3c0,0.5-0.5,0.9-1,0.9s-1-0.4-1-0.9V8.3c0-2,1.3-3.4,3.6-3.4
				c2.3,0,3.6,1.4,3.6,3.4V14L68,14z"/>
		</g>
	</g>
	<g>
		<path class="st0" d="M5.4,25.7v-1c0-0.7,0.4-1.3,1.3-1.3C7.6,23.4,8,24,8,24.7v1C8,26.4,7.6,27,6.7,27C5.9,27,5.4,26.4,5.4,25.7z
			 M6.1,24.7v1c0,0.4,0.2,0.7,0.6,0.7c0.4,0,0.6-0.3,0.6-0.7v-1c0-0.4-0.2-0.7-0.6-0.7C6.3,24,6.1,24.3,6.1,24.7z"/>
		<path class="st0" d="M20,27c-0.2,0-0.3-0.1-0.3-0.3v-1.2h-1.1v1.2c0,0.2-0.2,0.3-0.3,0.3c-0.2,0-0.3-0.1-0.3-0.3v-3
			c0-0.2,0.1-0.3,0.3-0.3s0.3,0.1,0.3,0.3v1.2h1.1v-1.2c0-0.2,0.2-0.3,0.3-0.3c0.2,0,0.3,0.1,0.3,0.3v3C20.3,26.8,20.2,27,20,27z"/>
		<path class="st0" d="M30.8,23.8c0-0.2,0.2-0.4,0.4-0.4h1.4c0.2,0,0.4,0.2,0.4,0.4v2.9c0,0.2-0.2,0.3-0.3,0.3
			c-0.2,0-0.3-0.1-0.3-0.3v-2.6h-0.8l-0.1,2c0,0.6-0.3,1-0.8,1c-0.3,0-0.5,0-0.5-0.3c0-0.2,0.2-0.3,0.3-0.3h0.1l0,0
			c0.1,0,0.1-0.1,0.1-0.3L30.8,23.8z"/>
		<path class="st0" d="M43.4,26.7c0,0.1-0.2,0.2-0.3,0.2c-0.2,0-0.4-0.1-0.4-0.3v-0.1l1-2.8c0.1-0.2,0.2-0.3,0.4-0.3
			c0.2,0,0.3,0.1,0.4,0.3l1,2.8v0.1c0,0.2-0.1,0.3-0.4,0.3c-0.1,0-0.3-0.1-0.3-0.2l-0.1-0.5h-1.1L43.4,26.7z M44.2,24.8
			c0-0.1-0.1-0.3-0.1-0.5c0,0.1,0,0.3-0.1,0.5l-0.3,0.9h0.7L44.2,24.8z"/>
		<path class="st0" d="M55.6,27c-0.2,0-0.4-0.1-0.4-0.3v-3c0-0.2,0.1-0.3,0.3-0.3c0.2,0,0.4,0.1,0.4,0.3v1.9c0.5-0.8,0.7-1.3,1.2-2
			c0.1-0.1,0.2-0.2,0.3-0.2c0.2,0,0.4,0.1,0.4,0.3v3c0,0.2-0.1,0.3-0.3,0.3c-0.2,0-0.4-0.1-0.4-0.3v-1.9l-1.2,2
			C55.9,26.9,55.7,27,55.6,27z M56.5,22.7c-0.1,0-0.2,0-0.3-0.1c0-0.1-0.1-0.1-0.2-0.1s-0.3,0.1-0.2,0.3c0.1,0.3,0.5,0.4,0.7,0.4
			s0.7-0.2,0.7-0.4c0-0.2-0.1-0.3-0.2-0.3s-0.2,0-0.2,0.1C56.7,22.7,56.6,22.7,56.5,22.7z"/>
		<path class="st0" d="M69.8,27c-0.2,0-0.3-0.1-0.3-0.3v-1.2h-1.1v1.2c0,0.2-0.2,0.3-0.3,0.3c-0.2,0-0.3-0.1-0.3-0.3v-3
			c0-0.2,0.1-0.3,0.3-0.3s0.3,0.1,0.3,0.3v1.2h1.1v-1.2c0-0.2,0.2-0.3,0.3-0.3c0.2,0,0.3,0.1,0.3,0.3v3C70.1,26.8,70,27,69.8,27z"/>
	</g>
</g>
</svg>
