<?xml version="1.0" encoding="utf-8"?>
<!-- Generator: Adobe Illustrator 21.0.0, SVG Export Plug-In . SVG Version: 6.00 Build 0)  -->
<svg version="1.1" id="Слой_1" xmlns:xodm="http://www.corel.com/coreldraw/odm/2003"
	 xmlns="http://www.w3.org/2000/svg" xmlns:xlink="http://www.w3.org/1999/xlink" x="0px" y="0px" viewBox="0 0 2731.8 930.8"
	 style="enable-background:new 0 0 2731.8 930.8;" xml:space="preserve">
<style type="text/css">
	.st0{fill:#727271;}
	.st1{fill:#FEC601;}
	.st2{fill:#FEFEFE;}
</style>
<g id="Слой_x0020_1">
	<path class="st0" d="M257,783.2c-6.9,0-12.7,2.3-16.1,5.8c-4.6,3.5-9.2,9.2-17.3,16.1c-5.8,5.8-10.4,10.4-15,13.8
		c-4.6,3.5-9.2,6.9-15,9.2c-4.6,2.3-10.4,4.6-16.1,5.8c-5.8,1.2-12.7,1.2-19.6,1.2c-16.1,0-28.8-3.5-40.3-9.2s-20.8-15-27.7-25.4
		c-6.9-10.4-12.7-23.1-16.1-38c-4.6-16.1-5.8-31.1-5.8-47.3c0-16.1,1.2-31.1,4.6-46.1c3.5-13.8,8.1-26.5,16.1-36.9
		c6.9-10.4,16.1-19.6,27.7-25.4c11.5-5.8,24.2-9.2,40.3-9.2c13.8,0,25.4,2.3,34.6,6.9c9.2,4.6,19.6,12.7,30,24.2
		c5.8,5.8,10.4,11.5,15,15c4.6,3.5,10.4,5.8,19.6,5.8s17.3-3.5,23.1-9.2s8.1-12.7,8.1-21.9c0-6.9-1.2-12.7-4.6-18.4
		c-3.5-5.8-8.1-11.5-12.7-17.3c-4.6-5.8-11.5-10.4-18.4-16.1c-6.9-4.6-15-9.2-24.2-13.8c-9.2-3.5-19.6-6.9-30-9.2
		c-10.4-2.3-23.1-3.5-34.6-3.5c-28.8,0-53,4.6-73.8,13.8C68,563.1,51.9,576.9,38,593C25.4,609.2,15,627.6,9.2,650.7
		C3.5,671.4,0,694.5,0,717.5c0,21.9,2.3,45,8.1,65.7c5.8,20.8,13.8,39.2,26.5,56.5C47.3,857,62.2,868.5,83,878.9
		c19.6,9.2,45,13.8,72.6,13.8c27.7,0,51.9-4.6,71.5-12.7s34.6-18.4,45-28.8c12.7-12.7,18.4-25.4,18.4-36.9c0-8.1-3.5-15-9.2-20.8
		C274.3,786.7,266.3,783.2,257,783.2L257,783.2z M487.6,639.1c-2.3-3.5-5.8-5.8-9.2-8.1c-4.6-2.3-10.4-3.5-17.3-3.5
		c-13.8,0-25.4,3.5-35.7,11.5c-10.4,6.9-18.4,16.1-24.2,26.5v-10.4c0-8.1-2.3-13.8-8.1-17.3c-5.8-3.5-13.8-4.6-23.1-4.6
		c-12.7,0-20.7,2.3-25.4,8.1c-4.6,5.8-6.9,11.5-6.9,18.4v201.7c0,18.4,10.4,28.8,32.3,28.8c11.5,0,19.6-2.3,25.4-6.9
		c4.6-4.6,8.1-11.5,8.1-21.9v-94.5c0-15,1.2-28.8,3.5-39.2c2.3-10.4,9.2-18.4,19.6-24.2c6.9-3.5,13.8-5.8,20.8-6.9
		c5.8-1.2,12.7-2.3,18.4-3.5c5.8-1.2,10.4-2.3,13.8-4.6c3.5-2.3,5.8-4.6,8.1-8.1c2.3-2.3,3.5-5.8,3.5-9.2c0-3.5,1.2-6.9,1.2-9.2
		s0-5.8-1.2-9.2C489.9,646.1,488.7,642.6,487.6,639.1L487.6,639.1z M629.4,627.6c-21.9,0-40.3,3.5-56.5,11.5
		c-16.1,8.1-28.8,17.3-39.2,30c-10.4,12.7-17.3,26.5-23.1,42.7c-4.6,16.1-6.9,32.3-6.9,50.7c0,21.9,3.5,41.5,9.2,58.8
		c5.8,16.1,15,30,25.4,40.3c11.5,10.4,25.4,18.4,41.5,23.1c16.1,4.6,34.6,8.1,54.2,8.1c13.8,0,27.7-1.2,41.5-4.6
		c13.8-3.5,26.5-8.1,36.9-15c8.1-4.6,12.7-9.2,16.1-13.8c3.5-4.6,4.6-9.2,4.6-15c0-8.1-2.3-15-8.1-21.9c-5.8-6.9-11.5-9.2-17.3-9.2
		c-5.8,0-10.4,1.2-15,3.5c-4.6,2.3-8.1,4.6-13.8,8.1c-4.6,2.3-11.5,5.8-18.4,9.2c-6.9,3.5-16.1,4.6-25.4,4.6
		c-39.2,0-61.1-19.6-63.4-59.9l140.6,0c10.4,0,18.4-2.3,24.2-5.8c5.8-3.5,8.1-10.4,8.1-19.6c0-40.3-10.4-72.6-31.1-94.5
		C693.9,638,666.2,627.6,629.4,627.6L629.4,627.6z M575.2,729c1.2-16.1,6.9-28.8,17.3-36.9c10.4-8.1,21.9-12.7,35.7-12.7
		c8.1,0,16.1,1.2,21.9,4.6c5.8,3.5,11.5,6.9,15,11.5c3.5,4.6,6.9,10.4,9.2,16.1c2.3,5.8,2.3,11.5,2.3,17.3
		C676.6,729,575.2,729,575.2,729L575.2,729z M995.9,544.6c-8.1,0-16.1,1.2-23.1,4.6c-6.9,3.5-10.4,10.4-10.4,20.8v94.5
		c-2.3-4.6-5.8-8.1-9.2-12.7c-3.5-4.6-8.1-8.1-13.8-11.5c-5.8-3.5-12.7-6.9-19.6-8.1c-8.1-2.3-16.1-3.5-25.4-3.5
		c-17.3,0-32.3,3.5-46.1,10.4s-25.4,16.1-34.6,27.7c-9.2,11.5-16.1,25.4-21.9,41.5c-4.6,16.1-6.9,33.4-6.9,53s2.3,36.9,6.9,54.2
		c4.6,16.1,11.5,30,20.8,41.5c9.2,11.5,20.8,20.8,34.6,27.7C861,891.6,876,895,893.3,895c12.7,0,24.2-1.2,32.3-4.6
		c9.2-3.5,16.1-6.9,21.9-11.5c6.9-4.6,12.7-10.4,16.1-17.3v3.5c0,9.2,2.3,16.1,8.1,19.6c4.6,4.6,13.8,5.8,25.4,5.8
		c20.7,0,31.1-9.2,31.1-26.5V571.1c0-8.1-2.3-15-8.1-19.6C1016.6,546.9,1008.6,544.6,995.9,544.6L995.9,544.6z M950.9,817.8
		c-9.2,13.8-23.1,20.8-41.5,20.8c-18.4,0-33.4-6.9-42.7-21.9c-9.2-13.8-13.8-32.3-13.8-54.2c0-10.4,1.2-20.7,3.5-30
		c2.3-9.2,5.8-17.3,10.4-24.2c4.6-6.9,10.4-12.7,18.4-16.1c6.9-3.5,15-5.8,24.2-5.8c9.2,0,17.3,2.3,24.2,5.8
		c6.9,3.5,12.7,9.2,17.3,16.1c4.6,6.9,8.1,15,10.4,24.2c2.3,9.2,3.5,19.6,3.5,30C964.8,785.5,960.2,804,950.9,817.8L950.9,817.8z
		 M1131.9,632.2c-12.7,0-20.8,2.3-26.5,8.1c-5.8,5.8-8.1,12.7-8.1,21.9v199.4c0,17.3,11.5,25.4,34.6,25.4c10.4,0,18.4-2.3,24.2-5.8
		c5.8-4.6,8.1-11.5,8.1-20.7l0-200.6c0-9.2-2.3-16.1-8.1-20.8C1150.3,634.5,1142.3,632.2,1131.9,632.2L1131.9,632.2z M1157.3,542.3
		c-8.1-5.8-16.1-8.1-25.4-8.1c-11.5,0-20.8,3.5-27.7,10.4c-6.9,6.9-10.4,15-10.4,25.4c0,10.4,3.5,19.6,10.4,25.4
		c6.9,6.9,16.1,9.2,27.7,9.2s20.8-3.5,27.7-9.2c6.9-6.9,10.4-15,10.4-25.4C1168.8,556.1,1165.3,548.1,1157.3,542.3z M1372.8,835.1
		c-3.5-6.9-9.2-9.2-17.3-9.2c-3.5,0-5.8,1.2-8.1,2.3l-8.1,3.5c-2.3,1.2-5.8,2.3-8.1,3.5c-2.3,1.2-5.8,1.2-10.4,1.2
		c-5.8,0-10.4-1.2-12.7-4.6c-2.3-3.5-4.6-8.1-4.6-16.1l0-130.3h39.2c11.5,0,17.3-8.1,17.3-25.4c0-6.9-1.2-11.5-3.5-16.1
		c-2.3-4.6-6.9-6.9-13.8-6.9l-40.3,0v-56.5c0-5.8-1.2-11.5-4.6-15c-3.5-3.5-9.2-5.8-17.3-5.8c-4.6,0-9.2,0-15,1.2
		c-4.6,1.2-9.2,3.5-13.8,5.8c-4.6,2.3-8.1,5.8-10.4,9.2c-2.3,3.5-4.6,9.2-4.6,15V638l-20.8,0c-5.8,0-9.2,2.3-11.5,6.9
		c-2.3,4.6-3.5,10.4-3.5,16.1c0,5.8,1.2,11.5,3.5,17.3c2.3,5.8,6.9,8.1,11.5,8.1h20.8v138.3c0,24.2,5.8,41.5,18.4,54.2
		c12.7,12.7,28.8,17.3,50.7,17.3c13.8,0,25.4-1.2,34.6-3.5c9.2-2.3,17.3-5.8,24.2-10.4c4.6-2.3,8.1-5.8,9.2-10.4
		c2.3-3.5,2.3-8.1,2.3-13.8C1377.4,848.9,1376.3,840.9,1372.8,835.1L1372.8,835.1z"/>
	<path class="st1" d="M2723.7,883.5c-4.6,4.6-12.7,5.8-24.2,5.8c-9.2,0-17.3-2.3-23.1-5.8c-5.8-3.5-8.1-10.4-8.1-20.8v-9.2
		c-3.5,4.6-6.9,9.2-11.5,13.8c-4.6,4.6-9.2,8.1-16.1,11.5c-5.8,3.5-13.8,6.9-21.9,8.1c-8.1,2.3-18.4,3.5-28.8,3.5
		c-25.4,0-45-6.9-59.9-19.6c-15-13.8-21.9-31.1-21.9-54.2c0-12.7,2.3-24.2,6.9-32.3c4.6-9.2,10.4-16.1,17.3-23.1
		c8.1-5.8,16.1-10.4,26.5-13.8c10.4-3.5,20.8-5.8,32.3-8.1c12.7-2.3,24.2-3.5,36.9-5.8c12.7-1.2,25.4-2.3,40.3-3.5V721
		c0-4.6-1.2-9.2-2.3-13.8c-1.2-4.6-3.5-9.2-6.9-12.7c-3.5-3.5-6.9-6.9-12.7-9.2c-5.8-2.3-12.7-3.5-19.6-3.5c-4.6,0-10.4,0-13.8,1.2
		c-4.6,1.2-8.1,1.2-12.7,3.5c-3.5,1.2-8.1,3.5-12.7,5.8c-4.6,2.3-9.2,5.8-15,9.2c-4.6,3.5-8.1,5.8-11.5,6.9
		c-3.5,2.3-8.1,3.5-13.8,3.5c-6.9,0-13.8-2.3-19.6-8.1c-5.8-5.8-8.1-12.7-8.1-20.7c0-5.8,2.3-11.5,6.9-17.3
		c4.6-5.8,11.5-11.5,20.8-17.3c9.2-5.8,20.8-9.2,33.4-12.7c13.8-3.5,28.8-5.8,47.3-5.8c36.9,0,63.4,6.9,79.5,21.9
		c16.1,13.8,24.2,36.9,24.2,68l0,145.2C2730.6,873.1,2728.3,880,2723.7,883.5L2723.7,883.5z M2667.2,771.7
		c-12.7,1.2-24.2,2.3-34.6,4.6c-11.5,1.2-19.6,3.5-24.2,4.6c-15,3.5-25.4,8.1-30,13.8s-6.9,11.5-6.9,18.4c0,8.1,2.3,15,8.1,19.6
		c4.6,4.6,13.8,6.9,26.5,6.9c19.6,0,35.7-4.6,46.1-13.8c10.4-9.2,16.1-20.8,16.1-35.7L2667.2,771.7L2667.2,771.7z M2359.5,729
		l25.4,4.6c28.8,5.8,50.7,13.8,63.4,25.4c12.7,11.5,19.6,30,19.6,54.2c0,26.5-9.2,48.4-28.8,61.1c-19.6,13.8-46.1,19.6-79.5,19.6
		c-19.6,0-36.9-2.3-51.9-6.9c-15-4.6-27.7-10.4-36.9-17.3c-4.6-2.3-6.9-5.8-9.2-10.4c-2.3-3.5-3.5-6.9-3.5-10.4
		c0-6.9,1.2-12.7,4.6-18.4c2.3-4.6,5.8-9.2,10.4-11.5c3.5-3.5,9.2-4.6,13.8-4.6c4.6,0,9.2,1.2,13.8,4.6c4.6,3.5,9.2,5.8,15,9.2
		c5.8,3.5,11.5,6.9,19.6,9.2c6.9,2.3,16.1,4.6,27.7,4.6c13.8,0,24.2-2.3,30-6.9c5.8-4.6,9.2-10.4,9.2-18.4c0-5.8-2.3-11.5-6.9-16.1
		c-4.6-4.6-12.7-8.1-26.5-10.4l-28.8-5.8c-11.5-2.3-23.1-4.6-32.3-8.1c-9.2-3.5-18.4-8.1-25.4-13.8c-6.9-5.8-12.7-12.7-16.1-21.9
		c-3.5-8.1-5.8-18.4-5.8-31.1c0-12.7,2.3-24.2,8.1-34.6c4.6-10.4,12.7-18.4,21.9-25.4c9.2-6.9,20.7-11.5,33.4-16.1
		c12.7-3.5,27.7-5.8,42.7-5.8c21.9,0,40.3,2.3,54.2,8.1c13.8,5.8,24.2,10.4,31.1,16.1c4.6,3.5,6.9,6.9,8.1,10.4
		c1.2,3.5,2.3,6.9,2.3,10.4c0,8.1-2.3,13.8-5.8,19.6c-2.3,3.5-5.8,5.8-8.1,6.9c-2.3,2.3-5.8,2.3-10.4,2.3c-3.5,0-6.9-1.2-10.4-2.3
		c-3.5-1.2-6.9-3.5-9.2-4.6c-8.1-4.6-17.3-9.2-25.4-12.7c-8.1-3.5-18.4-4.6-31.1-4.6s-21.9,2.3-27.7,6.9c-5.8,4.6-9.2,9.2-9.2,16.1
		c0,5.8,2.3,10.4,6.9,15C2335.3,722.1,2344.5,725.6,2359.5,729L2359.5,729z M2172.8,890.4c-9.2,0-17.3-2.3-23.1-5.8
		c-5.8-3.5-8.1-10.4-8.1-20.7v-8.1c-3.5,4.6-6.9,9.2-11.5,13.8c-4.6,4.6-9.2,8.1-16.1,11.5c-5.8,3.5-13.8,6.9-21.9,8.1
		c-8.1,2.3-18.4,3.5-28.8,3.5c-25.4,0-45-6.9-59.9-19.6c-15-13.8-21.9-31.1-21.9-54.2c0-12.7,2.3-24.2,6.9-32.3
		c4.6-9.2,10.4-16.1,17.3-23.1c8.1-5.8,16.1-10.4,26.5-13.8c10.4-3.5,20.8-5.8,32.3-8.1c12.7-2.3,24.2-3.5,36.9-5.8
		c12.7-1.2,25.4-2.3,40.3-3.5v-9.2c0-4.6-1.2-9.2-2.3-13.8c-1.2-4.6-3.5-9.2-6.9-12.7c-3.5-3.5-6.9-6.9-12.7-9.2
		c-5.8-2.3-12.7-3.5-19.6-3.5c-4.6,0-10.4,0-13.8,1.2c-4.6,1.2-8.1,1.2-12.7,3.5c-3.5,1.2-8.1,3.5-12.7,5.8c-4.6,2.3-9.2,5.8-15,9.2
		c-4.6,3.5-8.1,5.8-11.5,6.9c-3.5,2.3-8.1,3.5-13.8,3.5c-6.9,0-13.8-2.3-19.6-8.1c-5.8-5.8-8.1-12.7-8.1-20.7
		c0-5.8,2.3-11.5,6.9-17.3c4.6-5.8,11.5-11.5,20.7-17.3c9.2-5.8,20.8-9.2,33.4-12.7c13.8-3.5,28.8-5.8,47.3-5.8
		c36.9,0,63.4,6.9,79.5,21.9c16.1,13.8,24.2,36.9,24.2,68v145.2c0,9.2-2.3,16.1-6.9,19.6C2192.3,888.1,2184.3,890.4,2172.8,890.4
		L2172.8,890.4z M2141.6,771.7c-12.7,1.2-24.2,2.3-34.6,4.6c-11.5,1.2-19.6,3.5-24.2,4.6c-15,3.5-25.4,8.1-30,13.8
		s-6.9,11.5-6.9,18.4c0,8.1,2.3,15,8.1,19.6c4.6,4.6,13.8,6.9,26.5,6.9c19.6,0,35.7-4.6,46.1-13.8c10.4-9.2,16.1-20.8,16.1-35.7
		L2141.6,771.7L2141.6,771.7L2141.6,771.7z M1775.1,900.8l-46.1-66.9l23.1-33.4l42.7,62.2c18.4,26.5,45,31.1,64.6,17.3
		c19.6-13.8,23.1-39.2,4.6-66.9l-61.1-87.6L1827,691l79.5,115.3c21.9,31.1,12.7,83-24.2,108.4C1847.7,941.1,1797,933.1,1775.1,900.8
		L1775.1,900.8z M1696.7,832.8v-70.3l167.1-240.9c18.4-26.5,15-53-4.6-66.9c-19.6-13.8-45-9.2-64.5,17.3l-99.1,141.8v-68l77.2-111.8
		c21.9-31.1,72.6-40.3,109.5-13.8c35.7,26.5,46.1,77.2,24.2,108.3L1696.7,832.8z M1589.5,930.8c-40.3,0-72.6-28.8-79.5-63.4
		c-1.2-5.8-2.3-12.7-2.3-21.9c0-2.3,0-11.5,1.2-19.6l0-344.6c0-39.2,35.7-74.9,80.7-74.9s80.7,35.7,80.7,74.9v374.6
		C1670.2,895,1634.5,930.8,1589.5,930.8L1589.5,930.8z M1631,499.7c0-32.3-17.3-51.9-41.5-51.9c-23.1,0-42.7,18.4-42.7,51.9v334.3
		c0,32.3,19.6,55.3,42.7,55.3c23.1,0,41.5-20.7,41.5-55.3V499.7L1631,499.7z"/>
	<path class="st1" d="M34,410.6c5.3-136-4.2-265.6,120.3-355.9c93.3-67.7,208.3-53.4,317-53.4c416.8,0,833.5,0,1250.3,0l-9.7,37.4
		c-24.7,95.2-41.9,161.4-130.3,220c-84.2,55.9-180.3,44.8-276.3,44.8c-324.9,0-650.6-1.6-975.4-0.1c-87.2,0.4-155.3,3-232.4,48.7
		l-15.6,9.3l-25,21L34,410.6L34,410.6z"/>
	<path class="st2" d="M255.3,95.6h22.2v45.4c4.9-0.5,8.3-1.7,10-3.7c1.7-2,4.4-7.5,8.1-16.6c4.6-11.5,9.2-18.7,13.8-21.5
		c4.6-2.8,12-4.2,22.2-4.2c0.5,0,1.6,0,3.2-0.1v15.9l-3.1-0.1c-4.5,0-7.9,0.5-9.9,1.6s-3.8,2.8-5.1,5c-1.3,2.2-3.2,6.8-5.7,13.8
		c-1.3,3.7-2.8,6.8-4.4,9.2c-1.6,2.5-4.3,4.8-8.3,7c4.9,1.3,9,4.1,12.2,8.2c3.2,4.1,6.7,9.9,10.6,17.4l14.9,29.2h-26l-13.1-27.4
		c-0.2-0.4-0.6-1.1-1.3-2.3c-0.3-0.4-1.2-2.1-2.8-5c-2.8-5.3-5.1-8.5-6.9-9.8c-1.8-1.3-4.5-2-8.2-2v46.6h-22.2L255.3,95.6
		L255.3,95.6z"/>
	<path id="_x31_" class="st2" d="M347.6,124.9h19.6v11.3c2.5-3.9,6-7,10.3-9.4c4.3-2.4,9.2-3.6,14.4-3.6c9.2,0,17,3.5,23.5,10.6
		c6.4,7,9.6,16.8,9.6,29.4c0,12.9-3.2,22.9-9.7,30.1c-6.5,7.2-14.3,10.7-23.6,10.7c-4.4,0-8.4-0.8-11.9-2.6
		c-3.5-1.7-7.3-4.6-11.2-8.7v38.6h-21V124.9L347.6,124.9z M368.2,162.3c0,8.7,1.8,15.1,5.3,19.3c3.5,4.1,7.8,6.2,12.9,6.2
		c4.9,0,8.9-1.9,12.2-5.7c3.2-3.8,4.8-10.1,4.8-18.8c0-8.1-1.7-14.2-5-18.1c-3.3-3.9-7.4-5.9-12.4-5.9c-5.1,0-9.4,1.9-12.7,5.8
		C369.9,149,368.2,154.7,368.2,162.3L368.2,162.3z"/>
	<path id="_x32_" class="st2" d="M487.5,177.7l21,3.4c-2.7,7.5-6.9,13.1-12.7,17.1c-5.8,3.9-13.1,5.8-21.8,5.8
		c-13.8,0-24-4.4-30.6-13.2c-5.2-7-7.9-15.9-7.9-26.7c0-12.8,3.4-22.8,10.3-30.1c6.9-7.3,15.5-10.9,26.1-10.9
		c11.8,0,21.1,3.8,27.9,11.4c6.8,7.6,10.1,19.2,9.8,34.9h-52.5c0.2,6.1,1.8,10.8,5.1,14.1c3.2,3.4,7.2,5.1,12,5.1
		c3.3,0,6-0.9,8.3-2.6C484.7,184.3,486.3,181.5,487.5,177.7L487.5,177.7z M488.7,157c-0.2-5.9-1.7-10.4-4.7-13.5
		c-3-3.1-6.6-4.6-10.9-4.6c-4.6,0-8.3,1.6-11.3,4.9c-3,3.2-4.4,7.7-4.4,13.3H488.7z"/>
	<path id="_x33_" class="st2" d="M592.3,202.1h-60.1v20.4h-17v-37h8.6c3.6-3.9,6.5-9.9,8.8-18.2c2.3-8.2,3.7-22.4,4.2-42.3h64.1
		v60.5h8.6v37h-17.1V202.1z M580.1,185.4l0.1-43.7h-25.5c-0.8,21.3-4.3,35.9-10.4,43.7H580.1z"/>
	<polygon id="_x34_" class="st2" points="623.2,124.9 643.4,124.9 643.4,173.4 675.6,124.9 696.3,124.9 696.3,202.1 676.1,202.1 
		676.1,152.8 643.4,202.1 623.2,202.1 	"/>
	<polygon id="_x35_" class="st2" points="708.3,124.9 780,124.9 780,141.4 754.7,141.4 754.7,202.1 733.7,202.1 733.7,141.4 
		708.3,141.4 	"/>
	<polygon id="_x36_" class="st2" points="834.3,124.9 904.8,124.9 904.8,202.1 883.8,202.1 883.8,141.4 855.2,141.4 855.2,202.1 
		834.3,202.1 	"/>
	<path id="_x37_" class="st2" d="M927.6,114.4V95.6h21v18.9H927.6z M927.6,202.1v-77.2h21v77.2H927.6z"/>
	<path id="_x38_" class="st2" d="M1035.7,202.1h-60.1v20.4h-17v-37h8.6c3.6-3.9,6.5-9.9,8.8-18.2c2.3-8.2,3.7-22.4,4.2-42.3h64.1
		v60.5h8.6v37h-17.1L1035.7,202.1L1035.7,202.1z M1023.5,185.4l0.1-43.7h-25.5c-0.8,21.3-4.3,35.9-10.4,43.7H1023.5z"/>
	<path id="_x39_" class="st2" d="M1140.6,95c10.6,0,18.9,3.7,24.9,11.1c7.1,8.7,10.7,23.2,10.7,43.5c0,20.2-3.6,34.7-10.8,43.6
		c-5.9,7.3-14.2,10.9-24.8,10.9c-10.7,0-19.2-4-25.8-12c-6.5-8-9.8-22.2-9.8-42.7c0-20.1,3.6-34.6,10.8-43.4
		C1121.8,98.6,1130,95,1140.6,95L1140.6,95z M1140.6,111.9c-2.5,0-4.7,0.8-6.7,2.4c-2,1.6-3.5,4.4-4.6,8.5
		c-1.4,5.3-2.1,14.2-2.1,26.7c0,12.5,0.6,21.1,1.9,25.8c1.3,4.7,2.9,7.8,4.8,9.4c1.9,1.6,4.2,2.3,6.7,2.3c2.5,0,4.7-0.8,6.7-2.4
		c1.9-1.6,3.5-4.4,4.5-8.5c1.4-5.2,2.1-14.1,2.1-26.7c0-12.5-0.6-21.1-1.9-25.8c-1.3-4.7-2.9-7.8-4.8-9.4
		C1145.4,112.7,1143.2,111.9,1140.6,111.9L1140.6,111.9z"/>
	<path id="_x31_0" class="st2" d="M1194.1,181.7h21v14.6c0,5.9-0.5,10.6-1.6,14c-1,3.4-3,6.5-5.9,9.2c-2.9,2.7-6.6,4.8-11.1,6.4
		l-4.1-8.5c4.2-1.4,7.2-3.2,9-5.6c1.8-2.4,2.7-5.6,2.8-9.7h-10.1V181.7L1194.1,181.7z"/>
	<path id="_x31_1" class="st2" d="M1268.2,95c10.6,0,18.9,3.7,24.9,11.1c7.1,8.7,10.7,23.2,10.7,43.5c0,20.2-3.6,34.7-10.8,43.6
		c-5.9,7.3-14.2,10.9-24.8,10.9c-10.7,0-19.2-4-25.8-12c-6.5-8-9.8-22.2-9.8-42.7c0-20.1,3.6-34.6,10.8-43.4
		C1249.4,98.6,1257.6,95,1268.2,95L1268.2,95z M1268.2,111.9c-2.5,0-4.7,0.8-6.7,2.4c-2,1.6-3.5,4.4-4.6,8.5
		c-1.4,5.3-2.1,14.2-2.1,26.7c0,12.5,0.6,21.1,1.9,25.8c1.3,4.7,2.9,7.8,4.8,9.4c1.9,1.6,4.2,2.3,6.7,2.3c2.5,0,4.7-0.8,6.7-2.4
		c1.9-1.6,3.5-4.4,4.5-8.5c1.4-5.2,2.1-14.1,2.1-26.7c0-12.5-0.6-21.1-1.9-25.8c-1.3-4.7-2.9-7.8-4.8-9.4
		C1272.9,112.7,1270.7,111.9,1268.2,111.9L1268.2,111.9z"/>
	<path id="_x31_2" class="st2" d="M1371.4,202.1h-21V125c-7.6,7-16.7,12.2-27.1,15.5v-18.6c5.5-1.7,11.4-5,17.8-9.9
		c6.4-4.9,10.8-10.5,13.2-17h17V202.1z"/>
	<path id="_x31_3" class="st2" d="M1403,121.7c0-9.5,2.2-16.6,6.5-21.1c4.3-4.6,10.1-6.9,17.5-6.9c7.6,0,13.6,2.3,17.9,6.8
		c4.3,4.6,6.4,11.6,6.4,21.2c0,9.5-2.1,16.6-6.4,21.1c-4.3,4.6-10.2,6.9-17.5,6.9c-7.6,0-13.6-2.3-17.9-6.8
		C1405.1,138.3,1403,131.2,1403,121.7L1403,121.7z M1419.3,121.7c0,6.9,0.8,11.5,2.5,13.8c1.3,1.7,3,2.6,5.2,2.6
		c2.2,0,4-0.9,5.3-2.6c1.6-2.4,2.4-7,2.4-13.8c0-6.9-0.8-11.5-2.4-13.8c-1.3-1.8-3-2.7-5.3-2.7c-2.2,0-3.9,0.9-5.2,2.6
		C1420.1,110.2,1419.3,114.8,1419.3,121.7L1419.3,121.7z M1442.9,206.2h-15.5l58.3-112.6h15.2L1442.9,206.2z M1476.8,178.1
		c0-9.5,2.2-16.6,6.5-21.2c4.3-4.6,10.2-6.9,17.7-6.9c7.5,0,13.4,2.3,17.7,6.9c4.3,4.6,6.4,11.7,6.4,21.2c0,9.6-2.1,16.7-6.4,21.3
		c-4.3,4.6-10.2,6.9-17.5,6.9c-7.6,0-13.6-2.3-17.9-6.9C1479,194.8,1476.8,187.7,1476.8,178.1z M1493.2,178.2
		c0,6.9,0.8,11.6,2.5,13.9c1.3,1.8,3,2.7,5.2,2.7c2.2,0,4-0.9,5.2-2.6c1.7-2.4,2.5-7,2.5-14c0-6.9-0.8-11.6-2.4-14
		c-1.3-1.8-3-2.6-5.3-2.6c-2.2,0-4,0.9-5.2,2.6C1494,166.6,1493.2,171.2,1493.2,178.2L1493.2,178.2z"/>
</g>
</svg>
