<?xml version="1.0" encoding="utf-8"?>
<!-- Generator: Adobe Illustrator 21.0.0, SVG Export Plug-In . SVG Version: 6.00 Build 0)  -->
<svg version="1.1" id="Слой_1" xmlns="http://www.w3.org/2000/svg" xmlns:xlink="http://www.w3.org/1999/xlink" x="0px" y="0px"
	 viewBox="0 0 80.4 36" style="enable-background:new 0 0 80.4 36;" xml:space="preserve">
<style type="text/css">
	.st0{fill:#29ABE2;}
	.st1{fill:#2B170C;}
	.st2{fill:url(#SVGID_1_);}
	.st3{fill:#EAB17A;}
	.st4{fill:#503325;}
	.st5{fill:url(#SVGID_2_);}
	.st6{opacity:0.1;enable-background:new    ;}
	.st7{fill:#FFFFFF;}
	.st8{fill:#234044;}
	.st9{fill:#4B911F;}
	.st10{fill:#A3E170;}
	.st11{fill:#9DE371;}
	.st12{fill:#F2CA8D;}
	.st13{fill:#3B2317;}
	.st14{opacity:0.7;fill:url(#SVGID_3_);enable-background:new    ;}
	.st15{opacity:0.65;fill:#F2BB9C;enable-background:new    ;}
	.st16{opacity:0.59;fill:#F2BB7B;enable-background:new    ;}
	.st17{fill:#EDA469;}
	.st18{fill:#FCEBD3;}
	.st19{fill:url(#SVGID_4_);}
	.st20{fill:#FCC8C0;}
	.st21{opacity:0.7;fill:url(#SVGID_5_);enable-background:new    ;}
	.st22{fill:#F2BB9C;}
	.st23{fill:#56380F;}
	.st24{fill:#BC9A74;}
	.st25{fill:#F1F7F3;}
	.st26{fill:url(#SVGID_6_);}
	.st27{fill:#030403;}
	.st28{fill:#050300;}
	.st29{fill:#050304;}
	.st30{fill:url(#SVGID_7_);}
	.st31{fill:#050605;}
	.st32{fill:#FCFDFD;}
	.st33{opacity:0.73;fill:url(#SVGID_8_);enable-background:new    ;}
	.st34{fill:#DA775D;}
	.st35{fill:#F5DBC6;}
	.st36{fill:#FFD4C9;}
	.st37{fill:#F6C69B;}
	.st38{fill:#E39F8C;}
	.st39{fill:#F78368;}
	.st40{fill:#FEFEFE;}
	.st41{fill:#050203;}
	.st42{fill:url(#SVGID_9_);}
	.st43{fill:url(#SVGID_10_);}
	.st44{fill:url(#SVGID_11_);}
	.st45{fill:#281D16;}
	.st46{fill:#B47952;}
	.st47{fill:#8C6239;}
	.st48{fill:url(#SVGID_12_);}
	.st49{fill:url(#SVGID_13_);}
	.st50{fill:#603813;}
</style>
<g>
	<circle class="st0" cx="20.3" cy="17.7" r="15.7"/>
	<path class="st1" d="M15.3,21.5c0.1,2.5-5.9,1.6-5,1.1c3.6-2.2,0.8-3.1,0.8-5.2c0.1-2.2,1,0.1,2.1,0.1S15.3,19.3,15.3,21.5
		L15.3,21.5z"/>
	
		<linearGradient id="SVGID_1_" gradientUnits="userSpaceOnUse" x1="11.5403" y1="-56.9134" x2="22.6137" y2="-49.445" gradientTransform="matrix(0.9994 0 0 0.9994 0.3717 79.947)">
		<stop  offset="0" style="stop-color:#6C4A1D"/>
		<stop  offset="1" style="stop-color:#291B12"/>
	</linearGradient>
	<path class="st2" d="M25.7,25c0,2.9-4.7,8.4-7.9,8.4s-8.1-2.7-8.1-5.6s2.6-5.2,5.8-5.2C18.7,22.6,25.7,22.2,25.7,25L25.7,25z"/>
	<path class="st3" d="M29.3,30.8c-5.1,3.3-10,2.6-13.9,2.6c3.7-0.4,1.7-7.6,2.1-10.1c2.9-0.3,0,0,3.9-0.4
		C21.5,24.5,21.4,32,29.3,30.8z"/>
	<path class="st4" d="M9.4,24.7c0,1.4,3.1,0.4,4.2-1.2c2.3-3.2,0.5-3.9,0.5-5.3s0,1.5-1.4,3.7C11.2,24.1,9.4,23.2,9.4,24.7z"/>
	
		<linearGradient id="SVGID_2_" gradientUnits="userSpaceOnUse" x1="15.4415" y1="-45.4999" x2="15.4415" y2="-59.4124" gradientTransform="matrix(0.9994 0 0 0.9994 0.3717 79.947)">
		<stop  offset="0" style="stop-color:#7C4C28"/>
		<stop  offset="0.12" style="stop-color:#85542E"/>
		<stop  offset="0.32" style="stop-color:#9F693D"/>
		<stop  offset="0.5" style="stop-color:#BB814F"/>
		<stop  offset="0.99" style="stop-color:#7C4C28"/>
	</linearGradient>
	<path class="st5" d="M17.7,25c0.4,3.7,0.7,9.9-1.8,9.4c-1.3-0.3,1.5-2.2,1-3.7c-1-3.2-3-3.6-3.6-7.7c-0.5-3.7,1.6-2.1,4-2.1
		S17.3,21.3,17.7,25z"/>
	<path class="st6" d="M20.1,0.1c-9.9,0-18,8-18,18c0,0.4,0,0.7,0,1.1L0,20.8l1.2,0.8L0,23.4c0,0,2.7,1.4,3.5,1.7
		C6.4,31.7,12.9,36,20.1,36c9.9,0,18-8,18-18S30,0.1,20.1,0.1L20.1,0.1z M20.1,33.8c-8.7,0-15.7-7-15.7-15.7s7-15.7,15.7-15.7
		s15.7,7,15.7,15.7S28.8,33.8,20.1,33.8L20.1,33.8z"/>
	<path class="st7" d="M20.3,0C10.6,0,2.7,7.9,2.7,17.6c0,0.3,0,0.7,0,1l-2.1,1.6L1.8,21l-1.2,1.8c0,0,2.6,1.4,3.4,1.7
		c2.8,6.5,9.2,10.7,16.2,10.7c9.7,0,17.6-7.9,17.6-17.6S30.1,0,20.3,0L20.3,0z M20.3,33.1c-8.5,0-15.4-6.9-15.4-15.4
		S11.8,2.2,20.3,2.2s15.4,6.9,15.4,15.4S28.8,33.1,20.3,33.1z"/>
	<path class="st6" d="M80.1,23.6l-28-10.3c-1.6,0.8-3.2,3-3.5,3.6c0.1-0.3,0.1-0.6,0.2-0.9c0.3-0.7,0.6-1.3,0.9-2
		c0.1-0.2,0.3-0.4,0.5-0.6c1-0.9,2.8-3,2.9-3.5s0.2-1.2,0-1.7C53,7.7,52.3,6.4,52,6.3c-1.7,0.4-3,0.3-3.4,0.5s-1.4,1.6-1.4,1.6
		S42,4.9,37.8,9.1c-4,6.5-4.8,21.4-4.8,21.4s-0.3,0.3-0.7,0.6c0.4,0.3,0.8,0.6,1.2,0.8c0.4,0.3,0.9,0.6,1.4,0.7
		c0.7,0.2,1.4-0.1,1.8-0.6c0.2-0.2,0.3-0.6,0.4-0.9c0-2.8,0-5.6,0.4-8.4c0,0,0.1-0.6,0.1-0.9c0.3,0,1.3,0.1,1.5,0.1
		c0,0.3,0.1,0.8,0.1,0.8c0.1,0.9,0.4,1.7,0.6,2.5c0.1,0.5,1,2,1.3,2.1c0.2,0.1,0.4,0.1,0.6,0.2c0,0.2,0,0.3-0.1,0.5
		c-0.1,1.2,0,2.4,0.6,3.5c0.1,0.2,1.3,1.7,1.9,2.1c1.2,0.7,2.6,0.9,4,0.8c1.8-0.2,3.5-1.2,4.7-2.6c0.2-0.3,0.4-0.5,0.6-0.7
		c0.3,0.2,0.6,0.5,1,0.6c0.8,0.3,1.6,0.1,2.3-0.3c0.3-0.2,0.7-0.4,1-0.7c0.1-0.1,0.3,0,0.4,0.1c0.8,0.5,1.8,0.6,2.7,0.4
		c0.8-0.1,1.5-0.5,2.1-1c0.1-0.2,0.3,0,0.4,0.1c0.8,0.5,1.8,0.6,2.6,0.2c0.4-0.1,0.8-0.4,1.1-0.7c0.5,0.3,1.1,0.6,1.7,0.5
		c0.7,0,1.4-0.4,1.9-0.8c0.6,0.5,1.5,0.7,2.3,0.4c0.5-0.2,1-0.5,1.4-0.8c0.3,0.1,0.5,0.3,0.8,0.4c0.9,0.3,1.9,0.1,2.7-0.4
		c0.9-0.5,1.6-1.3,2.2-2.1c0.1-0.2,0.2-0.3,0.3-0.5C80.6,25.7,80,24.5,80.1,23.6c-0.2,0.1-0.4,0.1-0.5,0c0-0.1,0-0.2,0-0.2
		c0-0.7,0.2-2.5,0.3-2.7c-0.2-0.1-0.8-0.5-0.8-0.5c0.1-0.5,0.2-1,0.2-1.5c0-0.2,0.1-1.2,0.2-1.4c0,0-2.1,0.4-3.7,0.7
		c-0.6-0.1-0.9-0.1-1.4-0.3c-0.1,0.1-0.8,0.3-1.3,0.3c-0.7-0.1-1.1-0.3-1.2-0.3c0-0.6-0.1-2.3,0-2.6c0.1,0-4.8,1.5-4.9,1.5
		c0-0.6,0.1-0.8-0.2-1.6c-0.1-0.2-1.4-2.4-4.4-1.2c-2.7-1.4-5,0.7-5.4,1.4c0-1.4-3.1-2.7-4.9-1.9L80.1,23.6z"/>
	<path class="st7" d="M79.7,23.3L52,13.2c-1.6,0.8-3.1,2.9-3.4,3.5c0.1-0.3,0.1-0.6,0.2-0.9c0.3-0.7,0.6-1.3,0.9-2
		c0.1-0.2,0.3-0.4,0.5-0.6c1-0.8,2.8-2.9,2.9-3.4s0.2-1.2,0-1.7C53,7.7,52.3,6.3,52,6.2c-1.7,0.4-3,0.3-3.4,0.5s-1.3,1.6-1.4,1.7
		c0.3-1.1-6.1-4.2-10.2-0.1c-6.6,8.4-5.9,19.2-5.9,20.2c0.1,0.7,0.2,0.7,0.4,1.1c0.5,0.8,1.4,1.4,2.2,1.9c0.4,0.3,0.9,0.6,1.4,0.7
		c0.7,0.2,1.3-0.1,1.8-0.6c0.2-0.2,0.3-0.6,0.4-0.9c0-2.8,0-5.5,0.4-8.2c0,0,0.1-0.6,0.1-0.9c0.3,0,1.3,0.1,1.5,0.1
		c0,0.3,0.1,0.8,0.1,0.8c0.1,0.9,0.3,1.7,0.6,2.5c0.1,0.5,0.9,2,1.2,2.1c0.2,0.1,0.4,0.1,0.6,0.2c0,0.2,0,0.3-0.1,0.5
		c-0.1,1.2,0,2.4,0.6,3.4c0.1,0.2,1.3,1.7,1.9,2.1c1.2,0.7,2.6,0.9,3.9,0.7c1.8-0.2,3.5-1.2,4.7-2.6c0.2-0.3,0.4-0.5,0.6-0.7
		c0.3,0.2,0.6,0.5,1,0.6c0.8,0.3,1.6,0.1,2.3-0.3c0.3-0.2,0.6-0.4,0.9-0.7c0.1-0.1,0.3,0,0.4,0.1c0.8,0.5,1.8,0.6,2.7,0.4
		c0.8-0.1,1.5-0.5,2.1-1c0.1-0.2,0.3,0,0.4,0.1c0.8,0.5,1.8,0.6,2.6,0.2c0.4-0.1,0.7-0.4,1.1-0.7c0.5,0.3,1.1,0.5,1.7,0.5
		c0.7,0,1.3-0.4,1.9-0.8c0.6,0.5,1.5,0.7,2.2,0.4c0.5-0.2,0.9-0.5,1.4-0.8c0.3,0.1,0.5,0.3,0.8,0.4c0.9,0.3,1.9,0.1,2.7-0.4
		c0.9-0.5,1.5-1.3,2.2-2.1c0.1-0.2,0.2-0.3,0.3-0.5C80.2,25.4,79.6,24.2,79.7,23.3c-0.2,0.1-0.3,0.1-0.5,0c0-0.1,0-0.2,0-0.2
		c0-0.7,0.2-2.4,0.2-2.7c-0.2-0.1-0.8-0.5-0.8-0.5c0.1-0.5,0.2-1,0.2-1.5c0-0.2,0.1-1.2,0.2-1.4c0,0-2.1,0.4-3.7,0.7
		c-0.6-0.1-0.9-0.1-1.3-0.3c-0.1,0.1-0.8,0.3-1.3,0.3c-0.6-0.1-1.1-0.3-1.2-0.3c0-0.6-0.1-2.3,0-2.6c0.1,0-4.8,1.5-4.9,1.5
		c0-0.6,0.1-0.8-0.2-1.6c-0.1-0.2-1.4-2.4-4.3-1.2c-2.6-1.4-4.9,0.7-5.3,1.3c0-1.4-3-2.7-4.8-1.8L79.7,23.3z"/>
	<g>
		<path class="st8" d="M49.3,8.3c0.6-0.2,1.2-0.3,1.8-0.5c0.1-0.1,0.3,0,0.4,0.1c0.2,0.4,0.3,0.9,0.1,1.4c-0.5,1.2-1.5,2-2.4,2.8
			c-0.3,0.3-0.7,0.5-0.8,0.9c-0.4,0.9-0.8,1.7-1.1,2.6c-0.3,1-0.5,2-0.5,3.1c0,0.4,0.1,1,0.5,1.2c0.6,0.2,1.2-0.1,1.7-0.5
			c0.3-0.2,0.6-0.5,0.9-0.7c0.1-1.4,0.9-2.7,2.1-3.5c0.6-0.5,1.5-0.7,2.3-0.6c0.5,0.1,0.9,0.3,1.1,0.8c0.3,0.6,0.1,1.3-0.3,1.8
			c-0.8,0.9-2,1.3-3.1,1.6l-0.1,0.1c0.1,0.4,0.3,0.9,0.7,1.2c0.7,0.5,1.6,0.4,2.2-0.1c0.5-0.4,1-0.9,1.5-1.4
			c0.8-1.1,1.5-2.4,2.5-3.3c0.5-0.5,1.2-0.9,1.9-0.8c0.4,0,0.8,0.2,1.1,0.5c0.2,0.2,0.2,0.5,0.4,0.8h0.2c0.2-0.4,0.5-0.8,0.9-1.1
			c0.5-0.3,1.2-0.3,1.7,0c0.2,0.2,0.5,0.6,0.4,0.9c-0.2,0.3-0.4,0.5-0.7,0.7c-0.2,0.1-0.3,0.3-0.5,0.3c0-0.4-0.1-0.8-0.3-1
			c-0.2-0.2-0.6-0.1-0.8,0.1c-0.4,0.5-0.6,1.1-0.7,1.7C62.2,18.2,62,19,62,19.8c0,0.5,0.3,1,0.8,1c0.3,0,0.6-0.2,0.9-0.3
			c0.8-0.4,1.5-0.9,2.2-1.4c0.3-0.2,0.5-0.5,0.8-0.6c0,0.3-0.1,0.5-0.1,0.8c-0.9,0.8-1.9,1.5-3,2c-0.6,0.3-1.3,0.6-1.9,0.4
			c-0.6-0.1-1.1-0.5-1.3-1.1c-0.1-0.1-0.1-0.4-0.3-0.3c-0.3,0.5-0.6,0.9-1.1,1.2c-0.6,0.3-1.4,0.3-2-0.1c-0.5-0.2-0.7-0.4-0.7-0.6
			s0.2-0.4,0.3-0.5c0.2-0.2,0.5-0.5,0.8-0.6c0.2,0.3,0.3,0.8,0.7,1c0.3,0.2,0.6,0.1,0.9-0.1s0.4-0.6,0.6-0.9
			c0.4-0.9,0.6-1.9,0.7-2.9c0-0.4,0.1-0.8-0.2-1.1c-0.3-0.3-0.8-0.2-1,0.1c-1.2,1-1.7,2.6-2.8,3.7c-0.7,0.7-1.5,1.5-2.4,1.9
			c-0.7,0.3-1.5,0.4-2.3,0.3c-0.8-0.2-1.4-0.8-1.6-1.5c0-0.1-0.1-0.3-0.2-0.4h-0.1c-0.7,0.6-1.4,1.2-2.3,1.5
			c-0.6,0.2-1.4,0.2-1.9-0.2c-0.5-0.4-0.8-0.9-0.8-1.5c-0.1-0.7,0-1.3,0.1-2c-0.1,0-0.2-0.1-0.3-0.1c-0.5,0.5-1.1,0.9-1.6,1.3
			c-0.1,0.1-0.1,0.2-0.1,0.3c0,0.8,0.1,1.5,0.2,2.3c0.1,0.7,0.3,1.5,0.8,2c0.1,0.1,0.2,0.2,0.1,0.4c-0.6,0.6-1,1.3-1.3,2.1
			c-0.1,0-0.3,0-0.4-0.1c-0.7-1.7-1.1-3.5-1.1-5.4c0-0.2,0-0.3-0.1-0.4c-0.4,0.1-0.7,0.2-1.1,0.3c-0.9,0.1-1.8,0-2.6-0.3
			c-0.2-0.1-0.4,0.1-0.4,0.3c-0.3,1.3-0.5,2.6-0.6,4c-0.2,2.1-0.2,4.2-0.2,6.3c0,0.1,0,0.2,0,0.4c-0.3,0-0.6-0.2-0.9-0.3
			c-0.7-0.4-1.3-0.9-1.8-1.5c-0.1-0.2-0.2-0.4-0.2-0.6c0.2-5.1,1.1-10.4,3.5-15c0.6-1.1,1.3-2.3,2.2-3.2c0.9-0.8,1.9-1.5,3.1-1.8
			c0.9-0.2,1.9-0.1,2.8,0.1c0.5,0.1,1,0.3,1.4,0.5c0.1,0.2,0,0.4-0.1,0.6c-0.2,0.1-0.4,0.1-0.6,0.3c-0.3,0.2-0.5,0.6-0.7,0.9
			c-1,2.1-1.6,4.3-1.9,6.6c1-0.4,1.8-1.2,2.5-2c0.3-0.4,0.5-1,0.7-1.5c0.8-1.8,1.7-3.5,2.8-5.1C48.8,8.6,49,8.3,49.3,8.3L49.3,8.3z
			 M50.5,8.9c-0.3,0.5-0.6,0.9-0.9,1.4c-0.1,0.2-0.2,0.4-0.3,0.5c0.5-0.4,0.9-0.8,1.3-1.3C50.8,9.2,51,9,51.1,8.6
			C50.9,8.7,50.7,8.7,50.5,8.9z M41.7,10c-1.1,0.6-1.9,1.6-2.6,2.6c-0.8,1.4-1.3,2.9-1.7,4.4c0,0.2-0.1,0.4-0.1,0.6
			c0.3,0.3,0.8,0.6,1.2,0.8c0.7,0.2,1.4,0.2,2.1,0c0.1,0,0.2-0.1,0.2-0.2c0.3-2.9,1.1-5.7,2.5-8.3l0,0c0-0.1-0.1-0.3-0.2-0.3
			C42.7,9.7,42.2,9.8,41.7,10L41.7,10z M52.5,15.5c-0.6,0.7-0.8,1.6-0.8,2.5l0.1,0.1c0.4,0,0.8-0.3,1.1-0.5c0.7-0.4,1-1.2,0.8-2
			c-0.1-0.2-0.1-0.3-0.3-0.4C53.1,15,52.7,15.2,52.5,15.5L52.5,15.5z"/>
		<path class="st8" d="M68.2,17.4c0.6-0.3,1.2-0.8,1.8-1.2c-0.2,3.2-0.9,6.4-1.1,9.6c0,0.4-0.1,0.9,0.3,1.2c0.2,0,0.4,0,0.5-0.1
			c0.4-0.3,0.8-0.8,1.1-1.2c0.1-1.1,0.3-2.3,0.6-3.4c0.6-0.2,1.2-0.4,1.8-0.6c0,0.4-0.1,0.7-0.2,1.1c-0.2,0.9-0.4,1.8-0.5,2.8
			c0,0.3-0.1,0.8,0.3,1c0.5,0,0.8-0.4,1.1-0.7c0.1-0.2,0.4-0.4,0.4-0.7c0-0.7,0.2-1.4,0.3-2.1c0,0,0,0,0-0.1c-0.2,0-0.3,0-0.5,0
			c0-0.4,0.1-0.8,0.1-1.1c0.2,0,0.5-0.1,0.7-0.1c0.1-0.9,0.3-1.7,0.4-2.6c0.6-0.2,1.2-0.4,1.9-0.6c-0.2,1-0.3,1.9-0.5,2.9
			c0.3,0,0.7-0.1,1-0.1c0,0.4-0.1,0.8-0.1,1.1c-0.4,0.1-0.7,0.1-1.1,0.2c-0.1,0.9-0.4,1.8-0.4,2.7c0,0.3,0.1,0.8,0.4,0.9
			s0.6,0,0.9-0.2c0.4-0.3,0.7-0.8,1.1-1.1c0,0.3,0.1,0.5,0.1,0.8c-0.5,0.6-1,1.1-1.6,1.6c-0.5,0.3-1,0.6-1.6,0.4s-0.9-0.9-1-1.4
			c-0.6,0.6-1.1,1.3-1.8,1.8c-0.3,0.2-0.7,0.2-1,0c-0.4-0.3-0.6-0.9-0.7-1.4c-0.6,0.6-1.1,1.4-1.9,1.8c-0.4,0.2-0.8,0.1-1.1-0.1
			c-0.4-0.4-0.5-1-0.6-1.6c-0.3,0.8-0.9,1.5-1.7,2c-0.4,0.3-1,0.3-1.4,0c-0.3-0.2-0.5-0.4-0.7-0.7c-0.1-0.2-0.2-0.4-0.3-0.6
			c-0.3,0.5-0.8,0.9-1.2,1.2c-0.7,0.6-1.5,0.9-2.4,0.8c-0.8-0.1-1.5-0.7-1.7-1.5c-0.5,0.6-1,1.2-1.6,1.6c-0.3,0.3-0.8,0.5-1.2,0.4
			c-0.5-0.1-0.9-0.6-0.9-1.2c-0.1-0.9,0.3-1.7,0.6-2.5l-0.1-0.1c-0.3,0.1-0.6,0.3-0.9,0.3c-0.3,1.7-1.4,3.1-2.5,4.4
			c-0.9,0.9-2,1.5-3.3,1.7c-1.2,0.2-2.6,0-3.5-0.9c-0.7-0.6-1.2-1.5-1.3-2.4c-0.1-1.4,0.2-2.8,1-4.1c0.7-1.2,1.7-2.1,2.9-2.7
			c0.7-0.3,1.4-0.4,2.2-0.3c0.8,0.2,1.6,0.8,1.7,1.7c0.2,1.3-0.4,2.8-1.6,3.5c-0.5,0.3-1.1,0.3-1.6,0.2c-0.4-0.1-0.7-0.5-0.7-0.9
			c0-0.3,0.1-0.5,0.3-0.8c0.2,0.1,0.2,0.3,0.5,0.4c0.5,0.2,1-0.3,1.3-0.7c0.4-0.6,0.6-1.3,0.4-2c-0.1-0.4-0.4-0.8-0.9-0.8
			s-0.9,0.2-1.2,0.5c-1.1,1-1.7,2.4-2,3.9c-0.2,1-0.1,2,0.3,2.9c0.4,0.7,1,1.3,1.8,1.5c0.9,0.2,1.8,0.1,2.5-0.4
			c0.9-0.6,1.6-1.6,2.2-2.5c0.4-0.7,0.7-1.3,0.9-2.1c-0.3-0.1-0.6-0.3-0.7-0.6c-0.1-0.5,0.1-1.1,0.4-1.6c0.2-0.3,0.6-0.5,1-0.5
			c0.2,0,0.4,0.1,0.4,0.3c0.2,0.5-0.1,1-0.1,1.5c0.5-0.1,0.9-0.5,1.2-0.9c0.3-0.3,0.4-0.7,0.6-1.1c0.2,0,0.4-0.1,0.6-0.1
			c0.1,0.1,0,0.2,0,0.3c-0.2,0.8-0.4,1.5-0.6,2.3c-0.1,0.5-0.3,1-0.3,1.6c0,0.3,0.1,0.5,0.3,0.7c0.2,0,0.4,0.1,0.6,0
			c0.5-0.3,0.7-0.8,1.1-1.1c-0.1-1.1,0.3-2.1,1-2.9c0.5-0.7,1.3-1.2,2.1-1.2c0.4,0,0.9,0.1,1.2,0.4c0.4,0.4,0.4,1,0.2,1.4
			c-0.2,0.4-0.5,0.7-0.8,0.9c-0.6,0.4-1.3,0.8-2,1.1c0.1,0.5,0.4,0.9,0.8,1.1c0.6,0.3,1.4,0.1,1.9-0.4c0.4-0.3,0.7-0.7,1-1.1
			c0.1-0.5,0.2-1.1,0.4-1.6c0.4-0.9,1.1-1.8,2-2.3c0.6-0.3,1.4-0.4,1.9,0.1c0.1-0.3,0.1-0.7,0.2-1C67.8,20.3,68,18.9,68.2,17.4
			L68.2,17.4z M65.6,23.8c-0.3,0.6-0.5,1.3-0.6,2c0,0.5-0.1,1.1,0.2,1.5c0.3,0.3,0.8,0.2,1-0.1c0.4-0.4,0.6-1,0.8-1.5
			c0.2-0.7,0.3-1.4,0.2-2.1c-0.1-0.3-0.4-0.7-0.7-0.6C66.1,23.1,65.8,23.5,65.6,23.8L65.6,23.8z M60,23.9c-0.6,0.7-0.7,1.6-0.6,2.5
			c0.6-0.2,1.3-0.7,1.6-1.3l0,0c0.1-0.4,0.2-0.9-0.1-1.3C60.6,23.6,60.2,23.7,60,23.9L60,23.9z"/>
		<path class="st8" d="M72.9,19.3c0.3,0,0.5-0.2,0.7-0.3c0,0.5,0,1.2-0.4,1.6c-0.5,0.5-1.3,0.4-1.9,0.1c0.2-0.5,0.4-1,0.5-1.5
			C72.2,19.2,72.5,19.4,72.9,19.3L72.9,19.3z"/>
	</g>
	<path class="st9" d="M11.3,24.6c0-0.5-0.2-2.2-0.9-4.1C10,19.7,9.5,19,8.8,18.4c-0.2-0.2-0.4-0.3-0.7-0.5c-0.2-0.1-0.4-0.3-0.6-0.4
		c-0.2-0.2-0.4-0.4-0.7-0.6c-0.1,0-0.2,0-0.3,0c-0.3,0.2-3.8,2.7-4.6,3.3c1,0.6,1.9,1.3,2.7,2.1C5.3,23,6,23.9,6.5,24.8
		c0.1,0.1,0.1,0.2,0.1,0.3c-0.1-0.1-0.3-0.3-0.4-0.4c-0.8-0.9-1.7-1.7-2.7-2.4c-0.4-0.3-0.8-0.6-1.2-0.8c-0.2,0.4-0.8,1.2-0.8,1.3
		c1.4,0.7,2.8,1.5,4,2.5c0.5,0.4,2,2,2.4,2.5c0,0,0.2-1,0.9-1.5c0,0.4,0.2,1.6,0.3,2c0-0.3,0.2-1.3,0.2-1.8c0-0.4,0-0.5,0-0.7
		C10.5,25.1,11.3,24.6,11.3,24.6z"/>
	<path class="st10" d="M8,22.7l-0.1-0.1l-0.1-0.1l-0.1,0.1l0.2,0.2c-0.1,0.1-0.1,0.2,0,0.3c0.1,0,0.1,0,0.2,0
		c0.3-0.4,0.4-0.6,0.4-0.8c0,0,0-0.2,0.1-0.3h0.1c0.1,0,0.1,0.1,0.3,0.2s0.2,0.3,0.3,0.3c0,0,0,0,0.1-0.1s0-0.1,0-0.1s0,0-0.1-0.1
		s-0.1-0.1-0.1-0.1s0,0,0.1-0.1v-0.1v-0.1H9.2H9.1c0,0,0,0-0.1,0.1c-0.1,0-0.1-0.1-0.2-0.1c-0.1,0-0.1,0-0.2,0
		c-0.1,0-0.3,0.1-0.3,0.5C8.2,22.6,8.1,22.8,8,22.7L8,22.7z"/>
	<path class="st11" d="M8,25.8c-0.9-1.6-2.1-3.2-3.5-4.4c0.3-0.3,0.6-0.7,0.6-1.2c0-0.3-0.1-0.6-0.2-0.9c0.4-0.4,0.8-0.8,1.2-1.2
		c0.1,0.2,0.3,0.3,0.5,0.4c0.5,0.2,0.9,0,1.4-0.1c0.2,0.1,0.3,0.2,0.4,0.3c1.6,1.5,2.4,3.6,2.6,5.8c0,0.3-0.5,1.5-0.6,1.5
		c-0.1,0.1-1,0.9-1.1,1c-0.2-1.5-0.6-2.4-0.2-3.3c0.4-0.2,0.7-0.4,0.8-0.9c0.3-0.8-0.1-1.6-0.9-1.9c-0.8-0.3-1.6,0.1-1.9,0.9
		c-0.1,0.3-0.1,0.6,0,0.9c0.2,0.5,0.5,0.8,1,1c0.2,0.7,0.3,1,0.3,1.8C8.3,25.8,8.2,25.9,8,25.8z"/>
	<path class="st12" d="M8.3,22.3c0.1,0,0.3,0.1,0.4,0.3c0.4,1.8,0.4,3,0.6,5.7c0.1-0.5,0.4-4.4,0.5-4.8c0-0.1,0.1-0.3,0.2-0.3
		c0.1,0,0.2,0,0.3,0.1c0.2,0.2,0.4,1.3,0.5,1.5c0.1,0,0.2-0.1,0.2-0.2c0.1,0,0.2,0,0.2,0c0.6,1.9,0.8,3.2,0.8,3.3
		c0.2,0.1,0.2,0.1,0.3,0.1c0.5,0.2,1.1,0.2,1.6,0.4c0.4,0.1,0.6,0.4,0.8,0.8c0.1,0.2,0.1,0.3,0.1,0.5c0.8,0.8,1.4,1.8,1.5,2.9
		c-0.5-0.1-2.1-0.6-3.3-1.3c-0.4-0.1-3.1-0.2-4.7-0.5c-0.2-0.1-0.5-0.2-0.7-0.3C7,30,5.9,29,5.6,28.7c-0.1-0.1-0.2-0.2-0.1-0.3
		c0-0.3,0.1-0.6,0.1-0.9c0-0.7,0.1-1.5,0.2-2.2c0-0.1,0.2-0.3,0.3-0.4c0.1,0,0.3,0.1,0.3,0.2c0.1,0.3,0.1,0.6,0.1,0.8
		c-0.1,0.5-0.2,1-0.1,1.6c0.1,0.4,0.2,0.4,0.5,0.7c0.4,0.3,0.7,0.6,1,0.8c0.1-0.5,0-0.9,0-1.4c0-1.3,0-2.6,0-3.9c0-0.3,0-0.6,0-0.8
		c0-0.1,0-0.2,0-0.3c0-0.1,0.1-0.3,0.2-0.4C8.2,22.3,8.3,22.3,8.3,22.3L8.3,22.3z M10.8,25.1c0,0.2,0,0.5-0.1,0.7c0,0.6,0,1.2,0,1.8
		c0,0.1,0,0.2,0,0.4c0-0.1,0-0.1,0-0.2C10.8,26.9,10.7,26,10.8,25.1L10.8,25.1z"/>
	<path class="st13" d="M21.9,29.3c0.5-1.8,4.6-4.9,5.6-7.4c0.5-1.4,1.1-5.3,1.3-5.7c1.4,0.5,2.8,1.7,2.3,3.9
		c-0.7,3.5-10.2,8.2-6.9,12.4C23,32,21.5,30.6,21.9,29.3L21.9,29.3z"/>
	<path class="st12" d="M28.8,16.1c0,1.1,0.2,2.6,0,4c-0.1,0.8-1.9,3.4-3.3,4.8l0,0c-0.6,1-1.6,1.6-2.9,1.6c-3-0.2-3.6-1.1-5-2.4
		c-4.8-4.4-4.4-5.8-4.3-6.6c0.9-4.6,2.7-8.8,8.5-8.8C23.2,12.5,23.6,13,28.8,16.1L28.8,16.1z"/>
	
		<radialGradient id="SVGID_3_" cx="-1812.3218" cy="-994.4342" r="24.87" gradientTransform="matrix(7.650671e-02 0 0 5.371753e-02 165.7028 72.6531)" gradientUnits="userSpaceOnUse">
		<stop  offset="0" style="stop-color:#F2A27D"/>
		<stop  offset="0.22" style="stop-color:#F2A27D;stop-opacity:0.99"/>
		<stop  offset="0.36" style="stop-color:#F2A47E;stop-opacity:0.95"/>
		<stop  offset="0.47" style="stop-color:#F2A67F;stop-opacity:0.89"/>
		<stop  offset="0.58" style="stop-color:#F2AA80;stop-opacity:0.81"/>
		<stop  offset="0.67" style="stop-color:#F2AE82;stop-opacity:0.7"/>
		<stop  offset="0.76" style="stop-color:#F2B484;stop-opacity:0.56"/>
		<stop  offset="0.84" style="stop-color:#F2BA87;stop-opacity:0.4"/>
		<stop  offset="0.92" style="stop-color:#F2C18A;stop-opacity:0.22"/>
		<stop  offset="1" style="stop-color:#F2CA8D;stop-opacity:1.000000e-02"/>
		<stop  offset="1" style="stop-color:#F2CA8D;stop-opacity:0"/>
	</radialGradient>
	<path class="st14" d="M28.9,19.2c0,0.9,0.3,1.5-0.6,1.8c-1.7,0.6-3.2-0.7-3.2-1.6s1.7-2.6,3.2-1.6C29.6,18.6,28.9,18.3,28.9,19.2
		L28.9,19.2z"/>
	<ellipse class="st15" cx="27.5" cy="19" rx="0.5" ry="0.3"/>
	<path class="st16" d="M24.8,18.1c-1.2,0.5-9.7-4.5-10.5,0.8c-0.1,0.4-2-7.4,1.1-9.2c12.2-6.9,12.8,2.8,12.6,3.8
		c-0.2,0.9,0.7,1.6,0.8,3.9c-1.9,0.8-5.2-0.4-6-0.8C23.1,17.5,24.4,17.8,24.8,18.1z"/>
	<path class="st17" d="M24.4,21c0.3,0,0.7-0.1,1-0.3c-0.1,0.3-0.4,0.5-0.6,0.7c-0.2,0.2-0.6,0.2-0.8-0.1c-0.2-0.1-0.3-0.4-0.3-0.6
		C23.9,20.8,24.1,21,24.4,21L24.4,21z"/>
	<path class="st18" d="M24.1,19.5c0.3,0,0.7,0,1,0.1c0.2,0.1,0.3,0.3,0.2,0.5c0,0.1-0.2,0.1-0.3,0.2c-0.4,0.1-0.8,0-1.1-0.2
		c-0.1-0.1-0.1-0.2-0.1-0.3C23.9,19.6,24,19.5,24.1,19.5z"/>
	
		<radialGradient id="SVGID_4_" cx="-1931.243" cy="-582.6807" r="15.59" gradientTransform="matrix(8.139012e-02 0 0 8.139019e-02 170.6319 68.0961)" gradientUnits="userSpaceOnUse">
		<stop  offset="0" style="stop-color:#FFFFFF"/>
		<stop  offset="0.73" style="stop-color:#B4574F"/>
		<stop  offset="0.99" style="stop-color:#98180D"/>
	</radialGradient>
	<circle class="st19" cx="13.4" cy="20.7" r="1.3"/>
	<circle class="st20" cx="13.5" cy="20.6" r="0.4"/>
	
		<radialGradient id="SVGID_5_" cx="-1879.9131" cy="-919.8294" r="37.8916" gradientTransform="matrix(8.139012e-02 0 0 5.697314e-02 170.6319 71.8198)" gradientUnits="userSpaceOnUse">
		<stop  offset="0" style="stop-color:#F2A27D"/>
		<stop  offset="0.22" style="stop-color:#F2A27D;stop-opacity:0.99"/>
		<stop  offset="0.36" style="stop-color:#F2A47E;stop-opacity:0.95"/>
		<stop  offset="0.47" style="stop-color:#F2A67F;stop-opacity:0.89"/>
		<stop  offset="0.58" style="stop-color:#F2AA80;stop-opacity:0.81"/>
		<stop  offset="0.67" style="stop-color:#F2AE82;stop-opacity:0.7"/>
		<stop  offset="0.76" style="stop-color:#F2B484;stop-opacity:0.56"/>
		<stop  offset="0.84" style="stop-color:#F2BA87;stop-opacity:0.4"/>
		<stop  offset="0.92" style="stop-color:#F2C18A;stop-opacity:0.22"/>
		<stop  offset="1" style="stop-color:#F2CA8D;stop-opacity:1.000000e-02"/>
		<stop  offset="1" style="stop-color:#F2CA8D;stop-opacity:0"/>
	</radialGradient>
	<ellipse class="st21" cx="17.6" cy="19.4" rx="3.9" ry="2"/>
	<ellipse class="st22" cx="17.5" cy="18.7" rx="1" ry="0.6"/>
	<path class="st23" d="M19.5,17.8h-0.2c-0.4,0.1-0.9,0.1-1.4,0.1c-0.3,0-0.5-0.1-0.8-0.2c-0.3-0.1-0.5-0.3-0.7-0.5
		c-0.2,0-0.4,0-0.7,0c0.1-0.1,0.3-0.2,0.4-0.3c-0.2,0-0.7,0.1-0.7-0.2c0-0.2,0-0.4,0.2-0.5c0.1,0,0.2-0.1,0.2-0.1
		c0.3-0.1,0.5-0.3,0.8-0.4c0.3-0.1,0.5-0.3,0.8-0.4c0.5-0.1,1-0.1,1.4,0.1c0.5,0.2,0.8,0.5,1.1,0.9c0.2,0.3,0.5,1.1,0.5,1.1
		c0-0.1-0.2,0-0.2,0c0.1,0.1,0.2,0.3,0.3,0.5c-0.3-0.2-0.4-0.2-0.9-0.4c0,0-1,0.1-1.1,0.2c-0.1,0.1,0.1,0.3,0.1,0.3L19.5,17.8z"/>
	<path class="st24" d="M20.6,17.3c0,0.1,0,0.1,0.1,0.4c-0.1-0.2-0.1-0.2-0.3-0.5C20.4,17.2,20.5,17.2,20.6,17.3z"/>
	<path class="st25" d="M18.8,15.7c-0.2-0.1-0.3-0.1-1,0c-0.2,0-0.4,0.1-0.5,0.2c-0.2,0.2-0.5,0.5-0.7,0.7c0.3,0.7,1,1.1,1.8,1.3
		c0.2,0,0.4,0,0.6,0c1.2-0.7,1.6-0.5,1.7-0.5C20.6,17.3,19.9,15.9,18.8,15.7L18.8,15.7z"/>
	
		<radialGradient id="SVGID_6_" cx="-1871.103" cy="-632.6107" r="12.32" gradientTransform="matrix(8.139012e-02 0 0 8.139019e-02 170.6319 68.0961)" gradientUnits="userSpaceOnUse">
		<stop  offset="0" style="stop-color:#F0FFD4"/>
		<stop  offset="0.99" style="stop-color:#3E6525"/>
	</radialGradient>
	<circle class="st26" cx="18.3" cy="16.6" r="1"/>
	<circle class="st27" cx="18.4" cy="16.7" r="0.6"/>
	<circle class="st25" cx="18.9" cy="16.6" r="0.3"/>
	<path class="st28" d="M17.7,15.6c0.6-0.2,1.2,0,1.7,0.3c0.3,0.2,0.6,0.5,0.8,0.7c0.1,0.1,0.1,0.2,0.1,0.4c-0.3-0.5-0.8-1-1.4-1.2
		c-0.2-0.1-0.5-0.1-0.8-0.1c-0.1,0-0.2,0-0.3,0c-0.2,0.1-0.4,0.1-0.7,0.2c-0.3,0-0.6,0.2-0.9,0.3c-0.2,0-0.6-0.1-0.8-0.2
		c0.1,0,0.3,0,0.4,0c0.2,0,0.3,0,0.5,0C16.8,15.9,17.3,15.7,17.7,15.6L17.7,15.6z"/>
	<path class="st23" d="M25,18c0.2-0.9,1.1-3.2,3.1-1.7C25.8,15.9,25.3,17.5,25,18z"/>
	<path class="st29" d="M28,16.9c0.3,0,0.6-0.1,0.7-0.2c0.1-0.1,0-0.1,0-0.2c-2-0.7-3.3,0.4-3.7,1.6c0.5,0.1,1.3,0.9,2.4,0.5
		c0.5-0.2,0.8-0.8,0.9-1.4l0-0.2C28.2,17.4,28,16.8,28,16.9z"/>
	<path class="st25" d="M28,16.9c0,0-1.5-1-3,1.2c2.6,1.6,3.2-0.7,3.3-1C28.2,17,28.1,16.9,28,16.9z"/>
	
		<radialGradient id="SVGID_7_" cx="-1765.7631" cy="-620.9006" r="12.2" gradientTransform="matrix(8.139012e-02 0 0 8.139019e-02 170.6319 68.0961)" gradientUnits="userSpaceOnUse">
		<stop  offset="0" style="stop-color:#F0FFD4"/>
		<stop  offset="0.99" style="stop-color:#3E6525"/>
	</radialGradient>
	<circle class="st30" cx="26.9" cy="17.6" r="1"/>
	<circle class="st31" cx="27" cy="17.6" r="0.6"/>
	<circle class="st32" cx="27.2" cy="17.5" r="0.3"/>
	
		<linearGradient id="SVGID_8_" gradientUnits="userSpaceOnUse" x1="14.7336" y1="-65.8134" x2="20.1279" y2="-65.8134" gradientTransform="matrix(0.9994 0 0 0.9994 0.3717 79.947)">
		<stop  offset="0" style="stop-color:#000000"/>
		<stop  offset="7.000000e-02" style="stop-color:#2E2014"/>
		<stop  offset="0.14" style="stop-color:#593E26"/>
		<stop  offset="0.21" style="stop-color:#7D5635"/>
		<stop  offset="0.28" style="stop-color:#996A41"/>
		<stop  offset="0.36" style="stop-color:#AC7749"/>
		<stop  offset="0.43" style="stop-color:#B87F4E"/>
		<stop  offset="0.5" style="stop-color:#BC8250"/>
		<stop  offset="0.57" style="stop-color:#B77F4E"/>
		<stop  offset="0.64" style="stop-color:#AA7548"/>
		<stop  offset="0.72" style="stop-color:#93663F"/>
		<stop  offset="0.79" style="stop-color:#745031"/>
		<stop  offset="0.87" style="stop-color:#4B3420"/>
		<stop  offset="0.96" style="stop-color:#1A120B"/>
		<stop  offset="0.99" style="stop-color:#000000"/>
	</linearGradient>
	<path class="st33" d="M20.3,14.2c-0.2-0.3-0.6-0.5-0.9-0.7c-0.8-0.3-1.7-0.5-2.5-0.3c-0.6,0.2-1.1,0.5-1.4,1.1
		c-0.2,0.4-0.3,0.7-0.3,0.9c0.4-0.7,0.9-1.1,1.2-1.2c0.6-0.3,1.2-0.3,1.9-0.2c0.4,0.1,0.7,0.3,1,0.6c0.2,0.1,0.3,0.3,0.5,0.5
		s0.4,0.4,0.7,0.3c0.2-0.1,0.2-0.2,0.2-0.4c0,0,0,0,0-0.1C20.5,14.5,20.4,14.4,20.3,14.2L20.3,14.2z"/>
	<path class="st34" d="M25.3,23.1c0,0-3.3,1.2-4.7-0.6c0,0.5,0.5,3.5,2.9,3.5C25.1,25.7,25.2,23.3,25.3,23.1L25.3,23.1z"/>
	<path class="st35" d="M23.1,25.3c0.2-0.1,0.5,0,0.4,0.3c-0.1,0.2-0.3,0.2-0.4,0.1C22.9,25.6,23,25.3,23.1,25.3z"/>
	<path class="st36" d="M22.1,24.7c0.2,0.1,0.3,0.1,0.5,0.2s0.4,0.2,0.5,0.3L23,25.4c-0.1,0.1-0.3,0.1-0.4,0.1
		c-0.2-0.2-0.5-0.3-0.5-0.6C22,24.8,22,24.7,22.1,24.7L22.1,24.7z"/>
	<path class="st37" d="M20.9,22.5c0.6,0.1,1.3,0.1,1.9,0.1l-0.1,0.1c-0.3,0-0.7,0.1-1,0.1s-0.7,0-1-0.1L20.9,22.5z"/>
	<path class="st38" d="M22,22.7c0.2-0.1,1.7-0.5,2.5-0.4c0.7,0.1,0.7,0.7,0.8,0.7c0,0,0,0,0,0.1c-0.1,0.2-0.2,0.3-0.3,0.5
		C25,23.6,22.3,22.7,22,22.7L22,22.7z"/>
	<path class="st39" d="M21.9,22.3c1.1-0.5,2.4-0.5,3.6-0.2c0.2,0.1,0.4,0.1,0.5,0.3c0,0.1,0,0.2-0.1,0.2c-0.2,0.2-0.5,0.2-0.7,0.3
		c-1.2-1.2-2.2-0.4-3.3-0.3c-0.4,0-0.9-0.1-1.2-0.3C21.2,22.5,21.6,22.5,21.9,22.3z"/>
	<path class="st40" d="M20.6,22.5c0.9,0.9,4.1-0.7,4.5,0.5c0,0.2,0,1.3-1.8,1.5C21.3,24.6,20.6,22.5,20.6,22.5L20.6,22.5z"/>
	<path class="st41" d="M20.6,22.5c1.1,2.1,3.5,1.7,4.4,1.2C24.6,24.6,21.7,25.8,20.6,22.5L20.6,22.5z"/>
	
		<linearGradient id="SVGID_9_" gradientUnits="userSpaceOnUse" x1="18.7464" y1="-70.2072" x2="17.0917" y2="-76.844" gradientTransform="matrix(0.9994 0 0 0.9994 0.3717 79.947)">
		<stop  offset="0" style="stop-color:#FFFFFF"/>
		<stop  offset="6.000000e-02" style="stop-color:#F0EDE9"/>
		<stop  offset="0.25" style="stop-color:#C8BBAD"/>
		<stop  offset="0.43" style="stop-color:#A7937B"/>
		<stop  offset="0.6" style="stop-color:#8E7354"/>
		<stop  offset="0.76" style="stop-color:#7B5C38"/>
		<stop  offset="0.89" style="stop-color:#704E27"/>
		<stop  offset="0.99" style="stop-color:#6C4921"/>
	</linearGradient>
	<path class="st42" d="M9.5,10.1c1-5,6.2-6.5,7.5-6.8c6.5-1.5,10.9,2.9,10.9,2.9S14.1,13.3,9.5,10.1z"/>
	
		<linearGradient id="SVGID_10_" gradientUnits="userSpaceOnUse" x1="9.8294" y1="-63.0843" x2="21.0389" y2="-74.2937" gradientTransform="matrix(0.9994 0 0 0.9994 0.3717 79.947)">
		<stop  offset="0" style="stop-color:#B17C4A"/>
		<stop  offset="0.15" style="stop-color:#9C6C41"/>
		<stop  offset="0.53" style="stop-color:#6D482C"/>
		<stop  offset="0.83" style="stop-color:#503120"/>
		<stop  offset="0.99" style="stop-color:#45291B"/>
	</linearGradient>
	<path class="st43" d="M15.2,13.8c-2.5,4.3,0.3,6.6,0.3,6.6S6.8,18.1,9.6,9.6c0.9-2.8,4.4-4.8,5.7-5c3.6-0.5,7.2,2.2,7.2,2.2
		S17.3,10.1,15.2,13.8L15.2,13.8z"/>
	
		<linearGradient id="SVGID_11_" gradientUnits="userSpaceOnUse" x1="16.4312" y1="-59.2498" x2="16.4312" y2="-73.2446" gradientTransform="matrix(0.9994 0 0 0.9994 0.3717 79.947)">
		<stop  offset="0" style="stop-color:#7A4F3F"/>
		<stop  offset="0.13" style="stop-color:#7E5240"/>
		<stop  offset="0.27" style="stop-color:#8B5C44"/>
		<stop  offset="0.41" style="stop-color:#A06B4B"/>
		<stop  offset="0.55" style="stop-color:#BD8154"/>
		<stop  offset="0.57" style="stop-color:#C18455"/>
		<stop  offset="0.67" style="stop-color:#A8714D"/>
		<stop  offset="0.79" style="stop-color:#8F5E45"/>
		<stop  offset="0.9" style="stop-color:#7F5341"/>
		<stop  offset="0.99" style="stop-color:#7A4F3F"/>
	</linearGradient>
	<path class="st44" d="M14.4,13.6c-2.1,4.5,2.2,7.1,2.2,7.1s-8-3-4.9-9.6c2.6-5.7,10.9-4.3,10.9-4.3S16.7,8.7,14.4,13.6L14.4,13.6z"
		/>
	<path class="st45" d="M10,14.7c0.4-0.5,0.7-0.6,0.7-1.6c0-0.6,0.9-3.4,3.1-5c1.3-0.9,2.5-1.3,3.6-1.5c1-0.2,0.7,0.4,0.7,0.4
		s-4,0.5-5.8,3.6c-0.9,1.6-0.8,2.2-1.1,2.9C10.7,14.5,10.1,14.7,10,14.7z"/>
	<path class="st46" d="M25,15.8c-9.9-3-9.7-11.1-9.7-11.1S18.4,12.6,25,15.8z"/>
	<path class="st47" d="M27,30.9c0.1-0.1,0.6-0.5,0.9-0.3c0.4,0.4,0.7,1.3-0.1,2.1c-0.7,0.6-2.4,0-3-0.3c-1.2-0.6-1.8-1.6-1.6-3.5
		c0.4-3.5,12.5-8.1,5.5-12.8c-0.9-0.1-2.6-0.3-4.4-1c-2.2-0.9-2.9-1.6-4.9-3.4c-1.9-1.8-2.9-5.5-4.1-6.9c8.5,0.1,16.5,8.2,17.2,14.1
		c0.4,3.4-3.3,5.9-7.3,9.5c-1,0.9-1.1,4.4,2.2,3.8c0.5-0.2,0.5-0.7,0.2-1.1C27.5,30.7,27.3,31,27,30.9L27,30.9z"/>
	
		<linearGradient id="SVGID_12_" gradientUnits="userSpaceOnUse" x1="14.973" y1="-67.219" x2="32.8139" y2="-67.219" gradientTransform="matrix(0.9994 0 0 0.9994 0.3717 79.947)">
		<stop  offset="0" style="stop-color:#6C4921"/>
		<stop  offset="0.1" style="stop-color:#755026"/>
		<stop  offset="0.27" style="stop-color:#8F6235"/>
		<stop  offset="0.49" style="stop-color:#B87F4D"/>
		<stop  offset="0.5" style="stop-color:#BB814F"/>
		<stop  offset="0.99" style="stop-color:#6C4921"/>
	</linearGradient>
	<path class="st48" d="M32.5,21.4c1-5.9-4.3-6.5-9.2-9c-3.5-1.7-6.3-2.7-7.9-7.7c7-1.4,11.5-0.1,14.3,2.9
		C32.9,11.2,34,17.2,32.5,21.4L32.5,21.4z"/>
	
		<linearGradient id="SVGID_13_" gradientUnits="userSpaceOnUse" x1="23.4042" y1="-76.0244" x2="24.6788" y2="-61.4606" gradientTransform="matrix(0.9994 0 0 0.9994 0.3717 79.947)">
		<stop  offset="0" style="stop-color:#6C4921"/>
		<stop  offset="7.000000e-02" style="stop-color:#81582D"/>
		<stop  offset="0.2" style="stop-color:#A06E3F"/>
		<stop  offset="0.32" style="stop-color:#B37B4A"/>
		<stop  offset="0.39" style="stop-color:#BA804E"/>
		<stop  offset="0.53" style="stop-color:#AE7747"/>
		<stop  offset="0.78" style="stop-color:#8D6034"/>
		<stop  offset="0.99" style="stop-color:#6C4921"/>
	</linearGradient>
	<path class="st49" d="M33.3,17.8c-1.9-6.5-10.8-4.4-17.9-13.1C33,4.8,33.4,15.2,33.3,17.8z"/>
	<path class="st50" d="M27.5,30.7c0.1,0.4,0,0.9-0.6,1c-0.5,0.1-0.8-0.7-0.1-1.3c-0.1-0.4-0.9-0.3-0.9-0.3s0.4,0.3,0.3,0.7
		c-0.7-0.1-0.9-0.1-1.5-0.5c0.1-0.5,0.5-0.6,1.3-0.6S27.4,30.1,27.5,30.7L27.5,30.7z"/>
</g>
</svg>
