<?xml version="1.0" encoding="utf-8"?>
<!-- Generator: Adobe Illustrator 21.0.0, SVG Export Plug-In . SVG Version: 6.00 Build 0)  -->
<svg version="1.1" id="Слой_1" xmlns:xodm="http://www.corel.com/coreldraw/odm/2003"
	 xmlns="http://www.w3.org/2000/svg" xmlns:xlink="http://www.w3.org/1999/xlink" x="0px" y="0px" viewBox="0 0 3125 893.5"
	 style="enable-background:new 0 0 3125 893.5;" xml:space="preserve">
<style type="text/css">
	.st0{fill:#151922;}
	.st1{fill:#D19E59;}
</style>
<g id="Слой_x0020_1">
	<path class="st0" d="M1328.6,336.2c19.3-19.3,48.3-29,77.3-29c29,0,61.2,3.2,86.9,19.3c12.9,9.7,22.5,19.3,29,32.2
		c-12.9,6.4-25.8,12.9-41.9,22.5c-16.1-22.5-45.1-32.2-70.8-29c-16.1,0-32.2,3.2-41.9,16.1c-9.7,9.7-9.7,29,0,35.4
		c16.1,12.9,35.4,12.9,54.7,16.1c29,3.2,57.9,9.7,80.5,25.8c25.8,19.3,32.2,57.9,19.3,86.9c-9.7,25.8-32.2,41.9-54.7,48.3
		c-32.2,9.7-67.6,9.7-103,3.2c-32.2-6.4-57.9-29-67.6-61.2c12.9-6.4,29-12.9,41.8-22.5c9.7,22.5,29,35.4,54.7,41.9
		c22.5,3.2,51.5,3.2,74-9.7c16.1-12.9,19.3-38.6,0-51.5c-22.5-16.1-51.5-12.9-80.5-19.3c-25.8-6.4-51.5-16.1-67.6-38.6
		C1302.8,397.4,1302.8,358.7,1328.6,336.2L1328.6,336.2L1328.6,336.2z"/>
	<path class="st0" d="M797.4,352.3c51.5-54.7,151.3-54.7,206,0c-12.9,9.7-22.5,22.5-35.4,32.2c-35.4-32.2-93.4-35.4-128.8-3.2
		c-41.8,35.4-38.6,112.7,3.2,144.9c38.6,25.8,93.4,22.5,125.6-9.7c12.9,12.9,22.5,22.5,35.4,35.4c-29,29-67.6,41.9-106.2,38.6
		c-41.9,0-86.9-16.1-112.7-48.3C745.9,487.5,749.1,403.8,797.4,352.3L797.4,352.3L797.4,352.3z"/>
	<path class="st0" d="M1087.2,378.1c9.7-19.3,19.3-41.9,29-61.2c19.3,0,35.4,0,54.7,0c16.1,32.2,29,64.4,45.1,96.6
		c25.8,58,51.5,115.9,77.3,173.8c-19.3,0-38.6,0-54.7,0c-9.7-16.1-16.1-35.4-22.5-51.5c-45.1,0-93.4,0-138.4,0
		c-9.7,16.1-16.1,35.4-25.8,51.5c-19.3,0-35.4,0-54.7,0C1026,516.5,1058.2,445.7,1087.2,378.1L1087.2,378.1z M1093.6,487.5h99.8
		c-16.1-38.6-32.2-77.3-48.3-112.7C1125.8,410.2,1109.7,448.9,1093.6,487.5z"/>
	<path class="st0" d="M1566.8,316.9c16.1,0,35.4,0,51.5,0c0,38.6,0,77.3,0,115.9h132c0-38.6,0-77.3,0-112.7c16.1,0,35.4,0,51.5,0
		c0,90.1,0,180.3,0,270.4c-16.1,0-35.4,0-51.5,0c0-35.4,0-74,0-109.5c-45.1,0-86.9,0-132,0c0,35.4,0,74,0,109.5
		c-16.1,0-35.4,0-51.5,0C1566.8,497.2,1566.8,407,1566.8,316.9L1566.8,316.9z"/>
	<path class="st1" d="M1846.9,316.9h125.6c22.5,0,48.3,3.2,67.6,19.3c22.5,16.1,32.2,48.3,25.8,77.3c-3.2,16.1-16.1,29-32.2,35.4
		c45.1,16.1,54.7,80.5,22.5,112.7c-19.3,22.5-51.5,25.8-77.3,25.8c-45.1,0-90.1,0-132,0C1846.9,497.2,1846.9,407,1846.9,316.9
		L1846.9,316.9z M1898.4,423.1c22.5,0,45.1,0,70.8,0c16.1,0,32.2,0,45.1-9.7c9.7-9.7,9.7-25.8,0-38.6c-9.7-9.7-22.5-12.9-35.4-12.9
		c-25.8,0-51.5,0-80.5,0C1898.4,381.3,1898.4,403.8,1898.4,423.1L1898.4,423.1L1898.4,423.1z M1898.4,468.2c0,22.5,0,45.1,0,67.6
		c25.8,0,51.5,0,77.3,0c16.1,0,32.2-3.2,45.1-12.9c9.7-9.7,9.7-25.8,3.2-35.4c-9.7-12.9-29-19.3-45.1-19.3
		C1949.9,468.2,1924.2,468.2,1898.4,468.2L1898.4,468.2z"/>
	<path class="st1" d="M2114.1,316.9h202.8c0,16.1,0,32.2,0,48.3c-51.5,3.2-103,0-151.3,0c0,19.3,0,41.9,0,61.2
		c48.3,0,96.6,0,144.9,0c0,16.1,0,32.2,0,48.3c-48.3,0-96.6,0-144.9,0v61.2h151.3v51.5c-67.6,0-135.2,0-202.8,0
		C2114.1,497.2,2114.1,407,2114.1,316.9L2114.1,316.9z"/>
	<path class="st1" d="M2355.6,316.9c41.9,0,86.9,0,128.8,0c22.5,0,48.3,6.4,67.6,22.5c41.9,32.2,41.9,103,3.2,135.2
		c-12.9,9.7-25.8,12.9-38.6,16.1c25.8,32.2,57.9,61.2,83.7,96.6c-19.3,0-41.9,0-61.2,0c-25.8-29-51.5-61.2-77.3-90.1
		c-16.1,0-32.2,0-48.3,0c0,29,0,61.2,0,90.1c-16.1,0-35.4,0-51.5,0C2355.6,497.2,2355.6,407,2355.6,316.9L2355.6,316.9L2355.6,316.9
		z M2407.1,365.2v83.7c29,0,58,0,86.9,0c22.5-3.2,41.9-25.8,35.4-48.3c-3.2-19.3-19.3-35.4-38.6-35.4
		C2461.8,362,2432.8,365.2,2407.1,365.2z"/>
	<path class="st1" d="M2616.3,316.9c41.9,0,83.7,0,125.6,0c25.8,0,51.5,6.4,70.8,22.5c38.6,29,41.9,93.4,12.9,128.8
		c-12.9,12.9-29,22.5-48.3,25.8c25.8,25.8,48.3,54.7,70.8,80.5c3.2,3.2,9.7,9.7,9.7,16.1c-19.3,0-38.6,0-54.7,0
		c-3.2,0-6.4,0-9.7-3.2c-25.8-29-51.5-57.9-74-86.9c-16.1,0-32.2,0-48.3,0v90.1c-16.1,0-35.4,0-51.5,0
		C2616.3,497.2,2616.3,407,2616.3,316.9L2616.3,316.9z M2667.9,365.2c0,29,0,57.9,0,86.9c29,0,57.9,0,86.9,0
		c25.8-3.2,41.9-29,35.4-51.5c-3.2-19.3-22.5-32.2-38.6-32.2C2722.6,362,2693.6,362,2667.9,365.2L2667.9,365.2L2667.9,365.2z"/>
	<path class="st1" d="M2861,316.9c19.3,0,41.9,0,61.2,0c22.5,35.4,45.1,74,67.6,112.7c25.8-35.4,48.3-74,74-112.7
		c19.3,0,41.9,0,61.2,0c-32.2,48.3-64.4,93.4-96.6,141.7c-3.2,6.4-12.9,12.9-12.9,22.5v106.2c-16.1,0-35.4,0-51.5,0
		c0-38.6,0-74,0-112.7C2931.8,419.9,2893.2,371.6,2861,316.9L2861,316.9L2861,316.9z"/>
	<path class="st1" d="M411.1,1.4C491.6-5,572,11,642.9,46.5c3.2,3.2,9.7,3.2,12.9,9.7c3.2,6.4,0,12.9-6.4,16.1c-3.2,0-6.4,0-9.7-3.2
		c-61.2-32.2-128.8-48.3-199.6-45.1c-99.8,0-199.6,38.6-273.6,103c-41.9,35.4-77.3,80.5-99.8,128.8C40.9,304,24.8,362,21.5,416.7
		c-6.4,86.9,12.9,177.1,61.2,251.1c51.5,83.7,128.8,148.1,218.9,180.3c96.6,35.4,209.3,35.4,305.8-6.4c12.9-6.4,25.8-9.7,38.6-16.1
		c6.4-3.2,12.9,3.2,12.9,9.7c0,3.2-3.2,9.7-6.4,9.7c-64.4,32.2-138.4,51.5-212.5,48.3c-112.7,0-225.4-48.3-305.8-128.8
		c-41.8-38.6-74-86.9-96.6-138.4C2.2,548.7-7.4,461.8,5.4,378.1c16.1-103,67.6-199.6,144.9-267.2C217.9,49.7,311.3,7.8,411.1,1.4
		L411.1,1.4L411.1,1.4z"/>
	<path class="st1" d="M295.2,130.2c6.4-3.2,12.9-6.4,22.5-9.7v57.9c67.6-32.2,151.3-38.6,222.1-12.9c54.7,19.3,103,51.5,138.4,96.6
		c35.4,45.1,57.9,99.8,64.4,154.5c3.2,16.1,0,32.2,0,48.3c-3.2,54.7-22.5,109.5-54.7,154.5c-29,41.8-67.6,77.3-115.9,96.6
		c-58,29-122.3,35.4-183.5,25.8c-51.5-9.7-99.8-32.2-138.4-64.4c-54.7-45.1-93.4-112.7-103-180.3c-6.4-29-3.2-58-3.2-86.9
		c0-48.3,0-96.6,0-144.9l0,0c6.4-9.7,12.9-22.5,22.5-32.2c0,67.6,0,135.2,0,206c-3.2,58,12.9,112.7,45.1,161
		c25.8,41.8,67.6,77.3,112.7,99.8c58,29,125.6,35.4,186.7,19.3c48.3-12.9,93.4-38.6,128.8-74c35.4-32.2,57.9-74,70.8-122.3
		c16.1-57.9,12.9-119.1-6.4-173.8c-19.3-48.3-51.5-93.4-96.6-125.6c-38.6-29-83.7-45.1-132-51.5c-54.7-6.4-112.7,3.2-161,29v61.2
		v25.8v80.5c16.1-25.8,41.8-48.3,70.8-61.2c32.2-12.9,67.6-12.9,103-3.2c45.1,12.9,80.5,48.3,96.6,93.4c12.9,35.4,9.7,74-3.2,106.2
		c-16.1,41.9-54.7,74-96.6,83.7c-35.4,9.7-74,6.4-106.2-9.7c-45.1-22.5-77.3-64.4-83.7-112.7c-3.2-16.1,0-35.4,0-51.5
		c0-93.4,0-186.7,0-280.1C295.2,133.4,295.2,133.4,295.2,130.2L295.2,130.2L295.2,130.2z M424,323.3c-32.2,6.4-61.2,22.5-80.5,45.1
		c-16.1,19.3-25.8,41.8-25.8,67.6c-3.2,29,3.2,58,19.3,83.7c16.1,22.5,35.4,38.6,61.2,48.3c25.8,9.7,54.7,12.9,83.7,3.2
		c45.1-12.9,77.3-51.5,86.9-93.4c6.4-29,3.2-57.9-9.7-83.7c-12.9-25.8-35.4-48.3-61.2-61.2C475.5,323.3,449.7,316.9,424,323.3
		L424,323.3z"/>
	<path class="st0" d="M211.5,159.1c70.8-58,164.2-86.9,257.6-80.5c99.8,6.4,196.4,54.7,260.8,128.8c3.2,3.2,3.2,12.9-3.2,16.1
		c-3.2,0-12.9,0-16.1-3.2c-32.2-38.6-74-70.8-122.3-90.1c-83.7-38.6-186.7-41.8-273.6-6.4c-6.4,3.2-16.1,6.4-22.5,9.7
		c-19.3,9.7-35.4,19.3-51.5,32.2c0,93.4,0,189.9,0,283.3c0,58,22.5,112.7,64.4,151.3c38.6,35.4,90.1,57.9,144.9,54.7
		c54.7,0,112.7-25.8,148.1-70.8c32.2-38.6,51.5-90.1,48.3-138.4c0-58-29-112.7-70.8-148.1c-41.9-35.4-99.8-54.7-154.5-45.1
		c-38.6,3.2-74,19.3-106.2,45.1c0-9.7,0-19.3,0-25.8c38.6-25.8,83.7-41.8,132-38.6c57.9,0,112.7,22.5,151.3,64.4
		c35.4,35.4,61.2,83.7,67.6,135.2c6.4,51.5-6.4,106.2-35.4,151.3c-29,41.9-70.8,74-119.1,90.1c-57.9,19.3-125.6,12.9-180.3-19.3
		c-45.1-25.8-80.5-67.6-99.8-119.1c-9.7-29-16.1-58-12.9-90.1c0-86.9,0-173.8,0-260.8c-19.3,16.1-38.6,35.4-54.7,54.7
		c-9.7,9.7-16.1,22.5-22.5,32.2c-29,48.3-48.3,106.2-51.5,161c-3.2,67.6,12.9,138.4,48.3,199.6c32.2,51.5,77.3,96.6,128.8,128.8
		c51.5,29,112.7,45.1,170.6,48.3c64.4,0,128.8-16.1,183.5-48.3c32.2-19.3,64.4-45.1,86.9-74c3.2-6.4,16.1-3.2,16.1,3.2
		c0,3.2,0,9.7-3.2,12.9c-38.6,45.1-86.9,77.3-138.4,99.8c-61.2,25.8-132,35.4-199.6,25.8c-61.2-9.7-119.1-32.2-167.4-67.6
		c-45.1-32.2-80.5-74-106.2-122.3c-32.2-57.9-48.3-125.6-45.1-189.9c0-45.1,9.7-90.1,29-132C124.6,249.3,163.2,197.8,211.5,159.1
		L211.5,159.1L211.5,159.1z"/>
	<path class="st0" d="M433.6,365.2c19.3-3.2,41.9,3.2,57.9,12.9c22.5,16.1,38.6,41.9,38.6,67.6c0,16.1-3.2,32.2-12.9,45.1
		c-12.9,19.3-32.2,35.4-54.7,38.6c-19.3,3.2-41.8,0-61.2-9.7c-19.3-12.9-35.4-32.2-41.8-54.7c-6.4-22.5-3.2-45.1,9.7-64.4
		C385.3,381.3,407.9,368.4,433.6,365.2L433.6,365.2L433.6,365.2z"/>
</g>
</svg>
