<?xml version="1.0" encoding="utf-8"?>
<!-- Generator: Adobe Illustrator 21.0.0, SVG Export Plug-In . SVG Version: 6.00 Build 0)  -->
<svg version="1.1" id="Слой_1" xmlns="http://www.w3.org/2000/svg" xmlns:xlink="http://www.w3.org/1999/xlink" x="0px" y="0px"
	 viewBox="0 0 89 32.1" style="enable-background:new 0 0 89 32.1;" xml:space="preserve">
<style type="text/css">
	.st0{fill:#202020;}
	.st1{fill:#ED9C35;}
</style>
<g>
	<g>
		<path class="st0" d="M18.3,11.4c-0.6,0-1.2,0.2-1.7,0.6c-0.1,0-0.1,0.1-0.2,0.1V12c0-0.3-0.2-0.5-0.5-0.5h-1.4
			c-0.3,0-0.5,0.2-0.5,0.5v8.4c0,0.3,0.2,0.5,0.5,0.5h1.4c0.3,0,0.5-0.2,0.5-0.5v-4.3c0-0.8,0.2-1.4,0.4-1.9
			c0.3-0.9,2.6-0.7,2.6-0.9c0,0,0.1-1.7-0.1-1.8C19.1,11.4,18.7,11.4,18.3,11.4z"/>
		<path class="st0" d="M24.9,11.1c-1.4,0-2.5,0.5-3.4,1.4s-1.4,2.1-1.4,3.5c0,1.5,0.4,2.7,1.3,3.5c0.8,0.9,2,1.3,3.5,1.3
			c1.4,0,3.2-0.5,4-1.6c0.1-0.1-1.2-1.5-1.5-1.2c-0.7,0.6-1.2,0.8-2.2,0.8c-0.8,0-1.4-0.2-1.8-0.6c-0.3-0.3-0.6-0.8-0.7-1.4h6
			c0.3,0,0.5-0.2,0.5-0.5v-0.7c0-1.4-0.4-2.5-1.1-3.3C27.3,11.5,26.2,11.1,24.9,11.1z M22.4,15.1c0.2-0.6,0.4-1,0.8-1.4
			c1-1.1,2.6-1,3.3-0.1c0.3,0.4,0.5,0.9,0.6,1.5H22.4z"/>
		<path class="st0" d="M40.4,6.1h-1.5c-0.3,0-0.5,0.2-0.5,0.5v5.9c-0.5-0.8-1.4-1.4-2.4-1.4c-1.5,0-2.7,0.5-3.6,1.4
			c-0.9,0.9-1.3,2.1-1.3,3.6c0,1.4,0.4,2.5,1.2,3.4c0.8,0.9,1.9,1.3,3.3,1.3c1.1,0,2.1-0.3,2.8-0.8v0.2c0,0.3,0.2,0.5,0.5,0.5h1.5
			c0.3,0,0.5-0.2,0.5-0.5V6.6C40.9,6.3,40.7,6.1,40.4,6.1z M38.1,17.8c-0.4,0.5-0.9,0.9-1.7,1c-0.8,0.2-1.4,0.1-2-0.3s-1-1-1.1-1.9
			c-0.2-1-0.1-1.8,0.3-2.4c0.4-0.6,1-1,1.8-1.1c0.7-0.1,1.3-0.1,1.8,0.2s0.9,0.7,1,1.3l0.3,1.2C38.7,16.6,38.5,17.2,38.1,17.8z"/>
		<path class="st0" d="M43.8,7.5c-0.3,0.3-0.4,0.6-0.4,1s0.1,0.7,0.4,1c0.3,0.3,0.6,0.4,1,0.4c0.4,0,0.7-0.1,1-0.4
			c0.3-0.3,0.4-0.6,0.4-1s-0.1-0.7-0.4-1C45.3,7,44.3,7,43.8,7.5z"/>
		<path class="st0" d="M45.5,11.6h-1.4c-0.3,0-0.5,0.2-0.5,0.5v8.2c0,0.3,0.2,0.5,0.5,0.5h1.4c0.3,0,0.5-0.2,0.5-0.5v-8.2
			C46,11.9,45.8,11.6,45.5,11.6z"/>
		<path class="st0" d="M53.1,13.3c0.3,0,0.5-0.2,0.5-0.5v-0.9c0-0.3-0.2-0.5-0.5-0.5h-1.8V9.2c0-0.2-0.1-0.3-0.2-0.4
			c-0.1-0.1-0.3-0.1-0.4-0.1h-1.4C49.1,8.8,49,9,49,9.2v2.2h-1c-0.3,0-0.5,0.2-0.5,0.5v0.9c0,0.3,0.2,0.5,0.5,0.5h1v4.5
			c0,2,1,3.1,2.8,3.1c0.6,0,1.2-0.1,1.6-0.3c0.2-0.1,0.3-0.2,0.3-0.4V19c0-0.2-0.1-0.4-0.3-0.4c-0.2-0.1-0.4-0.1-0.5,0
			c-0.4,0.3-1.1,0.2-1.3,0c-0.1-0.1-0.2-0.3-0.2-1v-4.2L53.1,13.3L53.1,13.3z"/>
		<path class="st0" d="M11.1,17.4c-0.2-0.2-0.5-0.2-0.7,0c-1.2,0.9-2.7,1.3-4.3,0.8c-1.7-0.5-3-1.9-3.4-3.5c-0.7-3.2,1.7-6,4.8-6
			c1.1,0,2.1,0.4,2.9,1c0.2,0.1,0.5,0.2,0.6,0l1.1-0.9c0.3-0.2,0.3-0.6,0-0.8c-1.7-1.4-3.9-2-6.4-1.5C3,7.1,0.8,9.3,0.2,12
			c-1,4.7,2.6,8.9,7.2,8.9c1.8,0,3.4-0.6,4.7-1.7c0.2-0.2,0.2-0.6,0-0.8L11.1,17.4z"/>
	</g>
	<g>
		<path class="st1" d="M63.2,13.6h-1c-0.2,0-0.3,0.1-0.3,0.3v8.2c0,0.2,0.2,0.3,0.3,0.3h1c0.2,0,0.3-0.1,0.3-0.3v-3
			c0.4,0.3,0.9,0.4,1.5,0.4c1,0,1.7-0.3,2.3-0.9c0.5-0.6,0.8-1.3,0.8-2.3c0-0.8-0.2-1.5-0.7-2s-1.2-0.8-2.1-0.8
			c-0.7,0-1.3,0.2-1.8,0.5v-0.1C63.6,13.7,63.4,13.6,63.2,13.6z M63.8,15c0.3-0.3,0.7-0.4,1.2-0.4s0.8,0.1,1.1,0.4
			c0.3,0.3,0.4,0.7,0.4,1.2c0,0.6-0.2,1.1-0.5,1.5c-0.3,0.3-0.7,0.5-1.2,0.5c-0.4,0-0.8-0.1-1.1-0.4c-0.3-0.3-0.4-0.6-0.4-0.9v-0.8
			C63.3,15.7,63.4,15.3,63.8,15z"/>
		<path class="st1" d="M70,10c-0.2,0-0.3,0.1-0.3,0.3V19c0,0.2,0.2,0.3,0.3,0.3h1c0.2,0,0.3-0.1,0.3-0.3v-8.7c0-0.2-0.2-0.3-0.3-0.3
			H70z"/>
		<path class="st1" d="M77.2,19.3h0.9c0.2,0,0.3-0.1,0.3-0.3v-5.3c0-0.2-0.1-0.3-0.3-0.3h-0.9c-0.2,0-0.3,0.1-0.3,0.3v3.1
			c0,0.4-0.1,0.8-0.4,1c-0.2,0.2-0.5,0.3-0.9,0.3c-0.5,0-1.1-0.2-1.1-1.4v-3c0-0.2-0.1-0.3-0.3-0.3h-0.9c-0.2,0-0.3,0.1-0.3,0.3v3.2
			c0,2.1,1.3,2.6,2.4,2.6c0.6,0,1.1-0.2,1.5-0.5l0,0C76.9,19.2,77,19.3,77.2,19.3z"/>
		<path class="st1" d="M81.6,14.7c0.1,0,0.2-0.1,0.3-0.1c0.1,0,0.3,0,0.4,0c0.5,0,0.8,0.1,1.1,0.4c0.1,0.1,0.2,0.1,0.3,0.1
			c0.1,0,0.2-0.1,0.2-0.2l0.5-0.7c0-0.1-0.1-0.2-0.2-0.3c-0.7-0.4-2-0.6-2.8-0.4c-0.3,0.1-0.6,0.2-0.8,0.3c-0.3,0.2-0.5,0.4-0.6,0.6
			c-0.2,0.2-0.2,0.5-0.2,0.8c0,0.2,0,0.5,0.1,0.7c0.1,0.2,0.2,0.4,0.4,0.5c0.2,0.1,0.4,0.3,0.6,0.4s0.5,0.2,0.7,0.3
			c0.2,0.1,0.4,0.1,0.5,0.2s0.3,0.1,0.4,0.2s0.2,0.1,0.2,0.2s0.1,0.1,0.1,0.2s0,0.5-0.9,0.5c-0.6,0-1.1-0.2-1.6-0.5
			c-0.1-0.1-0.2-0.1-0.4,0c-0.1,0.1-0.2,0.2-0.2,0.3v0.9c0,0.1,0.1,0.2,0.2,0.3c0.5,0.2,1.1,0.4,1.8,0.4c0.3,0,0.7,0,1-0.1
			s0.6-0.2,0.9-0.3c0.3-0.2,0.5-0.4,0.6-0.6c0.2-0.2,0.2-0.5,0.2-0.8s-0.1-0.5-0.2-0.7s-0.2-0.4-0.4-0.5c-0.2-0.1-0.4-0.3-0.6-0.4
			s-0.5-0.2-0.8-0.3C82.2,16,82,16,81.9,15.9c-0.1,0-0.2-0.1-0.3-0.2c-0.1,0-0.1-0.1-0.2-0.2c0-0.1,0-0.1,0-0.2c0-0.1,0-0.1,0-0.2
			C81.4,14.7,81.5,14.7,81.6,14.7z"/>
		<path class="st1" d="M85.1,5.6c-0.4-0.4-1-0.4-1.4-0.1l0,0c-0.4,0.4-0.5,1-0.1,1.4c2.6,3,4,7.1,3.2,11.5
			c-1,5.8-5.6,10.4-11.4,11.4c-9.2,1.5-17.1-6-16.3-15c0.6-6.5,5.7-11.9,12.2-12.6c1.7-0.2,3.4-0.1,5,0.3c0.5,0.1,1.1-0.1,1.2-0.6
			l0,0c0.2-0.6-0.1-1.2-0.7-1.4c-1.9-0.5-3.9-0.6-6-0.3c-7.2,1-12.9,6.8-13.8,14C55.8,24.6,64.6,33.3,75.1,32
			c7.1-0.9,12.9-6.7,13.8-13.8C89.5,13.4,88,8.9,85.1,5.6z"/>
		<path class="st1" d="M78.5,4.7h1.1v1.1c0,0.5,0.4,0.8,0.8,0.8c0.5,0,0.8-0.4,0.8-0.8V4.7h1.1c0.5,0,0.8-0.4,0.8-0.8
			s-0.4-0.8-0.8-0.8h-1.1V2c0-0.5-0.4-0.8-0.8-0.8c-0.5,0-0.8,0.4-0.8,0.8v1.1h-1.1c-0.5,0-0.8,0.4-0.8,0.8S78.1,4.7,78.5,4.7z"/>
	</g>
</g>
</svg>
