<?xml version="1.0" encoding="utf-8"?>
<!-- Generator: Adobe Illustrator 21.0.0, SVG Export Plug-In . SVG Version: 6.00 Build 0)  -->
<svg version="1.1" id="Слой_1" xmlns="http://www.w3.org/2000/svg" xmlns:xlink="http://www.w3.org/1999/xlink" x="0px" y="0px"
	 viewBox="0 0 93.2 17.4" style="enable-background:new 0 0 93.2 17.4;" xml:space="preserve">
<style type="text/css">
	.st0{fill:#FF4933;}
	.st1{fill:#FECE0B;}
</style>
<g>
	<path class="st0" d="M0,17L1.6,0h5.9c5.9,0,8.6,2.8,8.1,8.3c-0.2,2.6-1.2,4.7-3,6.3C10.9,16.2,8.6,17,6,17H0z M5,3.1L4,13.8h1.8
		c1.6,0,2.9-0.5,3.9-1.5s1.6-2.3,1.8-4.1c0.1-1.6-0.2-2.9-1-3.8C9.7,3.5,8.4,3,6.8,3H5V3.1z"/>
	<path class="st0" d="M20.2,3.7c-0.6,0-1.1-0.2-1.5-0.5s-0.5-0.8-0.5-1.3c0.1-0.5,0.3-1,0.7-1.3s0.9-0.5,1.6-0.5
		c0.6,0,1.1,0.2,1.5,0.5s0.5,0.8,0.5,1.3c-0.1,0.5-0.3,1-0.7,1.3S20.9,3.7,20.2,3.7z M20.8,17h-3.6l1.1-11.4h3.6L20.8,17z"/>
	<path class="st0" d="M35.2,17h-3.6l0.6-6.4c0.2-1.8-0.4-2.7-1.7-2.7c-0.6,0-1.2,0.2-1.6,0.7c-0.5,0.5-0.7,1.1-0.8,1.8l-0.6,6.5
		h-3.6L25,5.5h3.6l-0.2,1.8l0,0c1-1.4,2.3-2.1,4-2.1c2.6,0,3.8,1.6,3.5,4.7L35.2,17z"/>
	<path class="st0" d="M48.7,12h-8.2c0,1.7,1,2.5,3.2,2.5c1.4,0,2.6-0.3,3.7-0.9l-0.3,2.5c-1.2,0.6-2.8,0.8-4.6,0.8
		c-2,0-3.6-0.5-4.6-1.5s-1.4-2.5-1.2-4.3c0.2-1.9,1-3.4,2.3-4.5c1.3-1.1,2.9-1.7,4.6-1.7c1.8,0,3.2,0.5,4.1,1.5s1.3,2.3,1.1,4
		L48.7,12z M45.3,9.8c0.2-1.6-0.5-2.5-1.9-2.5c-0.6,0-1.2,0.2-1.7,0.7s-0.8,1.1-1,1.8H45.3z"/>
	<path class="st0" d="M58.7,8.7c-0.4-0.2-0.9-0.3-1.5-0.3c-0.8,0-1.4,0.3-1.9,0.8c-0.5,0.6-0.8,1.3-0.9,2.3L53.9,17h-3.6l1.1-11.4
		H55l-0.3,2.1l0,0c0.7-1.5,1.8-2.3,3.3-2.3c0.4,0,0.7,0,0.9,0.1L58.7,8.7z"/>
	<path class="st0" d="M65.9,17c-2,0-3.5-0.5-4.5-1.6s-1.4-2.5-1.3-4.3c0.2-1.9,0.9-3.4,2.2-4.4c1.3-1.1,2.9-1.6,4.9-1.6
		s3.5,0.5,4.5,1.6s1.4,2.5,1.3,4.2c-0.2,1.9-0.9,3.4-2.2,4.5S67.9,17,65.9,17z M66.8,7.7c-0.9,0-1.6,0.3-2.1,0.9
		c-0.5,0.6-0.9,1.4-1,2.4c-0.2,2.2,0.6,3.3,2.4,3.3c1.7,0,2.7-1.1,2.9-3.4C69.4,8.7,68.6,7.7,66.8,7.7z"/>
	<path class="st1" d="M71.8,17.4c0,0,3.5-1,3.8-7.2C75.8,5.1,81.7,5,83.8,5c0.8,0,2.6,0,2.6,0c3.7,0.1,6.6,2.7,6.8,6.3
		c0,0.1,0,0.3,0,0.4c0,5-5.1,5.6-5.1,5.6L71.8,17.4L71.8,17.4z"/>
	<g>
		<path d="M79.2,13.9c-0.2,0-0.4-0.1-0.5-0.2s-0.2-0.3-0.2-0.5s0.1-0.4,0.2-0.5s0.3-0.2,0.5-0.2s0.4,0.1,0.5,0.2s0.2,0.3,0.2,0.5
			s-0.1,0.4-0.2,0.5C79.6,13.9,79.4,13.9,79.2,13.9z"/>
		<path d="M80.6,12.2v-2.1c0-0.2,0.1-0.3,0.2-0.5s0.3-0.2,0.4-0.2c0.2,0,0.3,0.1,0.4,0.2s0.2,0.3,0.2,0.5v2.1c0,0.2,0.1,0.4,0.2,0.6
			s0.3,0.2,0.6,0.2s0.4-0.1,0.6-0.2c0.1-0.1,0.2-0.3,0.2-0.6v-2.1c0-0.2,0.1-0.3,0.2-0.5c0.1-0.1,0.3-0.2,0.4-0.2
			c0.2,0,0.3,0.1,0.4,0.2s0.2,0.3,0.2,0.5v2.1c0,0.6-0.2,1-0.6,1.3c-0.3,0.3-0.8,0.4-1.4,0.4s-1-0.1-1.4-0.4
			C80.8,13.2,80.6,12.8,80.6,12.2z"/>
		<path d="M89.3,10.2v2.9c0,0.4-0.1,0.6-0.2,0.7s-0.2,0.1-0.3,0.1c-0.3,0-0.5-0.2-0.6-0.5c-0.3,0.4-0.7,0.6-1.1,0.6
			s-0.8-0.1-1.1-0.4c-0.3-0.2-0.5-0.6-0.7-1c-0.1-0.3-0.1-0.6-0.1-0.9c0-0.6,0.2-1.1,0.5-1.6c0.4-0.5,0.9-0.7,1.4-0.7
			s0.9,0.2,1.1,0.5c0-0.1,0.1-0.3,0.2-0.4s0.2-0.1,0.4-0.1c0.2,0,0.4,0.1,0.5,0.3C89.3,9.8,89.3,9.9,89.3,10.2z M86.2,11.6
			c0,0.3,0.1,0.6,0.2,0.8c0.2,0.3,0.4,0.4,0.7,0.4c0.3,0,0.5-0.1,0.7-0.4c0.2-0.2,0.2-0.5,0.2-0.8c0-0.5-0.2-0.9-0.5-1.1
			c-0.1-0.1-0.2-0.1-0.4-0.1c-0.3,0-0.5,0.1-0.7,0.4C86.3,11,86.2,11.3,86.2,11.6z"/>
	</g>
</g>
</svg>
