<?xml version="1.0" encoding="utf-8"?>
<!-- Generator: Adobe Illustrator 21.0.0, SVG Export Plug-In . SVG Version: 6.00 Build 0)  -->
<svg version="1.1" id="Слой_1" xmlns="http://www.w3.org/2000/svg" xmlns:xlink="http://www.w3.org/1999/xlink" x="0px" y="0px"
	 viewBox="0 0 100.6 25.7" style="enable-background:new 0 0 100.6 25.7;" xml:space="preserve">
<style type="text/css">
	.st0{fill:#F2A906;}
</style>
<g>
	<g>
		<path class="st0" d="M39.2,0c0.5,0,1,0.1,1.4,0.4c-0.1,0.4-0.4,0.8-0.7,1.1c-1.3,1-2.7,1.9-4.1,2.7c-0.8,0.4-1.5,0.9-2.3,1.2
			c0-0.4,0.1-0.8,0.5-1c1.6-0.9,3.3-1.8,4.8-3c0.4-0.3,0.7-0.6,0.9-1L39.2,0z"/>
		<path class="st0" d="M38.1,0.3c0.3,0.1,0.5,0.1,0.8,0.2c-0.5,0.9-1.5,1.4-2.3,1.9c-1.9,1.1-3.8,2.2-5.8,3.2c0.1-0.4,0.3-0.8,0.7-1
			c2-1.2,4.1-2.1,5.9-3.4C37.7,1,38,0.7,38.1,0.3z"/>
		<path class="st0" d="M33.5,2.4c1-0.6,2-1,2.8-1.8H37c-0.5,0.7-1.3,1.1-2.1,1.6c-1,0.6-2.1,1.2-3.2,1.6C32,3.1,32.8,2.8,33.5,2.4z"
			/>
		<path class="st0" d="M42.9,0.4c0.5,0.2,1.3,0.2,1.2,0.9S43.4,2.6,42.9,3c-1.8,1.5-3.8,2.7-5.8,3.9c-0.3,0.1-0.5,0.3-0.9,0.3
			c-0.4-0.2-0.4-0.8,0-1c1.9-1.2,4-2.2,5.7-3.7C42.5,2.1,43.3,1.3,42.9,0.4L42.9,0.4z"/>
		<path class="st0" d="M46.2,1.1c0.6,0.3,1.4,0.7,1.6,1.4c0.2,0.8-0.4,1.6-0.9,2.2C45.7,6,44.2,7,42.7,8c-0.5,0.4-1.2-0.2-1.1-0.8
			C41.8,7,42,6.8,42.3,6.6C43.5,5.8,44.6,5,45.6,4c0.5-0.5,1-1.1,1.1-1.8C46.8,1.8,46.4,1.4,46.2,1.1z"/>
		<path class="st0" d="M39.3,2.6c0.3-0.2,0.5-0.3,0.8-0.5c0.3,0,0.5,0.3,0.7,0.5c-2.5,2-5.3,3.3-8,4.9C31.9,8,31,8.5,30.1,9
			c0-0.3-0.1-0.8,0.2-1c0.3-0.3,0.7-0.5,1.1-0.7C34.1,5.8,36.8,4.3,39.3,2.6z"/>
		<path class="st0" d="M44.6,2.2c0.5-0.4,1.3,0.4,0.9,0.9c-0.4,0.8-1.2,1.3-1.8,1.8c-2.6,1.9-5.4,3.5-8.1,5.1
			c-0.4,0.2-0.8,0.5-1.3,0.6c-0.7-0.3-0.3-1.2,0.3-1.4c2.7-1.6,5.5-3.1,8-5C43.3,3.6,44,3,44.6,2.2z"/>
		<path class="st0" d="M48.4,2c0.4,0.5,1,0.9,1.1,1.6c0.2,1.1-0.6,2.1-1.4,2.9c-1.7,1.7-3.8,3.1-5.9,4.4c-0.7,0.4-1.4-0.9-0.7-1.2
			c1.8-1.2,3.7-2.4,5.3-3.9c0.7-0.6,1.3-1.3,1.6-2.2C48.7,3,48.5,2.5,48.4,2L48.4,2z"/>
		<path class="st0" d="M49.9,3.4c0.4,0.5,1,0.9,1.1,1.6c0.1,0.9-0.5,1.8-1.1,2.4c-1.1,1.2-2.4,2.2-3.7,3.1
			c-3.5,2.5-7.1,4.6-10.8,6.8c-0.3,0.2-0.7,0.4-1.1,0.2c-0.3-0.2-0.4-0.6-0.3-1c0.4-0.3,0.8-0.6,1.2-0.8c3.2-1.9,6.4-3.8,9.6-5.9
			c1.5-1.1,3.1-2.1,4.3-3.6C49.8,5.5,50.3,4.4,49.9,3.4L49.9,3.4z"/>
		<path class="st0" d="M51.3,6.5c0.2-0.5,0.2-1,0.1-1.6c0.4,0.5,0.9,1,0.8,1.7c0,1.3-0.9,2.4-1.8,3.3c-2.3,2.2-5,3.8-7.7,5.5
			c-0.3,0.2-0.7,0.5-1.2,0.4c-0.5-0.2-0.6-1-0.1-1.3c2.5-1.6,5-3.1,7.3-5C49.7,8.7,50.8,7.8,51.3,6.5L51.3,6.5z"/>
		<path class="st0" d="M29.6,6.4c0.1-0.6,0.3-1.1,0.8-1.4c0,0.3-0.1,0.6-0.1,0.9C30.2,6.1,29.9,6.2,29.6,6.4z"/>
		<path class="st0" d="M51.7,9.6c0.6-0.7,1-1.6,1.1-2.5c0.5,1,0.4,2.1-0.2,3c-1.2,1.9-3.1,3.2-4.9,4.5c-0.7,0.4-1.3,0.9-2,1.3
			c-0.4,0.2-0.9-0.1-0.8-0.5c0-0.4,0.3-0.6,0.6-0.8C47.8,13.2,50,11.7,51.7,9.6L51.7,9.6z"/>
		<path class="st0" d="M40.5,7.8c0.6-0.4,1.2,0.7,0.6,1C40.5,9.4,39.8,8.2,40.5,7.8z"/>
		<path class="st0" d="M28.3,10.3c-0.2-0.7,0.1-1.4,0.8-1.7C29.2,9.3,29,10,28.3,10.3z"/>
		<path class="st0" d="M32.7,10.3c0.4-0.2,0.6,0.3,0.6,0.6c0,0.7-0.8,0.9-1.2,1.2c-0.4,0.2-0.6-0.3-0.6-0.6
			C31.5,10.8,32.2,10.5,32.7,10.3z"/>
		<path class="st0" d="M30.2,13.2c-0.8-0.3-0.4-1.6,0.4-1.7C31,12.1,31,13,30.2,13.2z"/>
		<path class="st0" d="M54.4,11.6c0.5,1-0.1,2.2-0.8,3c-1.6,2-3.9,3.4-6,4.8c-0.8,0.5-1.6,1.1-2.5,1.4c-0.5,0.1-0.9-0.7-0.4-1
			c1.9-1.2,3.8-2.3,5.6-3.6C51.9,15,53.6,13.6,54.4,11.6z"/>
		<path class="st0" d="M28,14.8c-0.3-0.6-0.4-1.4,0.2-1.8C28.5,13.6,28.6,14.4,28,14.8z"/>
		<path class="st0" d="M50.6,13.5c0.4-0.3,0.7,0.1,0.8,0.5c0.2,0.5-0.3,0.9-0.7,1.2c-3.3,2.5-7,4.4-10.5,6.6c-0.3,0.2-0.6,0.4-1,0.4
			c-0.5,0-0.9-0.9-0.3-1.2C42.8,18.6,47,16.5,50.6,13.5z"/>
		<path class="st0" d="M51.3,17.5c0.9-0.7,1.6-1.5,2.4-2.2c0.1,0.3,0.3,0.7,0,1c-0.8,1-1.7,1.9-2.7,2.7
			C50.7,18.5,50.8,17.8,51.3,17.5L51.3,17.5z"/>
		<path class="st0" d="M53,18c0.5-0.5,0.8-1.1,1.3-1.6c0,0.9-0.5,1.7-1.1,2.4c-1.1,1.2-2.4,2.3-3.7,3.1c0-0.4-0.1-0.8,0.3-1.1
			C50.8,19.9,52,19.1,53,18z"/>
		<path class="st0" d="M32.3,17.4c0.4-0.3,1,0.1,1.1,0.5c0.3,0.6-0.5,1.3-1.1,0.9C31.8,18.5,31.7,17.6,32.3,17.4z"/>
		<path class="st0" d="M49.6,22.8c1.3-1,2.5-2.1,3.8-3.1c-0.8,1.8-2.4,2.9-3.9,4.1c-0.6,0.4-1.2,1-1.9,0.8
			C48.1,23.7,48.9,23.3,49.6,22.8L49.6,22.8z"/>
		<path class="st0" d="M43.1,20.7c0.5-0.3,1.2,0.2,1,0.8c-0.5,0.4-1,0.7-1.6,0.9c-0.4,0.1-0.8-0.3-0.8-0.7
			C42,21.2,42.6,21,43.1,20.7z"/>
		<path class="st0" d="M47.9,22.8c-0.1-0.6,0.4-1.5,1-1.1C49,22.3,48.4,22.8,47.9,22.8z"/>
		<path class="st0" d="M40,22.8c-0.1-0.4,0.4-0.5,0.7-0.6c0.3,0.2,0.8,0.4,0.7,0.8C41.1,23.6,40.1,23.4,40,22.8L40,22.8z"/>
		<path class="st0" d="M34.8,23.5c0.4-0.3,0.8-0.6,1.3-0.8c0.5-0.2,1.1,0.4,1,0.9c-0.3,0.4-0.8,0.6-1.2,0.8
			C35.3,24.6,35,24,34.8,23.5z"/>
		<path class="st0" d="M45.9,23.6c0.2-0.4,0.6-0.9,1.2-0.7c0.2,0.5-0.3,1.2-0.8,1.1L45.9,23.6z"/>
		<path class="st0" d="M32.8,24.7c0.6-0.4,1.4,0.3,1.2,0.9C33.5,26,32.7,25.3,32.8,24.7z"/>
	</g>
	<g>
		<path d="M0,9.8c2.6,0,5.2,0,7.8,0c0,0.6,0,1.2,0,1.8H2v12.8H0.1C0,19.6,0,14.7,0,9.8L0,9.8z"/>
		<path d="M12.6,9.9h9v14.5h-2c0-4.2,0-8.5,0-12.7c-1.7,0-3.4,0-5.1,0c-0.1,3.2,0.4,6.5-0.6,9.6c-0.5,1.8-2.1,3.3-4.1,3.1
			c0-0.6,0-1.2,0-1.7c2-0.4,2.6-2.5,2.7-4.2C12.6,15.6,12.5,12.7,12.6,9.9z"/>
	</g>
	<g>
		<path d="M60.9,9.8c2.7,0,5.3,0,8,0v1.8h-6.1v4.2c1.9,0,4-0.3,5.8,0.8c2.1,1.3,2.3,4.6,0.6,6.4c-0.9,0.9-2.1,1.2-3.3,1.3
			c-1.7,0.1-3.3,0-5,0V9.8z M62.8,17.6c0,1.6,0,3.3,0,4.9c1.2,0,2.5,0.1,3.7-0.2c1.1-0.3,1.9-1.3,1.8-2.5c-0.1-1-0.8-1.8-1.7-2
			C65.4,17.6,64.1,17.7,62.8,17.6L62.8,17.6z"/>
		<path d="M78.6,9.8h1.9c2.1,4.8,4.2,9.7,6.3,14.5h-2.1c-0.8-1.7-1.5-3.5-2.3-5.2c-1.9,0-3.8,0-5.7,0c-0.8,1.7-1.5,3.5-2.3,5.2
			c-0.7,0-1.4,0-2.1,0C74.4,19.5,76.5,14.7,78.6,9.8L78.6,9.8z M79.6,12.4c-0.7,1.6-1.4,3.3-2.1,4.9h4.2
			C80.9,15.7,80.3,14.1,79.6,12.4L79.6,12.4z"/>
		<path d="M91.6,9.8h9v14.5h-2V11.6h-5c0,2.2,0.1,4.5,0,6.8c-0.1,1.8-0.5,3.9-2,5.2c-0.7,0.7-1.7,0.8-2.6,0.9c0-0.6,0-1.2,0-1.7
			c0.6-0.3,1.3-0.5,1.8-1.1c0.8-1.1,0.9-2.6,1-4C91.6,15,91.6,12.4,91.6,9.8L91.6,9.8z"/>
	</g>
</g>
</svg>
