<?xml version="1.0" encoding="utf-8"?>
<!-- Generator: Adobe Illustrator 21.0.0, SVG Export Plug-In . SVG Version: 6.00 Build 0)  -->
<svg version="1.1" id="Слой_1" xmlns="http://www.w3.org/2000/svg" xmlns:xlink="http://www.w3.org/1999/xlink" x="0px" y="0px"
	 viewBox="0 0 215.8 32" style="enable-background:new 0 0 215.8 32;" xml:space="preserve">
<style type="text/css">
	.st0{fill:#007B38;}
	.st1{fill:url(#SVGID_1_);}
	.st2{fill:#71BD44;}
	.st3{fill:#F4911E;}
	.st4{fill:url(#SVGID_2_);}
	.st5{fill:#F7A41A;}
	.st6{fill:#38B24A;}
	.st7{fill:#F38120;}
</style>
<g>
	<path class="st0" d="M52.5,14.7c-3.1,0-6,1.2-8.7,2.8c-2.7,1.5-4.9,4-7.7,5.2c-4.5,2-6.2,1.8-10.7,1.3c-0.8-0.1-2.7-0.6-3.5-0.5
		c-0.4,0-3.9-0.7-4.2-0.9c6.4,4.6,6.2,4.5,12.6,9.1C41.4,28.5,42.1,17.8,52.5,14.7L52.5,14.7z"/>
	
		<linearGradient id="SVGID_1_" gradientUnits="userSpaceOnUse" x1="46.8389" y1="-6.3504" x2="46.8629" y2="-6.3959" gradientTransform="matrix(1 0 0 -1 0 34.4199)">
		<stop  offset="0" style="stop-color:#38B24A"/>
		<stop  offset="0.2706" style="stop-color:#009245"/>
		<stop  offset="0.6392" style="stop-color:#38B24A"/>
		<stop  offset="0.8118" style="stop-color:#38B24A"/>
		<stop  offset="1" style="stop-color:#009245"/>
	</linearGradient>
	<path class="st1" d="M17.7,22.5c6.4,4.6,6.3,3.6,12.8,8.2c10.4-3.1,11.6-12.9,22-16c-2.2-0.7-2.5-1-3.7-2c-1.7-1.4-3.5-3.1-5.7-3.2
		c-0.1,0-0.1,0-0.2,0C37.3,9.5,31.2,22.2,17.7,22.5L17.7,22.5z"/>
	<path class="st2" d="M17.7,22.5l12.8,8.2c0,0,4.4,0.5,11.7-8.7c0,0-5.7,7.2-11.3,8.2L17.7,22.5z"/>
	<path class="st3" d="M40.2,17.2c-3.4-1.3-6.8-1.7-9.9-1.7c-3,0-5.6,0.8-8.8,0.5c-5.1-0.5-7-1.3-12.1-3.7c-0.9-0.4-3-1.6-3.9-1.9
		C4.9,10.3,0.3,8.3,0,8.1c7.2,6.1,7.6,5.9,14.7,12C27.2,22.5,27.9,16,40.2,17.2L40.2,17.2z"/>
	
		<linearGradient id="SVGID_2_" gradientUnits="userSpaceOnUse" x1="75.1936" y1="-16.4454" x2="75.2366" y2="-16.475" gradientTransform="matrix(1 0 0 -1 0 34.4199)">
		<stop  offset="0" style="stop-color:#F7A41A"/>
		<stop  offset="0.4392" style="stop-color:#F38120"/>
		<stop  offset="0.7882" style="stop-color:#F7A41A"/>
		<stop  offset="1" style="stop-color:#F38120"/>
	</linearGradient>
	<path class="st4" d="M0.3,8.2v0.1c6.9,5.9,7.5,5.1,14.6,11.2c5.9,1.1,9.3,0,12.6-1.1c3.4-1.1,6.7-2.2,12.6-1.1
		c-2.5-1.4-6.2-5.3-8.6-6.3c-2.7-1.1-6-0.8-10.1-0.5C15.9,10.8,9,11.3,0.3,8.2L0.3,8.2L0.3,8.2z"/>
	<path class="st5" d="M0.3,8.1c6.5,5.5,7.8,5,14.7,10.9c11.8,2.1,13.1-4.2,24.9-2c0,0,0,0,0,0c0.1,0,0.2,0.1,0.2,0.1c0,0,0,0,0,0
		c-11.8-2.1-13.4,4.4-25.3,2.3C7.7,13.3,7.2,14.2,0,8.1C0.1,8.1,0.2,8.1,0.3,8.1L0.3,8.1z"/>
	<path class="st6" d="M205.8,22.9h3.3l-0.2-2.4l-0.3-4.4h-0.2l-1.6,4.5L205.8,22.9L205.8,22.9z M209.7,27.5h-5.8l-1.4,3.5
		c-0.1,0.2-0.2,0.4-0.3,0.5c-0.1,0.1-0.3,0.2-0.7,0.2H197c-0.2,0-0.3-0.1-0.3-0.2c0-0.1,0-0.2,0-0.4l8.4-19c0.4-0.8,0.8-1.3,1.2-1.6
		c0.4-0.2,0.9-0.4,1.6-0.4h2.4c0.3,0,0.6,0,0.9,0c0.3,0,0.5,0.1,0.7,0.2c0.2,0.1,0.4,0.3,0.5,0.6c0.1,0.3,0.2,0.6,0.3,1.1l3.1,19.1
		c0,0.1,0,0.2,0,0.4c0,0.1-0.2,0.2-0.4,0.2H211c-0.2,0-0.4,0-0.6-0.1c-0.2-0.1-0.2-0.2-0.3-0.4L209.7,27.5z M192.2,20.3
		c0.5,0.2,0.9,0.5,1.2,0.7c0.3,0.3,0.5,0.5,0.7,0.8c0.2,0.3,0.3,0.6,0.4,1c0.1,0.3,0.1,0.7,0.2,1.2l1.1,7.1c0,0.1,0,0.2,0,0.4
		c0,0.2-0.2,0.2-0.5,0.2h-4.6c-0.1,0-0.2,0-0.3-0.1c-0.1,0-0.2-0.2-0.2-0.4l-0.8-6.1c-0.1-0.6-0.2-1-0.4-1.4
		c-0.2-0.4-0.4-0.6-0.6-0.8c-0.3-0.2-0.6-0.3-1-0.4c-0.4-0.1-0.8-0.1-1.3-0.1h-1.4l-1.2,8.8c0,0.2-0.1,0.4-0.2,0.4
		c-0.1,0.1-0.2,0.1-0.4,0.1h-4.6c-0.2,0-0.3,0-0.4-0.1c-0.1-0.1-0.1-0.2-0.1-0.4l2.8-20.5c0-0.2,0.1-0.4,0.2-0.4
		c0.1-0.1,0.2-0.1,0.4-0.1h4.6c0.2,0,0.3,0,0.4,0.1c0.1,0.1,0.1,0.2,0,0.4l-1.1,7.6h1.8c0.2,0,0.5,0,0.7-0.1
		c0.2-0.1,0.5-0.2,0.7-0.4c0.2-0.2,0.5-0.4,0.7-0.8c0.2-0.3,0.5-0.8,0.7-1.3l2.1-5.2c0.1-0.2,0.2-0.3,0.3-0.4c0.1,0,0.2-0.1,0.3-0.1
		h4.7c0.2,0,0.4,0.1,0.4,0.2c0,0.2,0,0.3,0,0.4l-2.2,5.5c-0.3,0.9-0.7,1.6-1.3,2.3c-0.5,0.7-1.1,1.2-1.8,1.6V20.3L192.2,20.3z
		 M174.4,31.6c-0.1,0.1-0.3,0.1-0.6,0.1h-4.2c-0.5,0-0.7-0.2-0.6-0.6l0.9-6.2c-0.6,0.1-1.2,0.1-1.8,0.2c-0.5,0-1.1,0.1-1.5,0.1
		c-1.6,0-2.9-0.2-3.9-0.6c-1-0.4-1.7-1-2.2-1.7c-0.5-0.7-0.8-1.6-0.9-2.6c-0.1-1-0.1-2.1,0.1-3.2l0.8-6.1c0-0.2,0.1-0.4,0.2-0.5
		c0.1-0.1,0.3-0.2,0.5-0.2h4.2c0.3,0,0.5,0,0.6,0.1c0.1,0.1,0.1,0.3,0,0.5l-0.8,5.5c-0.1,0.7-0.1,1.2-0.1,1.7
		c0.1,0.5,0.2,0.8,0.4,1.1c0.2,0.3,0.6,0.5,1,0.6c0.4,0.1,1,0.2,1.6,0.2c0.3,0,0.7,0,1.1,0c0.4,0,0.8-0.1,1.3-0.2l1.2-8.8
		c0.1-0.4,0.3-0.6,0.8-0.6l4.2,0c0.3,0,0.5,0,0.6,0.1c0.1,0.1,0.1,0.3,0,0.5l-2.8,20.2C174.5,31.3,174.5,31.5,174.4,31.6L174.4,31.6
		L174.4,31.6z M148.9,15c-0.7,0-1.4,0.2-1.9,0.7c-0.5,0.5-1,1.1-1.4,1.9c-0.4,0.8-0.6,1.6-0.8,2.6c-0.2,1-0.3,1.9-0.3,2.9
		c0,1.2,0.2,2.1,0.7,2.8c0.4,0.7,1.2,1,2.2,1c0.7,0,1.4-0.2,1.9-0.7c0.5-0.5,1-1.1,1.3-1.8c0.4-0.8,0.6-1.6,0.8-2.5
		c0.2-0.9,0.2-1.9,0.2-2.8c0-0.6,0-1.1-0.1-1.6c-0.1-0.5-0.2-0.9-0.5-1.2c-0.2-0.3-0.5-0.6-0.8-0.8C149.9,15.1,149.4,15,148.9,15
		L148.9,15z M149.4,9.8c1.4,0,2.6,0.2,3.6,0.6c1,0.4,1.9,1,2.5,1.8c0.7,0.8,1.2,1.7,1.5,2.8c0.3,1.1,0.5,2.3,0.5,3.6
		c0,2-0.2,3.8-0.7,5.5c-0.5,1.6-1.1,3.1-2,4.3c-0.9,1.2-2,2.1-3.4,2.8c-1.3,0.7-2.9,1-4.7,1c-1.4,0-2.6-0.2-3.6-0.6
		c-1-0.4-1.8-1-2.5-1.7c-0.7-0.7-1.1-1.7-1.4-2.8c-0.3-1.1-0.5-2.3-0.5-3.7c0-2,0.2-3.8,0.7-5.5c0.5-1.7,1.2-3.1,2.1-4.3
		c0.9-1.2,2-2.1,3.4-2.7C146.3,10.2,147.8,9.8,149.4,9.8L149.4,9.8L149.4,9.8z M126.1,18.1h3.1c0.2,0,0.4,0,0.6-0.1
		c0.2-0.1,0.4-0.1,0.6-0.3c0.2-0.1,0.3-0.3,0.4-0.6c0.1-0.2,0.2-0.5,0.2-0.9c0-0.4-0.1-0.7-0.3-0.9c-0.2-0.2-0.5-0.3-0.9-0.3l-3.2,0
		L126.1,18.1L126.1,18.1z M124.9,26.7h3.5c0.4,0,0.8-0.1,1.1-0.2c0.3-0.2,0.5-0.4,0.7-0.6c0.2-0.2,0.3-0.5,0.4-0.8
		c0.1-0.3,0.1-0.5,0.1-0.8c0-0.5-0.1-0.9-0.4-1.2c-0.3-0.3-0.7-0.5-1.3-0.5h-3.5L124.9,26.7z M130.8,10.2c0.8,0,1.6,0.1,2.3,0.2
		c0.7,0.2,1.4,0.4,1.9,0.8c0.5,0.4,1,0.9,1.3,1.5c0.3,0.6,0.5,1.3,0.5,2.2c0,1.3-0.3,2.3-0.8,3c-0.5,0.8-1.2,1.4-2,1.8l0,0.2
		c0.9,0.4,1.5,1,1.9,1.9s0.5,1.7,0.5,2.5c0,1-0.2,2-0.6,2.9c-0.4,0.9-1,1.7-1.7,2.3c-0.7,0.7-1.6,1.2-2.6,1.6
		c-1,0.4-2.1,0.6-3.2,0.6l-7.6,0c-0.8,0-1.3-0.2-1.5-0.5c-0.2-0.3-0.2-0.8-0.1-1.6l2.4-17.5c0.1-0.7,0.3-1.2,0.5-1.5
		c0.3-0.3,0.8-0.5,1.6-0.5H130.8L130.8,10.2z M115,31.6c-0.1,0.1-0.3,0.1-0.6,0.1h-4.1c-0.5,0-0.7-0.2-0.6-0.6l2.8-20.2
		c0.1-0.4,0.3-0.6,0.8-0.6h4.1c0.3,0,0.5,0,0.6,0.1c0.1,0.1,0.1,0.3,0,0.5l-2.8,20.2C115.1,31.3,115,31.5,115,31.6L115,31.6
		L115,31.6z M108.9,15.1h-5l-2.2,16c0,0.2-0.1,0.4-0.2,0.5c-0.1,0.1-0.3,0.1-0.6,0.1l-4.2,0c-0.5,0-0.7-0.2-0.6-0.6l2.2-16h-4.9
		c-0.4,0-0.6-0.2-0.5-0.7l0.5-3.4c0-0.3,0.1-0.6,0.2-0.6c0.1-0.1,0.3-0.1,0.5-0.1h15.4c0.2,0,0.4,0,0.5,0.1c0.1,0.1,0.1,0.3,0.1,0.6
		l-0.5,3.4C109.5,14.8,109.3,15.1,108.9,15.1L108.9,15.1L108.9,15.1z M82.8,15c-0.7,0-1.4,0.2-1.9,0.7c-0.5,0.5-1,1.1-1.4,1.9
		c-0.4,0.8-0.6,1.6-0.8,2.6c-0.2,1-0.3,1.9-0.3,2.9c0,1.2,0.2,2.1,0.7,2.8c0.4,0.7,1.2,1,2.2,1c0.7,0,1.4-0.2,1.9-0.7
		c0.5-0.5,1-1.1,1.3-1.8c0.4-0.8,0.6-1.6,0.8-2.5c0.2-0.9,0.2-1.9,0.2-2.8c0-0.6,0-1.1-0.1-1.6c-0.1-0.5-0.2-0.9-0.5-1.2
		c-0.2-0.3-0.5-0.6-0.8-0.8C83.8,15.1,83.4,15,82.8,15L82.8,15L82.8,15z M83.3,9.8c1.4,0,2.6,0.2,3.6,0.6c1,0.4,1.9,1,2.5,1.8
		c0.7,0.8,1.2,1.7,1.5,2.8c0.3,1.1,0.5,2.3,0.5,3.6c0,2-0.2,3.8-0.7,5.5c-0.5,1.6-1.1,3.1-2,4.3c-0.9,1.2-2,2.1-3.4,2.8
		c-1.3,0.7-2.9,1-4.7,1c-1.4,0-2.6-0.2-3.6-0.6c-1-0.4-1.8-1-2.5-1.7c-0.7-0.7-1.1-1.7-1.4-2.8c-0.3-1.1-0.5-2.3-0.5-3.7
		c0-2,0.2-3.8,0.7-5.5c0.5-1.7,1.2-3.1,2.1-4.3c0.9-1.2,2-2.1,3.4-2.7C80.2,10.2,81.7,9.8,83.3,9.8L83.3,9.8L83.3,9.8z M61.2,31.1
		c0,0.2-0.1,0.4-0.2,0.5c-0.1,0.1-0.3,0.1-0.6,0.1h-4.2c-0.5,0-0.7-0.2-0.6-0.6L57.8,16c0.1-0.7,0.3-1.5,0.6-2.2
		c0.3-0.7,0.7-1.3,1.2-1.9c0.5-0.5,1.1-1,1.9-1.3c0.7-0.3,1.6-0.5,2.6-0.5l9,0c0.2,0,0.4,0,0.4,0.1c0.1,0.1,0.1,0.3,0,0.6L73,14.4
		c0,0.3-0.1,0.4-0.2,0.5c-0.1,0.1-0.2,0.1-0.4,0.1h-7.2c-0.4,0-0.7,0.1-0.9,0.2c-0.3,0.1-0.5,0.3-0.6,0.4c-0.1,0.2-0.2,0.3-0.3,0.6
		c-0.1,0.2-0.1,0.4-0.1,0.6L61.2,31.1L61.2,31.1z"/>
	<path class="st7" d="M62.4,3.1h1.9c0.1,0,0.3,0,0.4-0.1C65,3,65.1,3,65.2,2.9c0.1-0.1,0.3-0.2,0.4-0.4c0.1-0.2,0.2-0.4,0.2-0.7
		c0-0.3-0.1-0.5-0.3-0.6c-0.2-0.2-0.4-0.2-0.8-0.2h-2L62.4,3.1z M62.3,4l-0.4,2.9h2c0.4,0,0.6-0.1,0.9-0.2c0.2-0.1,0.4-0.3,0.5-0.4
		c0.1-0.2,0.2-0.4,0.3-0.6c0-0.2,0.1-0.4,0.1-0.5c0-0.4-0.1-0.6-0.3-0.9c-0.2-0.2-0.6-0.3-1-0.3H62.3L62.3,4z M61.4,7.8
		c-0.2,0-0.3,0-0.4-0.1c-0.1-0.1-0.1-0.2-0.1-0.4l0.9-6.7c0-0.2,0.1-0.3,0.2-0.4C62.1,0.1,62.2,0,62.4,0l2.5,0c0.3,0,0.5,0,0.8,0.1
		c0.2,0.1,0.4,0.2,0.6,0.3c0.2,0.1,0.3,0.3,0.4,0.5c0.1,0.2,0.1,0.5,0.1,0.8c0,0.2,0,0.3-0.1,0.5c0,0.2-0.1,0.3-0.2,0.5
		c-0.1,0.2-0.2,0.3-0.4,0.4c-0.2,0.1-0.3,0.2-0.6,0.3l0,0.1c0.4,0.1,0.7,0.4,0.8,0.7c0.2,0.3,0.2,0.6,0.2,1c0,0.4-0.1,0.8-0.2,1.1
		c-0.1,0.3-0.3,0.6-0.6,0.8c-0.2,0.2-0.5,0.4-0.9,0.5c-0.3,0.1-0.7,0.2-1.1,0.2H61.4L61.4,7.8z"/>
	<path class="st7" d="M71.4,2.8l-0.3-1.6h-0.1l-0.7,1.6l-1.1,2.4h2.5L71.4,2.8L71.4,2.8z M72.5,7.8c-0.1,0-0.1,0-0.2,0
		c0,0-0.1-0.1-0.1-0.1L72,6h-3l-0.8,1.6c0,0.1-0.1,0.1-0.1,0.1c0,0-0.1,0-0.1,0h-0.8c-0.1,0-0.1,0-0.1-0.1c0,0,0-0.1,0-0.1l3.4-7.2
		c0.1-0.2,0.2-0.3,0.2-0.4C70.8,0,70.9,0,71.1,0h0.3c0.2,0,0.3,0,0.4,0.1c0.1,0.1,0.1,0.2,0.1,0.3l1.4,7.2c0,0.1,0,0.1,0,0.1
		c0,0-0.1,0.1-0.1,0.1H72.5z"/>
	<path class="st7" d="M84,0.2c0,0.1,0,0.3-0.1,0.7c-0.1,0.3-0.1,0.8-0.2,1.2c-0.1,0.5-0.1,1-0.2,1.6c-0.1,0.6-0.2,1.1-0.2,1.6
		c-0.1,0.5-0.1,0.9-0.2,1.3C83.1,6.8,83,7,83,7.1c0,0.2-0.1,0.4-0.2,0.5c-0.1,0.1-0.3,0.2-0.4,0.2l-7.5,0c-0.2,0-0.3-0.1-0.4-0.2
		c-0.1-0.1-0.1-0.3-0.1-0.5l1-6.9c0-0.1,0-0.1,0.1-0.1c0,0,0.1,0,0.1,0h0.7c0.1,0,0.1,0,0.1,0c0,0,0,0.1,0,0.1l-0.9,6.7h2.9l0.9-6.7
		c0-0.1,0-0.1,0.1-0.1c0,0,0.1,0,0.1,0H80c0.1,0,0.1,0,0.1,0c0,0,0,0.1,0,0.1l-0.9,6.7h2.8L83,0.2c0-0.1,0-0.1,0.1-0.1
		c0,0,0.1,0,0.1,0h0.6c0.1,0,0.1,0,0.1,0C84,0.1,84,0.1,84,0.2L84,0.2z"/>
	<path class="st7" d="M88.3,2.8L88,1.2H88l-0.7,1.6l-1.1,2.4h2.5L88.3,2.8L88.3,2.8z M89.4,7.8c-0.1,0-0.1,0-0.2,0
		c0,0-0.1-0.1-0.1-0.1L88.8,6h-3l-0.8,1.6C85,7.7,85,7.7,85,7.8c0,0-0.1,0-0.1,0H84c-0.1,0-0.1,0-0.1-0.1c0,0,0-0.1,0-0.1l3.4-7.2
		c0.1-0.2,0.2-0.3,0.2-0.4C87.6,0,87.8,0,87.9,0h0.3c0.2,0,0.3,0,0.4,0.1c0.1,0.1,0.1,0.2,0.1,0.3l1.4,7.2c0,0.1,0,0.1,0,0.1
		c0,0-0.1,0.1-0.1,0.1H89.4L89.4,7.8z"/>
</g>
</svg>
