<?xml version="1.0" encoding="utf-8"?>
<!-- Generator: Adobe Illustrator 21.0.0, SVG Export Plug-In . SVG Version: 6.00 Build 0)  -->
<svg version="1.1" id="Слой_1" xmlns="http://www.w3.org/2000/svg" xmlns:xlink="http://www.w3.org/1999/xlink" x="0px" y="0px"
	 viewBox="0 0 108 47.8" style="enable-background:new 0 0 108 47.8;" xml:space="preserve">
<style type="text/css">
	.st0{fill:#1B8648;}
	.st1{fill:#FED921;}
</style>
<g>
	<g>
		<path class="st0" d="M33.1,2.3c0,0-1.6,5.7-5.8,7.1c-4.1,1.4-9.3-2-9.3-2s1.6-5.7,5.8-7.1S33.1,2.3,33.1,2.3z"/>
		<g>
			<path class="st1" d="M7,40.8c-0.6-1.7-1-3.7-1-5.9c0-2.3,0.4-4.5,1.2-6.5c0.8-2,1.9-3.7,3.2-5.1c1.4-1.4,3-2.5,4.8-3.3
				c1.9-0.8,3.8-1.2,5.9-1.2c0.8,0,1.6,0,2.4,0.1l-4.1-7.5h-2.2c0.1-6.2-4.3-9-4.5-9.1l-0.8,1.4c0.2,0.1,3.9,2.5,3.8,7.7h-2.3
				L0,35.6l4.8,12.2h8.5c-1.4-0.6-2.6-1.5-3.6-2.5C8.5,44,7.6,42.5,7,40.8z"/>
			<path class="st1" d="M26.2,23.8c-0.9-0.4-1.8-0.7-2.7-1c-0.9-0.2-1.8-0.3-2.8-0.3c-1.4,0-2.7,0.3-3.8,0.8
				c-1.1,0.5-2.1,1.3-2.9,2.2c-0.8,0.9-1.2,1.1-1.6,2.4c-0.5,1.3-0.7,2.6-0.8,4.1h13.3l2,3.7l-15.2,0.2c0.1,1.5,0.3,1.8,0.8,3.1
				c0.5,1.3,1.2,2.4,2.1,3.4s2,1.7,3.3,2.3c1.3,0.5,2.8,0.8,4.5,0.8c1.5,0,2.9-0.2,4.2-0.7c0.8-0.3,1.5-0.6,2.2-0.9l3.8-8.3
				L26.2,23.8z"/>
			<path class="st1" d="M27,47.8L27,47.8L27,47.8z"/>
		</g>
	</g>
	<g>
		<path class="st0" d="M41,38.7V26.9h8v1.7h-6.2v10H41V38.7z"/>
		<rect x="106.1" y="26.8" class="st0" width="1.9" height="12"/>
		<g>
			<path class="st0" d="M73.9,39.7c-1.1,0-2.1-0.2-3-0.5s-1.6-0.8-2.3-1.4c-0.6-0.6-1.1-1.3-1.4-2.1c-0.3-0.8-0.5-1.7-0.5-2.7
				c0-1.1,0.2-2.1,0.5-2.9c0.3-0.9,0.8-1.6,1.5-2.2c0.6-0.6,1.4-1.1,2.3-1.4s1.9-0.5,3.1-0.5c1.1,0,2.1,0.2,2.9,0.5
				c0.9,0.3,1.6,0.8,2.2,1.3c0.6,0.6,1.1,1.3,1.4,2.1c0.3,0.8,0.5,1.8,0.5,2.9c0,1-0.2,2-0.5,2.8s-0.8,1.6-1.4,2.2s-1.4,1.1-2.3,1.4
				C76,39.5,75,39.7,73.9,39.7z M74,27.4c-0.8,0-1.6,0.1-2.2,0.4c-0.7,0.2-1.2,0.6-1.7,1.1S69.3,30,69,30.6
				c-0.3,0.7-0.4,1.5-0.4,2.3s0.1,1.6,0.4,2.2c0.3,0.7,0.6,1.2,1.1,1.7s1,0.8,1.7,1.1c0.7,0.3,1.4,0.4,2.2,0.4
				c0.8,0,1.6-0.1,2.2-0.4c0.6-0.2,1.2-0.6,1.6-1.1s0.8-1,1-1.7s0.3-1.4,0.3-2.3c0-1.8-0.4-3.1-1.3-4C76.9,27.9,75.7,27.4,74,27.4z"
				/>
		</g>
		<g>
			<path class="st0" d="M60.2,26.9h-6h-1.7v1.6v5.6v1.6v3.1h1.7v-3.1h6c2.4,0,4.4-1.9,4.4-4.4v-0.1C64.5,28.8,62.6,26.9,60.2,26.9z
				 M62.9,31.3c0,1.5-1.2,2.8-2.8,2.8h-6v-5.6h6C61.7,28.5,62.9,29.7,62.9,31.3L62.9,31.3z"/>
		</g>
		<polygon class="st0" points="99.5,27 99.5,36.7 93.8,36.7 93.8,27 91.9,27 91.9,36.7 86.4,36.7 86.4,27 84.5,27 84.5,36.7 
			84.5,38.6 86.4,38.6 86.4,38.6 91.9,38.6 91.9,38.6 93.8,38.6 93.8,38.6 99.5,38.6 99.5,38.6 101.4,38.6 101.4,38.6 101.4,36.7 
			101.4,27 		"/>
	</g>
</g>
</svg>
