<svg width="120" height="120" viewBox="0 0 120 120" fill="none" xmlns="http://www.w3.org/2000/svg">
<path d="M55.44 88.56C55.2 91.68 57.12 93.6 60 94.32C63.12 95.04 66.24 95.04 69.36 94.56C73.92 93.84 78.48 92.88 82.8 91.92C85.44 91.2 88.08 90.48 90.72 89.52C92.6399 88.8 94.32 87.84 96.2399 87.36C96.9599 87.12 97.92 87.36 98.88 87.6C100.32 87.84 100.32 88.8 100.8 90C101.52 91.2 100.56 91.92 100.56 92.64C100.08 94.56 98.6399 95.52 97.4399 96.48C96.9599 96.96 96.7199 97.44 96.2399 97.92C95.2799 98.64 93.84 99.36 92.88 100.08C91.68 101.28 90 102 88.56 102.96C87.12 103.92 85.2 104.64 83.28 105.12C80.64 105.84 77.76 106.32 75.12 107.04C71.28 108 67.44 107.52 63.84 107.52C60.48 107.28 57.12 106.56 53.76 105.84C50.16 105.12 46.56 104.4 42.96 103.44C41.28 102.96 39.6 102.72 37.92 102.24C36.48 101.76 35.52 102.48 34.56 103.2C34.08 103.68 33.6 104.16 33.12 104.64C32.88 104.88 32.16 105.12 31.92 105.12C31.68 104.88 31.44 104.4 31.44 103.92C31.44 102.72 31.68 101.52 31.68 100.32C31.68 95.52 31.44 90.96 31.44 86.16C31.44 83.76 31.44 81.6 31.44 79.2C31.44 78.72 31.92 78.24 32.4 78C35.52 77.52 38.4 77.04 41.52 76.56C43.44 76.32 45.36 76.08 47.28 75.84C51.12 75.6 54.72 76.56 58.32 77.52C63.6 78.96 68.64 80.64 73.68 82.32C74.64 82.56 75.6 82.8 76.32 83.28C78.24 84.72 77.52 87.84 75.6 88.8C74.4 89.52 72.96 90 71.76 90C69.36 90.24 66.72 90.24 64.32 89.76C61.92 89.52 59.52 88.8 56.88 88.32C56.16 88.32 55.68 88.56 55.44 88.56Z" fill="white"/>
<path d="M75.12 14.1597C58.32 14.1597 44.88 27.8397 44.88 44.3997C44.88 60.9597 58.56 74.6397 75.12 74.6397C91.68 74.6397 105.36 60.9597 105.36 44.3997C105.36 27.8397 91.68 14.1597 75.12 14.1597ZM75.12 69.5997C61.2 69.5997 49.92 58.3197 49.92 44.3997C49.92 30.4797 61.2 19.1997 75.12 19.1997C89.04 19.1997 100.32 30.4797 100.32 44.3997C100.08 58.3197 88.8 69.5997 75.12 69.5997Z" fill="white"/>
<path d="M75.12 22.0806C62.88 22.0806 52.8 32.1606 52.8 44.4006C52.8 56.6406 62.88 66.7206 75.12 66.7206C87.36 66.7206 97.44 56.6406 97.44 44.4006C97.44 32.1606 87.36 22.0806 75.12 22.0806ZM84.24 46.3206C84.96 46.3206 85.68 47.0406 85.68 47.7606C85.68 48.4806 84.96 49.2006 84.24 49.2006H72C71.28 50.4006 70.8 51.8406 71.52 53.7606C72.72 57.3606 77.76 56.6406 80.64 55.4406C82.32 54.4806 84 57.1206 82.08 58.0806C78.48 59.7606 73.2 60.4806 70.32 57.3606C68.16 55.2006 67.92 52.0806 68.88 49.2006H65.76C65.04 49.2006 64.32 48.4806 64.32 47.7606C64.32 47.0406 65.04 46.3206 65.76 46.3206H70.56C70.8 46.0806 71.04 45.8406 71.28 45.6006C72 45.1206 72.72 44.4006 73.2 43.9206H65.52C64.8 43.9206 64.08 43.2006 64.08 42.4806C64.08 41.7606 64.8 40.8006 65.76 40.8006H77.28C78.48 39.6006 79.68 37.9206 79.44 36.2406C79.2 34.5606 78 33.1206 76.56 32.6406C74.4 31.9206 72 32.4006 70.08 33.3606C68.4 34.3206 66.72 31.6806 68.64 30.7206C72.72 28.5606 78.72 28.3206 81.36 32.6406C82.56 34.3206 82.8 36.7206 82.08 38.6406C81.84 39.3606 81.36 40.0806 81.12 40.8006H84.24C84.96 40.8006 85.68 41.5206 85.68 42.2406C85.68 42.9606 84.96 43.6806 84.24 43.6806H78.48C78.24 43.9206 78 43.9206 78 44.1606C77.28 44.8806 76.32 45.3606 75.36 46.0806H84.24V46.3206Z" fill="white"/>
<path d="M25.44 105.36H21.12V78.2402H25.44C27.36 78.2402 29.04 79.9202 29.04 81.8402V102C29.04 103.68 27.36 105.36 25.44 105.36Z" fill="white"/>
<path d="M15.36 105.36H11.52V78H15.36C17.28 78 18.96 79.68 18.96 81.6V101.76C18.96 103.68 17.28 105.36 15.36 105.36Z" fill="white"/>
</svg>
