<?xml version="1.0" encoding="utf-8"?>
<!-- Generator: Adobe Illustrator 21.0.0, SVG Export Plug-In . SVG Version: 6.00 Build 0)  -->
<svg version="1.1" id="Слой_1" xmlns="http://www.w3.org/2000/svg" xmlns:xlink="http://www.w3.org/1999/xlink" x="0px" y="0px"
	 viewBox="0 0 94.7 29.4" style="enable-background:new 0 0 94.7 29.4;" xml:space="preserve">
<style type="text/css">
	.st0{fill:#FFFFFF;}
	.st1{fill:#35AF66;}
	.st2{fill:#EF4848;}
	.st3{fill:#FF8383;}
	.st4{fill:#333333;}
</style>
<g>
	<path class="st0" d="M21.1,23.1v-0.5c-6.6,0-12.7-2.7-17-7.1l-0.4,0.4l-0.4,0.4c4.6,4.6,10.9,7.4,17.9,7.4v-0.6H21.1z"/>
	<path class="st1" d="M3.2,16.2l-2.5,2.5c-0.9,0.9-0.9,2.5,0.1,3.3c1.3,1.2,2.8,2.2,4.3,3.1c2.4,1.4,4.9,2.5,7.6,3.3
		c1.9,0.5,3.9,0.9,5.9,1l0,0c1.3,0.1,2.4-0.9,2.4-2.2v-3.5C14.1,23.7,7.8,20.8,3.2,16.2L3.2,16.2z"/>
	<path class="st2" d="M19.1,0.4L4,15.4c4.4,4.4,10.4,7.1,17,7.1V1.2C21.1,0.1,19.8-0.4,19.1,0.4L19.1,0.4z"/>
	<path class="st3" d="M20.9,0.6l-1.7,21.8c0.6,0,1.2,0.1,1.9,0.1V1.2C21.1,0.9,21,0.7,20.9,0.6z"/>
	<g>
		<path class="st4" d="M42.4,22.5C42.4,22.6,42.4,22.6,42.4,22.5c0,0.1-0.1,0.2-0.2,0.2c-0.1,0-0.2,0-0.3,0.1c-0.1,0-0.3,0-0.4,0
			s-0.3,0-0.4,0c-0.1,0-0.2,0-0.3-0.1c-0.1,0-0.1-0.1-0.1-0.1v-0.1V11.1l0,0l-4.6,11.5L36,22.7c0,0-0.1,0.1-0.2,0.1
			c-0.1,0-0.2,0-0.3,0.1h-0.4c-0.1,0-0.3,0-0.4,0c-0.1,0-0.2,0-0.3-0.1c0.1-0.1,0-0.1,0-0.2l-0.1-0.1L29.9,11v11.4
			c0,0.1,0,0.1,0,0.1s-0.1,0.1-0.2,0.1c-0.1,0.1-0.2,0.1-0.3,0.1s-0.3,0-0.4,0s-0.3,0-0.4,0s-0.2,0-0.3-0.1c-0.1,0-0.1-0.1-0.1-0.1
			v-0.1v-12c0-0.3,0.1-0.5,0.2-0.6c0.2-0.1,0.3-0.2,0.5-0.2h1c0.2,0,0.4,0,0.6,0.1c0.2,0,0.3,0.1,0.4,0.2c0.1,0.1,0.2,0.2,0.3,0.3
			s0.2,0.3,0.2,0.5l3.8,9.5h0.1l3.9-9.4c0.1-0.2,0.2-0.4,0.3-0.5s0.2-0.3,0.3-0.4s0.2-0.2,0.4-0.2c0.1,0,0.3-0.1,0.4-0.1h1.1
			c0.1,0,0.2,0,0.3,0s0.2,0.1,0.2,0.1c0.1,0.1,0.1,0.2,0.2,0.3c0,0.1,0.1,0.2,0.1,0.4L42.4,22.5z M47.6,22.5
			C47.6,22.6,47.6,22.6,47.6,22.5c0,0.1-0.1,0.2-0.2,0.2s-0.2,0-0.3,0.1c-0.1,0-0.3,0-0.4,0s-0.3,0-0.4,0c-0.1,0-0.2,0-0.3-0.1
			s-0.1-0.1-0.1-0.1v-0.1V9.9c0-0.1,0-0.1,0-0.1s0.1-0.1,0.2-0.1c0.1,0,0.2,0,0.3-0.1c0.1,0,0.3,0,0.4,0c0.2,0,0.3,0,0.4,0
			c0.1,0,0.2,0,0.3,0.1c0.1,0,0.1,0.1,0.1,0.1v0.1C47.6,9.9,47.6,22.5,47.6,22.5z M57.9,22c0,0.1,0,0.3,0,0.4s0,0.2-0.1,0.2
			c0,0.1-0.1,0.1-0.1,0.1s-0.1,0-0.2,0h-5.8c-0.2,0-0.3-0.1-0.4-0.2s-0.2-0.3-0.2-0.5V9.9c0-0.1,0-0.1,0-0.1l0.1-0.1
			c0.1,0,0.2,0,0.3-0.1s0.3,0,0.4,0c0.2,0,0.3,0,0.4,0s0.2,0,0.3,0.1c0.1,0,0.1,0.1,0.1,0.1v0.1v11.3h4.7c0.1,0,0.1,0,0.2,0l0.1,0.1
			c0,0,0.1,0.1,0.1,0.2C57.8,21.8,57.9,21.9,57.9,22L57.9,22z M70.3,16.1c0,1.1-0.1,2-0.4,2.9c-0.3,0.8-0.6,1.6-1.1,2.2
			s-1.1,1.1-1.9,1.4c-0.7,0.3-1.6,0.5-2.6,0.5c-1,0-1.8-0.2-2.6-0.4c-0.7-0.3-1.3-0.7-1.8-1.3c-0.5-0.5-0.8-1.3-1.1-2.1
			c-0.3-0.8-0.4-1.8-0.4-2.9c0-1,0.1-2,0.4-2.8s0.6-1.6,1.1-2.2c0.5-0.6,1.1-1.1,1.9-1.4c0.7-0.3,1.6-0.5,2.6-0.5
			c1,0,1.8,0.2,2.5,0.4c0.7,0.3,1.3,0.7,1.8,1.3c0.5,0.5,0.8,1.3,1.1,2.1C70.2,14.1,70.3,15,70.3,16.1L70.3,16.1z M68.5,16.2
			c0-0.7-0.1-1.4-0.2-2.1c-0.1-0.6-0.4-1.2-0.6-1.7c-0.3-0.5-0.7-0.8-1.2-1.1s-1.2-0.4-1.9-0.4c-0.7,0-1.4,0.1-1.9,0.4
			c-0.5,0.3-0.9,0.7-1.3,1.1c-0.3,0.5-0.5,1-0.7,1.7c-0.1,0.6-0.2,1.3-0.2,2c0,0.8,0.1,1.5,0.2,2.1s0.4,1.2,0.6,1.7
			c0.3,0.5,0.7,0.8,1.2,1.1c0.5,0.3,1.2,0.4,1.9,0.4c0.8,0,1.4-0.1,1.9-0.4s0.9-0.7,1.3-1.2c0.3-0.5,0.5-1,0.7-1.7
			C68.4,17.6,68.5,16.9,68.5,16.2L68.5,16.2z M82.6,22.2c0.1,0.2,0.1,0.3,0.1,0.4s0,0.2-0.1,0.2s-0.1,0.1-0.3,0.1
			c-0.1,0-0.3,0-0.5,0h-0.4c-0.1,0-0.2,0-0.3-0.1c-0.1,0-0.1-0.1-0.1-0.1s-0.1-0.1-0.1-0.2l-1.1-3.2h-5.5l-1.1,3.1
			c0,0.1,0,0.1-0.1,0.2c0,0-0.1,0.1-0.2,0.1s-0.2,0.1-0.3,0.1s-0.3,0-0.4,0c-0.2,0-0.4,0-0.5,0s-0.2-0.1-0.3-0.1c0,0,0-0.1,0-0.2
			s0-0.2,0.1-0.4l4.4-12.2L76,9.7c0-0.1,0.1-0.1,0.2-0.1s0.2,0,0.3-0.1h1.1c0.1,0,0.3,0,0.4,0.1c0.1,0,0.2,0.1,0.2,0.1
			s0.1,0.1,0.1,0.2L82.6,22.2z M77,11.4l-2.3,6.5h4.6L77,11.4z M94.7,22.1c0,0.1,0,0.3-0.1,0.4c0,0.1-0.1,0.2-0.2,0.2
			c-0.1,0.1-0.2,0.1-0.3,0.1c-0.1,0-0.2,0-0.3,0h-0.4c-0.2,0-0.4,0-0.5-0.1c-0.1,0-0.3-0.1-0.4-0.2s-0.3-0.2-0.4-0.4
			c-0.1-0.2-0.3-0.4-0.4-0.6l-4-7.4c-0.2-0.4-0.4-0.8-0.6-1.2s-0.4-0.8-0.6-1.2l0,0c0,0.5,0,1,0,1.5v9.4c0,0.1,0,0.1,0,0.1
			s-0.1,0.1-0.2,0.1s-0.2,0-0.3,0.1c-0.1,0-0.3,0-0.4,0c-0.2,0-0.3,0-0.4,0s-0.2,0-0.3-0.1s-0.1-0.1-0.1-0.1v-0.1V10.4
			c0-0.3,0.1-0.4,0.2-0.6c0.2-0.1,0.3-0.2,0.5-0.2h0.9c0.2,0,0.4,0,0.5,0.1s0.3,0.1,0.4,0.2c0.1,0.1,0.2,0.2,0.3,0.3
			c0.1,0.1,0.2,0.3,0.3,0.5l3.1,5.7c0.2,0.4,0.4,0.7,0.5,1c0.2,0.3,0.4,0.7,0.5,1l0.5,1c0.2,0.3,0.3,0.6,0.5,0.9c0-0.5,0-1.1,0-1.7
			V9.8V9.7l0.1-0.1c0.1,0,0.2-0.1,0.3-0.1c0.1,0,0.3,0,0.4,0c0.2,0,0.3,0,0.4,0s0.2,0,0.3,0.1s0.1,0.1,0.1,0.1v0.1L94.7,22.1z"/>
		<path class="st4" d="M18.5,18.9c-0.2,0.6-0.9,0.8-1.4,0.6c-0.6-0.2-0.8-0.9-0.6-1.4c0.2-0.6,2.1-2.2,2.1-2.2S18.7,18.3,18.5,18.9z
			 M10.7,15.7c-0.2,0.6-0.9,0.8-1.4,0.6s-0.8-0.9-0.6-1.4c0.2-0.6,2.1-2.2,2.1-2.2S10.9,15.1,10.7,15.7z"/>
		<path class="st4" d="M17.1,11c-0.2,0.6-0.9,0.8-1.4,0.6c-0.6-0.2-0.8-0.9-0.6-1.4C15.3,9.6,17.2,8,17.2,8S17.4,10.4,17.1,11
			L17.1,11z"/>
	</g>
</g>
</svg>
