<svg viewBox="0 0 500 66.04" xmlns="http://www.w3.org/2000/svg"><g fill="#145a82"><path d="m417.09 0h13.62a24.56 24.56 0 0 1 13.08 8.37 27.44 27.44 0 0 1 5.81 16.9 28 28 0 0 1 -4.94 16.73 24.41 24.41 0 0 1 -13.72 9.46 26.74 26.74 0 0 1 -21.49-3.38 25 25 0 0 1 -9.77-13.17c-2.68-8.51-1.59-18.39 3.74-25.67a24.71 24.71 0 0 1 13.67-9.24zm5.17 9.57a13.67 13.67 0 0 0 -6.15 2.26 15.41 15.41 0 0 0 -6.24 10 19.8 19.8 0 0 0 1.68 12.73 13.89 13.89 0 0 0 7.49 6.66 14.17 14.17 0 0 0 13.57-2.15c4.75-3.8 6.37-10.38 5.54-16.22a15.94 15.94 0 0 0 -5.55-10.39 14 14 0 0 0 -10.34-2.89z"/><path d="m37.22.34q9.11 0 18.22 0c1.47 2.66 3.56 4.88 5.21 7.42 1.78 2.69 3.84 5.19 5.6 7.89 4.86 6.51 9.43 13.22 14.27 19.74 3.9 5.46 7.76 11 11.79 16.35v14.3h-31.31v-14.49h14.92c-3.26-4.11-6.13-8.52-9.29-12.71-4.62-6.59-9.44-13-14.07-19.64a42.54 42.54 0 0 1 -2.85-4c-2.27 0-4.54 0-6.81 0-6.79 9.16-13.35 18.55-20.11 27.8-1.9 2.93-4.17 5.61-6 8.57h15.89v-10.46h13.82v24.89h-46.5v-13.89c10.6-14.53 21-29.2 31.59-43.73 1.73-2.79 4.02-5.18 5.63-8.04z"/><path d="m313.1 40.88q11.72-20.33 23.41-40.69h12.43c-7.19 13-14.56 26-21.81 39h13c.08-4-.06-8.1.07-12.15h11.16v12.12h8.13c.08 4.16 0 8.34 0 12.5-2.71 0-5.42 0-8.13 0-.08 4.49 0 9 0 13.47-3.86 0-7.72 0-11.57 0 0-4.48 0-9 0-13.46-9 0-18 0-27 0-.11-2.85 0-5.71-.06-8.57a4.07 4.07 0 0 1 .37-2.22z"/><path d="m351.37.24c3.92-.11 7.84 0 11.76 0 4.11 7.47 8.19 15 12.35 22.4q6.14-11.26 12.33-22.45h10.88c-5.62 10.37-11.37 20.67-17.05 31-.43.89-1.2 1.71-1.1 2.77v17.34c-3.69 0-7.37 0-11.05 0 0-5.89 0-11.78 0-17.67a5.06 5.06 0 0 0 -.93-2.28c-5.75-10.35-11.5-20.71-17.19-31.11z"/><path d="m457.41.2q5.53 0 11.06 0v28.78c.09 3.51.55 7.32 2.88 10.11a9.37 9.37 0 0 0 7.42 3c2.8 0 5.8-.86 7.57-3.15 2.18-2.8 2.61-6.5 2.7-9.93 0-9.6 0-19.19 0-28.78h10.92v30.47c-.35 5.49-1.68 11.22-5.44 15.41s-9.32 6.12-14.78 6.24c-5.8.25-12-1.24-16.21-5.47-4.52-4.48-6.09-11.07-6.16-17.25q.01-14.71.04-29.43z"/></g><g fill="#ef7f24"><path d="m160.93 25.85c8-5.3 19.64-4.48 26.63 2.21 8.35 7.81 9 22.13 1.8 30.9a20.74 20.74 0 0 1 -11.61 7.04h-9.82a20.69 20.69 0 0 1 -12.33-8 23.81 23.81 0 0 1 -3.3-20.29 21 21 0 0 1 8.63-11.86zm8.72 5.72a11.93 11.93 0 0 0 -8.34 9.14c-1.07 4.78-.16 10.32 3.44 13.86a11.81 11.81 0 0 0 13.61 1.89 12.22 12.22 0 0 0 6-8.33c1.12-5-.05-11-4.18-14.39a11.82 11.82 0 0 0 -10.53-2.17z"/><path d="m246.8 23.11c9.48-.12 19 0 28.46-.05.43.09 1.06-.18 1.39.18.07 2.7 0 5.39 0 8.09-6.84 0-13.68 0-20.52 0q0 4.34 0 8.67h18.13v7.94c-6 .09-12.08 0-18.12 0v9.61h21.22v8.26q-15.27 0-30.54 0c-.06-14.19 0-28.44-.02-42.7z"/><path d="m100.14 23.13c2.59-.1 5.19 0 7.78 0l14.46 26.15c4.79-8.7 9.49-17.45 14.28-26.16h7.67c0 14.27.14 28.53.06 42.8-2.92 0-5.84 0-8.75 0 0-8.29 0-16.57-.07-24.85-3.76 6.77-7.43 13.58-11.17 20.37-1.42 0-2.83 0-4.25 0-3.75-6.59-7.4-13.25-11.13-19.86-.07 8.11 0 16.21 0 24.32-2.92 0-5.85 0-8.77 0-.18-14.27-.05-28.52-.11-42.77z"/><path d="m201.15 23.11c2.58-.06 5.16 0 7.74 0l19.21 25.4q0-12.69 0-25.37c3.08-.05 6.16 0 9.25 0q0 21.38 0 42.76c-2.55 0-5.09 0-7.64 0-6.46-8.45-12.86-17-19.3-25.42v25.39c-3.08 0-6.16 0-9.24 0q-.03-21.4-.02-42.76z"/><path d="m278.54 23.12c3.31-.1 6.62 0 9.94 0q5.15 9.31 10.29 18.64 5.18-9.29 10.3-18.63h9.18c-1.73 3.56-3.81 7-5.68 10.45q-4.63 8.37-9.27 16.74a3.62 3.62 0 0 0 -.25 1.91v13.66c-3.1 0-6.2 0-9.3 0-.06-5.07.05-10.16-.05-15.23-4.97-9.25-10.21-18.32-15.16-27.54z"/></g></svg>