<?xml version="1.0" encoding="utf-8"?>
<!-- Generator: Adobe Illustrator 21.0.0, SVG Export Plug-In . SVG Version: 6.00 Build 0)  -->
<svg version="1.1" id="Слой_1" xmlns:xodm="http://www.corel.com/coreldraw/odm/2003"
	 xmlns="http://www.w3.org/2000/svg" xmlns:xlink="http://www.w3.org/1999/xlink" x="0px" y="0px" viewBox="0 0 3495.3 593.1"
	 style="enable-background:new 0 0 3495.3 593.1;" xml:space="preserve">
<style type="text/css">
	.st0{fill:#003764;}
	.st1{fill:#0055B8;}
</style>
<g id="Слой_x0020_1">
	<g id="_2044366505744">
		<g>
			<path class="st0" d="M1049.7,521c0,13.5-4,24.3-11.9,32.5c-7.8,8.2-18.3,12.2-31.5,12.2c-13.2,0-23.7-4.1-31.6-12.2
				c-7.9-8.2-11.9-19-11.9-32.5c0-13.4,4-24.1,12.1-32.3c8-8.2,18.7-12.2,31.8-12.2c12.9,0,23.3,4.1,31.2,12.2
				C1045.7,496.9,1049.7,507.7,1049.7,521z M1026.5,520.9c0-8.4-1.8-14.9-5.5-19.6c-3.6-4.8-8.6-7.2-15-7.2
				c-6.2,0-11.1,2.4-14.7,7.2c-3.6,4.8-5.4,11.4-5.4,19.7c0,8.6,1.8,15.3,5.4,20.1c3.6,4.8,8.6,7.2,15,7.2c6.4,0,11.4-2.4,14.8-7.2
				C1024.7,536.2,1026.5,529.5,1026.5,520.9z M1165,563.1h-23v-35.4h-32.5v35.4h-23V479l23,0v30.5h32.5V479h23V563.1z M1282.6,563.1
				h-23v-66.4l-22.2,0l-1,29.7c-0.1,3.3-0.2,5.9-0.3,7.8c-0.1,1.9-0.4,4.4-1,7.5c-0.4,3.2-1,5.7-1.6,7.7c-0.7,1.9-1.7,4-3.1,6.4
				c-1.3,2.3-2.9,4.1-4.7,5.4c-1.7,1.2-4,2.2-6.8,3.1c-2.8,1-6,1.5-9.5,1.5c-5.7,0-9.8-0.5-12.6-1.6v-18.4c2.7,0.5,4.9,0.8,6.5,0.8
				c6.6,0,10.1-5.8,10.4-17.4l1.3-50.1h67.5V563.1L1282.6,563.1z M1400.6,563.1h-23.5c-0.8-2.2-1.3-4.9-1.6-8.2
				c-7.1,7.1-16.1,10.6-27.2,10.6c-9.4,0-16.7-2.2-22-6.7c-5.3-4.6-8-10.8-8-18.8c0-3.6,0.4-6.7,1.3-9.5c1-2.7,2.5-5,4.6-6.8
				c2.2-1.9,4.2-3.4,6-4.6c2-1.2,4.6-2.2,8-2.9c3.4-0.8,6.1-1.3,8.2-1.6c2.1-0.4,4.9-0.9,8.6-1.3c8.2-1.1,13.6-2.2,16.3-3.4
				c2.8-1.2,4.2-3.4,4.2-6.7c0-7.5-5.1-11.3-15.2-11.3c-5.3,0-9.2,1-11.7,2.9c-2.5,1.9-4.1,5.2-4.9,10H1322
				c1.3-18.9,14.3-28.4,39-28.4c24.5,0,36.7,9.1,36.7,27.4v36.4C1397.7,551,1398.7,558.6,1400.6,563.1L1400.6,563.1z M1375.4,522.2
				c-2.7,1.6-8.2,3.1-16.3,4.4c-6.8,1.1-11.3,2.4-13.4,4.1c-2.4,2.1-3.6,4.9-3.6,8.5c0,3.5,1.1,6.3,3.3,8.3c2.3,2,5.4,2.9,9.5,2.9
				c6.2,0,11.1-1.6,14.8-4.9c3.8-3.4,5.7-8,5.7-13.9L1375.4,522.2L1375.4,522.2z M1494.3,447h9.1c0,15.7-8.9,23.5-26.6,23.5
				c-17.7,0-26.6-7.8-26.6-23.5h9.1c1.4,7.2,7.2,10.8,17.5,10.8S1492.9,454.2,1494.3,447L1494.3,447z M1516.2,563.1H1494v-56.9
				l-30,56.9h-26.3V479l22.2,0v56.9l30-56.9h26.3V563.1z M1634.2,563.1h-23v-35.4h-32.5v35.4h-23V479l23,0v30.5h32.5V479h23V563.1z
				 M1826.2,563.1h-28.1l-24.3-36.2l-10.3,10.4v25.8h-22.7V479l22.7,0v33.3l30.8-33.3h27.2l-32.6,32.6L1826.2,563.1L1826.2,563.1z
				 M1877.1,479v10.4c6.1-8.5,14.8-12.7,26.1-12.7c11.3,0,20.4,4.1,27.2,12.2c6.8,8.2,10.3,19,10.3,32.6c0,13.2-3.4,23.8-10.1,31.8
				c-6.6,7.9-15.4,11.9-26.4,11.9c-11.3,0-20-4.2-25.9-12.6V593l-23,0V479L1877.1,479L1877.1,479z M1897.5,495.3
				c-6.3,0-11.3,2.3-14.8,6.8c-3.5,4.6-5.2,10.9-5.2,19.1c0,8.2,1.8,14.5,5.4,19.1c3.6,4.6,8.5,6.8,14.8,6.8c6.2,0,11-2.3,14.5-6.8
				c3.6-4.6,5.4-10.8,5.4-18.8c0-8.2-1.8-14.6-5.4-19.2C1908.6,497.6,1903.7,495.3,1897.5,495.3L1897.5,495.3z M2055.4,537
				c-2.6,9-7.4,16-14.5,21c-7,5-15.3,7.5-25,7.5c-13,0-23.4-4-31.3-12.1c-7.8-8-11.7-18.7-11.7-32c0-13.1,4-23.8,11.9-32.3
				c7.9-8.5,18.1-12.7,30.4-12.7c12.7,0,22.8,4.3,30.3,13c7.5,8.6,11.3,20.3,11.3,35.1v2.3l-60.4,0c0.1,7.3,1.8,12.8,5.2,16.6
				c3.5,3.8,8.3,5.7,14.5,5.7c8.2,0,13.9-4.1,17.1-12.2L2055.4,537L2055.4,537z M2033.3,512.2c-0.5-5.5-2.3-10.1-5.4-13.5
				c-3-3.6-7.3-5.4-12.7-5.4c-5.1,0-9.4,1.7-12.7,5.1c-3.4,3.4-5.4,8-6,13.9H2033.3z M2179.7,587.9H2158v-24.8l-55.5,0v24.8h-21.7
				v-42.6l10.1,0c2.7-5.2,5.2-12.8,7.3-22.8c2.2-10,3.3-19.6,3.3-28.9V479h67.2v66.4l10.9,0V587.9z M2145.7,545.3v-49.3h-22.7v2.1
				c0,8.2-1,16.8-3.1,25.9c-1.9,9-4.1,16.1-6.4,21.2H2145.7z M2291,563.1h-22.2v-56.9l-30,56.9h-26.3V479l22.2,0v56.9l30-56.9h26.3
				V563.1z M2401.6,496.7h-27.7v66.4l-23,0v-66.4l-27.7,0V479h78.4V496.7z M2514.6,479h23v84.2l-23,0V479z M2504,535.4
				c0,9-2.9,15.9-8.8,20.7c-5.8,4.7-13.4,7-23,7h-40.1V479l22.8,0v28.9h18.3c8.9,0,16.3,2.4,22,7.2
				C2501.1,519.8,2504,526.6,2504,535.4L2504,535.4z M2454.9,523.5v23.7h11.8c9.4,0,14-3.9,14-11.7c0-3.9-1.3-6.8-3.9-8.8
				c-2.6-2.1-6-3.1-10.3-3.1L2454.9,523.5z M2721,563.1h-23v-35.4h-32.5v35.4h-23V479l23,0v30.5h32.5V479h23V563.1z M2838.6,563.1
				h-23.5c-0.8-2.2-1.3-4.9-1.6-8.2c-7.1,7.1-16.2,10.6-27.2,10.6c-9.4,0-16.7-2.2-22-6.7c-5.3-4.6-8-10.8-8-18.8
				c0-3.6,0.4-6.7,1.3-9.5c1-2.7,2.5-5,4.6-6.8c2.2-1.9,4.2-3.4,6-4.6c1.9-1.2,4.6-2.2,8-2.9c3.4-0.8,6.1-1.3,8.2-1.6
				c2.1-0.4,5-0.9,8.6-1.3c8.2-1.1,13.6-2.2,16.3-3.4c2.8-1.2,4.3-3.4,4.3-6.7c0-7.5-5.1-11.3-15.2-11.3c-5.3,0-9.2,1-11.8,2.9
				c-2.5,1.9-4.1,5.2-4.9,10H2760c1.3-18.9,14.3-28.4,39-28.4c24.5,0,36.7,9.1,36.7,27.4v36.4
				C2835.6,550.9,2836.6,558.6,2838.6,563.1L2838.6,563.1z M2813.3,522.2c-2.7,1.6-8.2,3.1-16.3,4.4c-6.8,1.1-11.3,2.4-13.4,4.1
				c-2.4,2.1-3.6,4.9-3.6,8.5c0,3.5,1.1,6.3,3.3,8.3c2.3,2,5.4,2.9,9.5,2.9c6.2,0,11.1-1.6,14.8-4.9c3.8-3.4,5.7-8,5.7-13.9V522.2
				L2813.3,522.2z M3028,563.1H3000l-24.3-36.2l-10.3,10.4v25.8h-22.7V479l22.7,0v33.3l30.8-33.3h27.2l-32.6,32.6L3028,563.1
				L3028,563.1z M3135.4,563.1h-23.5c-0.8-2.2-1.3-4.9-1.6-8.2c-7.1,7.1-16.2,10.6-27.2,10.6c-9.4,0-16.7-2.2-22-6.7
				c-5.3-4.6-8-10.8-8-18.8c0-3.6,0.4-6.7,1.3-9.5c1-2.7,2.5-5,4.6-6.8c2.2-1.9,4.2-3.4,6-4.6c2-1.2,4.6-2.2,8-2.9
				c3.4-0.8,6.1-1.3,8.2-1.6c2.1-0.4,5-0.9,8.6-1.3c8.2-1.1,13.6-2.2,16.3-3.4c2.8-1.2,4.3-3.4,4.3-6.7c0-7.5-5.1-11.3-15.2-11.3
				c-5.3,0-9.2,1-11.7,2.9c-2.5,1.9-4.1,5.2-4.9,10h-21.7c1.3-18.9,14.3-28.4,39-28.4c24.5,0,36.7,9.1,36.7,27.4v36.4
				C3132.5,550.9,3133.4,558.6,3135.4,563.1L3135.4,563.1z M3110.1,522.2c-2.7,1.6-8.2,3.1-16.3,4.4c-6.9,1.1-11.3,2.4-13.4,4.1
				c-2.4,2.1-3.6,4.9-3.6,8.5c0,3.5,1.1,6.3,3.3,8.3c2.3,2,5.4,2.9,9.5,2.9c6.2,0,11.1-1.6,14.8-4.9c3.8-3.4,5.7-8,5.7-13.9
				L3110.1,522.2L3110.1,522.2z M3194,479v10.4c6.1-8.5,14.8-12.7,26.1-12.7c11.3,0,20.4,4.1,27.2,12.2c6.9,8.2,10.3,19,10.3,32.6
				c0,13.2-3.4,23.8-10.1,31.8c-6.6,7.9-15.4,11.9-26.4,11.9c-11.3,0-20-4.2-25.9-12.6V593l-23,0V479L3194,479L3194,479z
				 M3214.4,495.3c-6.3,0-11.2,2.3-14.8,6.8c-3.5,4.6-5.2,10.9-5.2,19.1c0,8.2,1.8,14.5,5.4,19.1c3.6,4.6,8.5,6.8,14.9,6.8
				c6.2,0,11-2.3,14.5-6.8c3.6-4.6,5.4-10.8,5.4-18.8c0-8.2-1.8-14.6-5.4-19.2C3225.4,497.6,3220.6,495.3,3214.4,495.3L3214.4,495.3
				z M3361.6,496.7h-27.7v66.4l-23,0v-66.4l-27.7,0V479h78.4V496.7z M3469.7,479l-31,83.8c-1.5,4.2-2.7,7.2-3.4,8.8
				c-0.6,1.7-1.7,4.1-3.3,7.2c-1.4,3-2.8,5.2-4.1,6.4c-1.2,1.2-2.9,2.6-5.1,4.1c-2.1,1.5-4.5,2.6-7.2,3.1c-2.6,0.5-5.7,0.8-9.1,0.8
				c-2.8,0-8-0.1-15.5-0.2v-19.1h11.3c3.8,0,6.7-1,8.6-2.9c2.1-2,3.1-4.7,3.1-8.3c0-0.9-0.2-2-0.6-3.3L3383,479l25,0l19.2,57.3
				l18.6-57.3H3469.7z"/>
			<polygon class="st0" points="981,399.5 981,55.7 1050.4,55.7 1151,199.4 1251.6,55.7 1320.9,55.7 1320.9,399.5 1258.2,399.5 
				1258.2,145.5 1150.7,297.6 1043.2,145.5 1043.2,399.8 981,399.8 981,399.5 			"/>
			<polygon class="st0" points="1373.5,55.7 1449.2,55.7 1541.3,195.3 1633,55.7 1708.7,55.7 1572.8,252.1 1572.8,399.5 1510,399.5 
				1510,252.1 			"/>
			<path class="st1" d="M1757.2,301.6c-6.6-21.2-9.8-46.1-9.8-74.2c0-28.1,3.1-53,9.8-74.2c6.6-21.2,15.1-38.3,25.5-51.2
				c10.4-12.8,23-23.1,37.8-30.8c14.8-8.1,29.3-13.4,43.2-15.9c14.2-2.8,29.3-4.1,45.7-4.1c35.6,0,70.6,6.8,105.3,20.3v58
				c-33.1-14.9-66.2-22.8-99.9-22.8c-15.8,0-29,1.2-40,4c-11,2.8-22.1,8.1-32.5,15.9c-10.7,7.8-18.6,20.3-24.3,37.1
				c-5.7,16.8-8.2,38.1-8.2,63.3c0,25.5,2.8,46.7,8.2,63.3c5.4,16.8,13.6,29,24.3,37.1c10.7,7.8,21.4,13.1,32.5,15.9
				c11,2.8,24.6,4,40,4c33.4,0,66.8-7.5,99.9-22.8v57.7c-34.7,13.7-70,20.6-105.3,20.6c-16.4,0-31.5-1.3-45.7-4.1
				c-14.2-2.8-28.4-8.1-43.2-15.9c-14.8-8.1-27.4-18.4-37.8-30.8C1772.3,340,1763.8,322.9,1757.2,301.6L1757.2,301.6z"/>
			<path class="st1" d="M2088.2,399.5V55.7h133.7c40.7,0,72.5,9.7,94.9,28.7c22.7,19,34.1,46.5,34.1,82c0,52.4-25.5,86.3-76.3,101.6
				l91.4,131.5h-75.7l-82.9-121.2h-56.1v121.2H2088.2z M2151,221.5h69.4c21.1,0,37.8-3.7,49.8-11.2c12-7.4,18-21.5,18-42.4
				c0-21.2-6-35.6-18-42.7c-12-7.5-28.7-10.9-49.8-10.9H2151V221.5z"/>
			<polygon class="st1" points="2428.7,399.5 2428.7,55.7 2660.1,55.7 2660.1,111.2 2491.5,111.2 2491.5,198.1 2637.7,198.1 
				2637.7,256.4 2491.5,256.4 2491.5,343.4 2660.1,343.4 2660.1,398.8 2428.7,398.8 			"/>
			<path class="st1" d="M2735.2,399.5V55.7h120.1c53.9,0,94.6,14.6,122.7,44c27.7,29.3,41.9,72,41.9,128.4
				c0,56.1-13.8,98.8-41.6,127.8c-27.7,29.3-68.7,44-122.6,44h-120.4L2735.2,399.5L2735.2,399.5L2735.2,399.5z M2797.6,344h57.4
				c36.3,0,62.1-9.1,77.9-27.1c15.7-18.1,23.9-47.7,23.9-88.8c0-41.4-7.9-71.4-23.9-89.5c-15.8-18-41.9-27.1-77.9-27.1l-57.4,0V344z
				"/>
			<polygon class="st1" points="3096.4,399.5 3096.4,55.7 3159.2,55.7 3159.2,399.5 			"/>
			<polygon class="st1" points="3210.3,117.7 3210.3,55.7 3495.3,55.7 3495.3,117.7 3383.6,117.7 3383.6,399.5 3320.9,399.5 
				3320.9,117.7 			"/>
			<path class="st0" d="M586.5,29.5C574.7,13.2,548.3,0,528.1,0H36.8C16.6,0,0,16.4,0,36.4v57.7l634,0L586.5,29.5z"/>
			<path class="st1" d="M757.3,261.8l-77.5-105.5H0v389.8c0,20,16.6,36.4,36.8,36.4h491.3c20.3,0,46.6-13.3,58.5-29.5l170.8-232.4
				C769.2,304.5,769.2,278,757.3,261.8L757.3,261.8z M128.7,502.7h-29c-16,0-29-12.9-29-28.7c0-15.8,12.9-28.7,29-28.7l29,0
				c16,0,29,12.8,29,28.7C157.7,489.8,144.7,502.7,128.7,502.7z M354.5,502.7H231.6c-16,0-29-12.9-29-28.7c0-15.8,12.9-28.7,29-28.7
				l122.9,0c16,0,29,12.8,29,28.7C383.5,489.8,370.5,502.7,354.5,502.7z M360.5,359.5H99.7c-16,0-29-12.9-29-28.7
				c0-15.8,12.9-28.7,29-28.7h260.8c16,0,29,12.9,29,28.7C389.5,346.6,376.5,359.5,360.5,359.5z"/>
		</g>
	</g>
</g>
</svg>
