<?xml version="1.0" encoding="utf-8"?>
<!-- Generator: Adobe Illustrator 21.0.0, SVG Export Plug-In . SVG Version: 6.00 Build 0)  -->
<svg version="1.1" id="Слой_1" xmlns="http://www.w3.org/2000/svg" xmlns:xlink="http://www.w3.org/1999/xlink" x="0px" y="0px"
	 viewBox="0 0 100 41.5" style="enable-background:new 0 0 100 41.5;" xml:space="preserve">
<style type="text/css">
	.st0{fill:#0057A8;}
	.st1{fill:#FFFFFF;}
	.st2{fill:#6ECFF6;}
</style>
<g>
	<rect class="st0" width="100" height="41.5"/>
	<g>
		<g>
			<path class="st1" d="M7.7,15.3h2.4v8.1h2.5v-8.1H15v8.1h2.5v-8.1h2.4v9.9H7.7V15.3z"/>
			<path class="st1" d="M25,25.2h-4.2v-6.5H25c1.2,0,2.3,0.7,2.3,1.7c0,0.6-0.4,1.2-0.9,1.3l0,0c0.4,0,1.2,0.6,1.2,1.6
				C27.5,24.4,26.4,25.2,25,25.2z M24.3,20.1h-1.1v1h0.9c0.3,0,0.6-0.1,0.6-0.5C24.8,20.2,24.6,20.1,24.3,20.1z M24.3,22.5h-1v1.2
				h1.1c0.4,0,0.7-0.2,0.7-0.6C25.1,22.5,24.7,22.5,24.3,22.5z"/>
			<path class="st1" d="M33.2,25.2v-3.7l0,0L31,25.2h-2.6v-6.5h2.4v3.7l0,0l2.2-3.7h2.6v6.5H33.2z"/>
			<path class="st1" d="M42,26.1v-1h-3.8v1h-2.3v-2.5h0.6c1.1-1.4,1-3.4,1-5h5.9v5h0.9v2.5H42z M41,20.2h-1.2c0,1.1-0.3,2.9-0.8,3.4
				h2V20.2z"/>
			<path class="st1" d="M44.7,25.2v-6.5h2.4v6.5H44.7z M48.9,25.2l-1.8-2.4v-2.1l1.7-2h2.9l-2.3,2.6l2.7,3.9H48.9z"/>
			<path class="st1" d="M54.9,25.4c-2,0-3.7-1.1-3.7-3.5s1.7-3.5,3.7-3.5s3.7,1.1,3.7,3.5C58.5,24.3,56.9,25.4,54.9,25.4z
				 M54.9,20.2c-1,0-1.2,0.9-1.2,1.7c0,0.8,0.2,1.7,1.2,1.7s1.2-0.9,1.2-1.7C56.1,21.2,55.9,20.2,54.9,20.2z"/>
		</g>
		<g>
			<path class="st2" d="M74.1,25.4c-2,0-3.7-1.1-3.7-3.5s1.7-3.5,3.7-3.5s3.7,1.1,3.7,3.5C77.7,24.3,76,25.4,74.1,25.4z M74.1,20.2
				c-1,0-1.2,0.9-1.2,1.7c0,0.8,0.2,1.7,1.2,1.7s1.2-0.9,1.2-1.7C75.3,21.2,75.1,20.2,74.1,20.2z"/>
			<path class="st2" d="M59.2,25.2v-9.7h6.1v2.2h-3.5v7.6L59.2,25.2L59.2,25.2z"/>
			<path class="st2" d="M67.2,25.4c-0.7,0-1.4-0.4-1.8-1l0,0v1.7H63v-7.5h2.4v0.9l0,0c0.5-0.8,1.1-1.1,2.1-1.1
				c1.9,0,2.7,1.7,2.7,3.4C70.2,23.7,69.3,25.4,67.2,25.4z M66.5,20.2c-1,0-1.2,0.9-1.2,1.6s0.2,1.6,1.2,1.6s1.2-0.9,1.2-1.6
				S67.6,20.2,66.5,20.2z"/>
			<path class="st2" d="M78.2,25.2v-6.5h2.4v4.7h1.7v-4.7h2.4v4.7h1.7v-4.7h2.4v6.5H78.2z"/>
			<path class="st2" d="M89.6,16.7L89.6,16.7c0-0.6,0.4-1,1-1h0.5c0.6,0,1,0.4,1,1l0,0c0,0.6-0.4,1-1,1h-0.5
				C90,17.7,89.6,17.2,89.6,16.7z M89.8,25.2v-6.5H92v6.5H89.8z"/>
		</g>
	</g>
</g>
</svg>
