<svg width="207" height="66" viewBox="0 0 207 66" fill="none" xmlns="http://www.w3.org/2000/svg">
<path d="M59.0781 13.0781L50.2891 22.0625C54.5859 28.7031 54.5859 37.2969 50.2891 43.9375L59.0781 52.9219C67.8672 41.2031 67.8672 24.7969 59.0781 13.0781ZM44.2344 16.0078L53.0234 7.02344C41.5 -1.96094 25.2891 -1.96094 13.7656 7.02344L22.5547 16.0078C29.1953 11.7109 37.5938 11.7109 44.2344 16.0078ZM22.5547 49.9922L13.7656 58.9766C25.2891 67.9609 41.5 67.9609 53.0234 58.9766L44.2344 49.9922C37.5938 54.2891 29.1953 54.2891 22.5547 49.9922ZM16.5 22.0625L7.71094 13.0781C-1.27344 24.7969 -1.27344 41.2031 7.71094 52.7266L16.5 43.7422C12.3984 37.2969 12.3984 28.7031 16.5 22.0625Z" fill="#BE1622"/>
<path d="M206.148 20.6953H194.43C193.844 20.6953 193.648 21.2813 193.648 21.6719C193.648 22.2578 193.844 22.6484 194.43 22.6484H199.313V43.7422C199.313 44.3281 199.703 44.5234 200.289 44.5234C200.68 44.5234 201.266 44.1328 201.266 43.7422V22.8438H206.148C206.734 22.8438 206.93 22.2578 206.93 21.8672C206.93 21.2813 206.539 20.6953 206.148 20.6953ZM132.711 22.6484C136.227 22.6484 136.813 25.1875 136.813 26.5547C136.813 26.9453 137.008 27.3359 137.789 27.3359C138.375 27.3359 138.766 27.1406 138.766 25.9688C138.766 23.0391 136.617 20.5 132.711 20.5C129.391 20.5 126.461 22.4531 126.461 27.5313V37.6875C126.461 42.7656 129.195 44.7187 132.516 44.7187C136.422 44.7187 138.57 42.1797 138.57 39.0547C138.57 37.8828 138.375 37.6875 137.594 37.6875C137.008 37.6875 136.617 38.0781 136.617 38.4688C136.422 40.0313 136.031 42.5703 132.711 42.5703C129.781 42.5703 128.414 41.0078 128.414 37.4922V27.3359C128.609 24.4062 130.172 22.6484 132.711 22.6484ZM178.609 20.6953H173.336C172.75 20.6953 172.555 21.0859 172.555 21.4766V43.9375C172.555 44.3281 172.945 44.7187 173.336 44.7187H178.609C182.125 44.7187 184.664 42.7656 184.664 37.6875V27.7266C184.859 22.6484 182.125 20.6953 178.609 20.6953ZM182.906 37.6875C182.906 41.2031 181.344 42.7656 178.805 42.7656H174.703V22.6484H178.805C181.344 22.6484 182.906 24.2109 182.906 27.7266V37.6875ZM149.898 33.5859C152.438 33.1953 154.391 31.2422 154.391 27.1406C154.391 22.2578 151.461 20.6953 148.141 20.6953H142.867C142.477 20.6953 142.086 21.0859 142.086 21.4766V43.9375C142.086 44.5234 142.477 44.7187 143.063 44.7187C143.453 44.7187 144.039 44.3281 144.039 43.9375V33.7813H147.75L152.242 43.7422C152.437 44.3281 152.828 44.9141 153.219 44.9141C153.805 44.9141 154.391 44.3281 154.391 43.7422C154.391 43.5469 154.391 43.3516 154.195 43.3516C154.391 43.3516 149.898 33.5859 149.898 33.5859ZM144.234 32.0234V22.8438H148.141C150.68 22.8438 152.633 24.2109 152.633 27.3359C152.633 30.6562 150.875 32.0234 148.141 32.0234H144.234ZM189.938 20.6953C189.352 20.6953 188.961 20.8906 188.961 21.4766V43.9375C188.961 44.5234 189.352 44.7187 189.938 44.7187C190.328 44.7187 190.914 44.3281 190.914 43.9375V21.4766C190.914 20.8906 190.523 20.6953 189.938 20.6953ZM169.039 22.6484C169.43 22.6484 169.82 22.2578 169.82 21.6719C169.82 21.2813 169.625 20.6953 169.039 20.6953H158.688C158.297 20.6953 157.906 20.8906 157.906 21.4766V43.9375C157.906 44.5234 158.297 44.7187 158.688 44.7187H169.039C169.625 44.7187 169.82 44.1328 169.82 43.7422C169.82 43.1562 169.625 42.7656 169.039 42.7656H159.664V33.5859H164.352C164.938 33.5859 165.133 33.1953 165.133 32.6094C165.133 32.0234 164.938 31.6328 164.352 31.6328H159.664V22.6484H169.039Z" fill="black"/>
<path d="M80.9531 26.9453C80.9531 25.3828 82.125 24.4062 84.2734 24.4062C86.8125 24.4062 87.3984 25.5781 88.375 25.5781C89.3516 25.5781 89.9375 24.0156 89.9375 23.2344C89.9375 21.0859 86.0313 20.6953 84.2734 20.6953C80.9531 20.6953 77.0469 22.4531 77.0469 27.3359C77.0469 35.1484 86.4219 33.5859 86.4219 38.4688C86.4219 40.4219 84.8594 41.3984 83.1016 41.3984C80.1719 41.3984 79.3906 38.8594 78.0234 38.8594C77.0469 38.8594 76.2656 40.2266 76.2656 41.2031C76.2656 43.1562 79.1953 45.3047 83.1016 45.3047C87.2031 45.3047 90.1328 42.9609 90.1328 38.0781C90.3281 29.6797 80.9531 31.0469 80.9531 26.9453ZM112.984 26.9453C112.984 25.3828 114.156 24.4062 116.305 24.4062C118.844 24.4062 119.43 25.5781 120.406 25.5781C121.383 25.5781 121.969 24.0156 121.969 23.2344C121.969 21.0859 118.063 20.6953 116.305 20.6953C112.984 20.6953 109.078 22.4531 109.078 27.3359C109.078 35.1484 118.453 33.5859 118.453 38.4688C118.453 40.4219 116.891 41.3984 115.133 41.3984C112.203 41.3984 111.422 38.8594 110.055 38.8594C109.078 38.8594 108.297 40.2266 108.297 41.2031C108.297 43.1562 111.227 45.3047 115.133 45.3047C119.234 45.3047 122.164 42.9609 122.164 38.0781C122.555 29.6797 112.984 31.0469 112.984 26.9453ZM99.7031 20.8906C95.7969 20.8906 92.8672 22.8438 92.8672 28.5078V37.6875C92.8672 43.1563 95.7969 45.3047 99.7031 45.3047C103.609 45.3047 106.539 43.3516 106.539 37.6875V28.5078C106.539 22.8438 103.609 20.8906 99.7031 20.8906ZM102.828 37.6875C102.828 40.2266 101.656 41.3984 99.7031 41.3984C97.75 41.3984 96.5781 40.2266 96.5781 37.6875V28.5078C96.5781 25.9688 97.75 24.7969 99.7031 24.7969C101.656 24.7969 102.828 25.9688 102.828 28.5078V37.6875Z" fill="#BE1622"/>
</svg>
